<svg class="thz-svg-shape thz-svg-abstract-wave-stroke" xmlns="http://www.w3.org/2000/svg" viewBox="0 0 1000 250" preserveAspectRatio="none">
	<path fill="none" stroke-width="0.1" stroke-miterlimit="10" enable-background="new" d="M1000,111.086 c-48.043-7.433-95.422-12.243-129.834-11.725c-60.346,0.863-107.1,10.427-160.494,38.887 c-23.475,12.503-44.996,28.865-64.838,44.448c-0.586,0.461-1.133,0.894-1.719,1.354c-0.586,0.46-1.133,0.893-1.719,1.354 c-0.586,0.46-1.133,0.893-1.719,1.354c-0.586,0.431-1.133,0.892-1.68,1.353c-0.547,0.432-1.133,0.893-1.68,1.326 c-0.547,0.432-1.133,0.893-1.68,1.325c-0.547,0.431-1.133,0.863-1.68,1.325c-0.547,0.432-1.094,0.864-1.641,1.295 c-0.547,0.433-1.094,0.865-1.639,1.298c-0.549,0.432-1.096,0.863-1.641,1.296c-0.549,0.432-1.094,0.864-1.641,1.266 c-0.547,0.434-1.094,0.837-1.641,1.269s-1.094,0.835-1.602,1.238c-0.547,0.404-1.094,0.836-1.602,1.239 c-0.547,0.403-1.094,0.835-1.602,1.238c-0.547,0.403-1.055,0.808-1.602,1.209c-0.547,0.405-1.055,0.807-1.602,1.211 c-0.508,0.402-1.055,0.807-1.563,1.181c-0.547,0.404-1.055,0.777-1.602,1.182c-0.508,0.402-1.055,0.778-1.563,1.152 c-0.508,0.375-1.055,0.748-1.563,1.123s-1.055,0.749-1.563,1.123c-0.391,0.289-0.82,0.576-1.211,0.865 c-0.508,0.374-1.055,0.72-1.563,1.094c-0.508,0.345-1.016,0.721-1.523,1.065l0,0c-9.217,6.367-17.967,11.609-26.326,15.038 c-74.76,30.706-174.635,8.122-222.209-19.013c-66.675-37.967-80.346-82.414-99.368-119.227c-0.273-0.547-0.547-1.095-0.859-1.613 c-0.273-0.548-0.546-1.067-0.859-1.613c-0.273-0.548-0.586-1.066-0.858-1.613c-0.274-0.519-0.586-1.065-0.859-1.585 c-0.313-0.518-0.586-1.065-0.898-1.584c-0.273-0.518-0.586-1.037-0.899-1.555c-0.313-0.518-0.586-1.037-0.898-1.556 c-0.313-0.518-0.625-1.037-0.937-1.526c-0.313-0.519-0.625-1.008-0.938-1.527c-0.313-0.518-0.625-1.008-0.938-1.527 c-0.313-0.489-0.625-1.008-0.977-1.498c-0.313-0.489-0.663-0.979-0.977-1.469c-0.351-0.49-0.663-0.979-1.015-1.469 c-0.352-0.49-0.703-0.979-1.055-1.47c-0.351-0.489-0.703-0.979-1.055-1.44c-0.351-0.49-0.703-0.951-1.054-1.44 c-0.352-0.49-0.742-0.951-1.094-1.412c-0.391-0.461-0.742-0.95-1.132-1.411c-0.391-0.461-0.781-0.951-1.172-1.412 c-0.391-0.46-0.781-0.921-1.172-1.383c-0.391-0.461-0.781-0.922-1.211-1.354c-0.391-0.461-0.82-0.893-1.25-1.354l0,0 c-0.43-0.461-0.821-0.893-1.25-1.325c-0.43-0.432-0.859-0.893-1.289-1.325c-0.43-0.432-0.899-0.893-1.367-1.325l0,0 c-5.742-5.473-12.421-10.514-20.429-15.008C167.292,14.24,125.108,2.026,20.468,10.783c-6.563,0.519-13.398,1.325-20.39,2.362"/>
	<path fill="none" stroke-width="0.1" stroke-miterlimit="10" enable-background="new" d="M1000,114.83 c-47.848-7.518-94.797-12.56-128.936-12.243c-58.666,0.547-105.264,9.592-158.541,36.872 c-23.436,11.982-45.271,27.769-65.348,42.863c-0.586,0.432-1.172,0.864-1.719,1.296c-0.586,0.433-1.172,0.894-1.758,1.325 s-1.17,0.894-1.756,1.325s-1.172,0.865-1.719,1.297c-0.586,0.431-1.133,0.864-1.719,1.296c-0.586,0.433-1.133,0.864-1.719,1.297 c-0.586,0.432-1.133,0.863-1.719,1.296c-0.547,0.431-1.133,0.863-1.68,1.266c-0.586,0.434-1.133,0.836-1.68,1.269 c-0.547,0.432-1.133,0.835-1.68,1.268c-0.547,0.403-1.133,0.835-1.68,1.238s-1.094,0.835-1.641,1.238s-1.094,0.836-1.641,1.239 c-0.547,0.404-1.094,0.807-1.641,1.211c-0.545,0.402-1.094,0.806-1.639,1.209c-0.547,0.402-1.096,0.807-1.641,1.181 c-0.547,0.403-1.094,0.806-1.641,1.182c-0.547,0.402-1.094,0.777-1.641,1.151c-0.547,0.404-1.094,0.777-1.602,1.153 c-0.547,0.402-1.094,0.777-1.641,1.151c-0.547,0.375-1.055,0.749-1.563,1.095l0,0c-0.547,0.374-1.094,0.778-1.641,1.152 c-0.391,0.259-0.781,0.519-1.131,0.777c0,0-0.041,0-0.041,0.029c-0.508,0.346-1.016,0.691-1.521,1.037 c-1.055,0.691-2.072,1.383-3.086,2.074l0,0c-8.594,5.617-16.756,10.256-24.451,13.366c-74.371,29.785-172.879,7.893-220.532-18.955 c-65.62-36.842-79.837-80.829-100.031-117.095c-0.313-0.547-0.586-1.066-0.898-1.584c-0.313-0.519-0.586-1.066-0.898-1.585 c-0.313-0.518-0.625-1.037-0.899-1.584l0,0c-0.313-0.519-0.625-1.037-0.937-1.555s-0.625-1.038-0.938-1.555 c-0.313-0.519-0.625-1.009-0.937-1.528c-0.313-0.518-0.626-1.008-0.977-1.526c-0.313-0.49-0.664-1.009-0.977-1.498 c-0.313-0.49-0.664-1.009-1.016-1.498c-0.313-0.489-0.664-0.979-1.016-1.469c-0.352-0.489-0.664-0.979-1.016-1.469 c-0.351-0.49-0.703-0.979-1.054-1.469c-0.352-0.49-0.704-0.979-1.055-1.44c-0.352-0.489-0.703-0.951-1.094-1.44 c-0.352-0.461-0.742-0.951-1.094-1.412c-0.391-0.461-0.742-0.922-1.132-1.412c-0.391-0.461-0.781-0.922-1.172-1.382l0,0 c-0.39-0.461-0.781-0.922-1.171-1.383c-0.391-0.461-0.781-0.893-1.211-1.354l0,0c-0.391-0.461-0.82-0.894-1.25-1.354 c-0.43-0.432-0.859-0.893-1.25-1.325c-0.43-0.432-0.859-0.893-1.289-1.325c-0.431-0.433-0.899-0.864-1.367-1.324 c-0.469-0.433-0.899-0.865-1.367-1.297c0,0,0,0,0-0.029c-0.938-0.835-1.875-1.699-2.852-2.506l0,0 c-5.624-4.783-12.03-9.189-19.49-13.136C165.886,16.4,121.905,6.462,20.819,15.45c-6.679,0.605-13.632,1.527-20.741,2.679"/>
	<path fill="none" stroke-width="0.1" stroke-miterlimit="10" enable-background="new" d="M1000,118.603 c-47.691-7.604-94.133-12.847-128.037-12.732c-56.986,0.23-103.428,8.757-156.627,34.825 c-23.436,11.437-45.506,26.705-65.855,41.309c-0.586,0.433-1.172,0.835-1.758,1.267c-0.586,0.433-1.211,0.865-1.797,1.297 s-1.172,0.864-1.797,1.296c-0.586,0.434-1.172,0.836-1.758,1.269c-0.586,0.432-1.172,0.834-1.756,1.266 c-0.586,0.433-1.172,0.836-1.758,1.268c-0.586,0.433-1.172,0.836-1.758,1.269c-0.586,0.403-1.133,0.836-1.719,1.238 c-0.586,0.403-1.133,0.835-1.719,1.238s-1.133,0.836-1.719,1.24c-0.586,0.402-1.133,0.807-1.719,1.209 c-0.586,0.404-1.133,0.806-1.68,1.21c-0.586,0.402-1.133,0.807-1.68,1.209c-0.586,0.404-1.133,0.807-1.68,1.21 c-0.547,0.404-1.133,0.777-1.68,1.181s-1.094,0.778-1.68,1.182c-0.547,0.403-1.133,0.777-1.68,1.153 c-0.547,0.402-1.133,0.776-1.68,1.151c-0.547,0.374-1.094,0.749-1.68,1.152s-1.133,0.777-1.719,1.151 c-0.547,0.375-1.133,0.749-1.68,1.124c-0.586,0.402-1.172,0.777-1.758,1.152c-0.313,0.202-0.586,0.374-0.859,0.576 c-1.094,0.72-2.146,1.41-3.242,2.103c-0.508,0.346-1.053,0.663-1.563,1.009c-8.514,5.387-16.6,9.794-24.139,12.76 c-73.979,28.836-171.08,7.663-218.811-18.925c-64.291-35.863-79.094-79.388-100.538-115.078c-0.313-0.519-0.625-1.037-0.937-1.556 c-0.313-0.518-0.625-1.037-0.938-1.555c-0.313-0.519-0.625-1.037-0.977-1.526c-0.312-0.52-0.625-1.008-0.976-1.527 c-0.313-0.519-0.665-1.008-0.977-1.527c-0.352-0.518-0.664-1.007-1.016-1.497c-0.352-0.491-0.664-1.008-1.016-1.499 c-0.351-0.489-0.664-0.979-1.015-1.469c-0.352-0.49-0.703-0.979-1.055-1.469c-0.352-0.49-0.703-0.979-1.055-1.469 c-0.351-0.489-0.703-0.95-1.094-1.44c-0.352-0.49-0.742-0.95-1.094-1.411s-0.742-0.951-1.133-1.412s-0.742-0.951-1.132-1.412 c-0.391-0.461-0.781-0.921-1.172-1.383c-0.391-0.461-0.781-0.922-1.172-1.354c-0.391-0.461-0.821-0.922-1.211-1.354l0,0 c-0.391-0.433-0.82-0.894-1.25-1.326c-0.43-0.46-0.859-0.893-1.289-1.325c-0.429-0.432-0.859-0.893-1.289-1.325 c-0.43-0.432-0.898-0.864-1.328-1.296c-0.43-0.433-0.898-0.864-1.367-1.268c-0.468-0.433-0.937-0.865-1.406-1.268l0,0 c0,0,0-0.028-0.039-0.028c-0.938-0.835-1.914-1.67-2.891-2.477c0,0,0,0,0-0.029c-0.469-0.403-0.977-0.807-1.484-1.181 c-5.781-4.609-12.343-8.815-19.96-12.588C164.362,18.59,118.702,10.957,21.092,20.174c-6.679,0.634-13.749,1.642-21.014,2.91"/>
	<path fill="none" stroke-width="0.1" stroke-miterlimit="10" enable-background="new" d="M1000,122.348 c-47.535-7.719-93.508-13.164-127.1-13.221c-55.307-0.087-101.631,7.893-154.676,32.81c-23.436,10.917-45.738,25.608-66.361,39.723 c-0.586,0.403-1.211,0.836-1.797,1.239c-0.625,0.433-1.211,0.835-1.834,1.238c-0.627,0.432-1.213,0.835-1.836,1.238 c-0.586,0.433-1.211,0.837-1.797,1.239c-0.586,0.403-1.211,0.835-1.797,1.239c-0.586,0.402-1.172,0.835-1.758,1.238 c-0.586,0.402-1.172,0.807-1.758,1.209s-1.172,0.807-1.758,1.211c-0.586,0.401-1.172,0.806-1.758,1.208l0,0 c-0.586,0.403-1.172,0.808-1.758,1.21c-0.586,0.403-1.172,0.807-1.758,1.21s-1.172,0.778-1.719,1.182 c-0.586,0.403-1.133,0.778-1.719,1.182s-1.172,0.778-1.758,1.182c-0.586,0.402-1.133,0.776-1.719,1.151s-1.172,0.778-1.717,1.152 c-0.586,0.374-1.133,0.777-1.719,1.152c-0.586,0.374-1.133,0.748-1.719,1.123s-1.172,0.777-1.758,1.153l0,0 c-0.625,0.402-1.211,0.807-1.836,1.18c-0.586,0.375-1.172,0.778-1.758,1.152c-0.781,0.49-1.523,0.98-2.266,1.44 c-0.586,0.375-1.172,0.72-1.719,1.095c-0.547,0.346-1.133,0.691-1.678,1.037c0,0-0.041,0-0.041,0.029 c-0.508,0.317-1.055,0.633-1.563,0.95c-8.475,5.128-16.443,9.362-23.865,12.185c-73.549,27.914-169.284,7.403-217.092-18.866 c-63.199-34.799-78.667-77.835-101.321-112.949c-0.352-0.519-0.664-1.038-1.016-1.527c-0.352-0.519-0.664-1.009-1.016-1.526 c-0.351-0.519-0.664-1.009-1.015-1.499c-0.352-0.49-0.664-1.008-1.017-1.499c-0.351-0.488-0.703-0.979-1.054-1.497 c-0.352-0.489-0.704-0.98-1.055-1.47c-0.352-0.489-0.703-0.979-1.094-1.469c-0.352-0.489-0.704-0.95-1.094-1.439 c-0.351-0.49-0.742-0.951-1.094-1.44c-0.39-0.49-0.741-0.951-1.132-1.441c-0.391-0.46-0.742-0.95-1.133-1.411 s-0.781-0.922-1.172-1.382c-0.391-0.461-0.781-0.922-1.172-1.383s-0.781-0.921-1.21-1.382c-0.391-0.461-0.821-0.894-1.211-1.354 c-0.43-0.46-0.82-0.893-1.25-1.325c-0.43-0.432-0.859-0.893-1.289-1.325c-0.43-0.432-0.859-0.864-1.289-1.296l0,0 c-0.429-0.432-0.859-0.864-1.328-1.296l0,0c-0.468-0.433-0.898-0.865-1.367-1.296c-0.468-0.432-0.898-0.836-1.367-1.267l0,0 c-0.468-0.433-0.937-0.836-1.406-1.239c-0.977-0.835-1.953-1.642-2.968-2.477l0,0c0,0,0-0.029-0.04-0.029 c-0.508-0.403-1.016-0.807-1.523-1.181c-0.508-0.403-1.055-0.807-1.562-1.182c-5.938-4.407-12.656-8.44-20.389-12.012 C162.839,20.836,115.46,15.45,21.405,24.898C14.647,25.589,7.5,26.684,0.078,28.096"/>
	<path fill="none" stroke-width="0.1" stroke-miterlimit="10" enable-background="new" d="M1000,126.121 c-47.34-7.807-92.844-13.481-126.201-13.711c-53.629-0.375-99.719,7.116-152.723,30.793c-23.318,10.428-45.855,24.543-66.674,38.139 c-0.625,0.403-1.211,0.807-1.836,1.183c-0.625,0.401-1.25,0.807-1.836,1.209c-0.625,0.402-1.25,0.806-1.836,1.209 c-0.625,0.403-1.211,0.807-1.834,1.21c-0.627,0.402-1.213,0.807-1.799,1.182c-0.586,0.402-1.209,0.777-1.795,1.181 c-0.586,0.404-1.211,0.777-1.797,1.18c-0.586,0.404-1.213,0.778-1.799,1.184c-0.586,0.401-1.17,0.777-1.756,1.151 c-0.586,0.403-1.172,0.777-1.797,1.181c-0.586,0.374-1.172,0.778-1.758,1.152l0,0c-0.586,0.374-1.172,0.749-1.758,1.152 c-0.586,0.374-1.172,0.75-1.758,1.123c-0.586,0.375-1.172,0.75-1.758,1.153l0,0c-0.586,0.374-1.172,0.749-1.719,1.122 c-0.586,0.376-1.172,0.749-1.758,1.124c-0.586,0.374-1.133,0.72-1.719,1.094c-0.586,0.376-1.133,0.721-1.719,1.096 s-1.172,0.72-1.758,1.095c-0.547,0.345-1.133,0.691-1.678,1.065c-0.586,0.347-1.133,0.691-1.682,1.038 c-1.561,0.949-3.123,1.9-4.646,2.793c-0.273,0.174-0.586,0.346-0.859,0.52c-0.469,0.258-0.938,0.546-1.406,0.807 c-0.508,0.287-1.016,0.605-1.523,0.893c-8.281,4.782-16.053,8.729-23.201,11.378c-73.08,27.135-167.527,7.173-215.414-18.839 c-62.105-33.702-78.197-76.277-102.141-110.787c-0.351-0.49-0.703-1.008-1.054-1.498c-0.352-0.491-0.704-1.008-1.055-1.498 c-0.352-0.49-0.703-0.979-1.055-1.469c-0.352-0.49-0.703-0.979-1.093-1.469c-0.352-0.49-0.742-0.979-1.094-1.468 c-0.352-0.491-0.742-0.952-1.094-1.441c-0.391-0.489-0.742-0.95-1.132-1.44c-0.391-0.461-0.742-0.95-1.133-1.412 c-0.391-0.461-0.781-0.95-1.172-1.411c-0.39-0.461-0.781-0.922-1.171-1.383s-0.781-0.922-1.172-1.383s-0.82-0.893-1.211-1.354 c-0.43-0.461-0.821-0.893-1.25-1.354c-0.429-0.461-0.82-0.893-1.25-1.326c-0.429-0.432-0.859-0.893-1.289-1.324 c-0.43-0.433-0.859-0.864-1.289-1.297c-0.43-0.432-0.898-0.864-1.328-1.296c-0.43-0.432-0.898-0.835-1.367-1.268l0,0 c-0.469-0.432-0.937-0.864-1.406-1.268c-0.469-0.432-0.938-0.835-1.407-1.239c-0.468-0.403-0.977-0.835-1.445-1.238 c0,0,0,0-0.04-0.029c-0.977-0.807-1.953-1.613-2.968-2.391c-0.508-0.403-1.055-0.807-1.563-1.182 c-0.547-0.403-1.055-0.806-1.602-1.181c-0.546-0.403-1.094-0.778-1.64-1.152l0,0c-6.094-4.235-12.929-8.066-20.741-11.465 C161.237,23.054,98.547,18.013,0.078,33.108"/>
	<path fill="none" stroke-width="0.1" stroke-miterlimit="10" enable-background="new" d="M1000,129.866 	c-47.145-7.893-92.219-13.798-125.264-14.201c-51.949-0.633-97.883,6.308-150.77,28.776c-23.279,9.91-46.051,23.449-67.143,36.556 c-0.625,0.375-1.211,0.778-1.836,1.151c-0.625,0.404-1.25,0.777-1.875,1.183c-0.625,0.402-1.25,0.777-1.875,1.181 c-0.625,0.374-1.248,0.777-1.834,1.151c-0.627,0.375-1.25,0.778-1.836,1.152c-0.627,0.374-1.213,0.777-1.836,1.152 c-0.625,0.375-1.211,0.778-1.836,1.152s-1.211,0.75-1.797,1.152c-0.625,0.375-1.211,0.749-1.797,1.123 c-0.625,0.375-1.211,0.749-1.836,1.152c-0.586,0.374-1.211,0.749-1.797,1.123c-0.586,0.375-1.172,0.72-1.758,1.096l0,0l0,0l0,0 c-0.586,0.373-1.172,0.748-1.758,1.094c-0.586,0.374-1.172,0.72-1.797,1.095l0,0c-0.586,0.374-1.172,0.721-1.758,1.094l0,0 c-0.586,0.376-1.172,0.722-1.797,1.097c-0.586,0.373-1.172,0.719-1.758,1.065c-0.586,0.345-1.172,0.72-1.758,1.064 c-0.586,0.347-1.172,0.691-1.758,1.067l0,0c-0.625,0.373-1.211,0.72-1.836,1.093c-0.037,0-0.037,0.029-0.078,0.029 c-1.092,0.663-2.186,1.298-3.279,1.93c-0.781,0.462-1.563,0.923-2.344,1.354c-0.469,0.259-0.938,0.519-1.406,0.778 c-0.508,0.288-0.977,0.575-1.484,0.835l0,0c-0.547,0.288-1.094,0.605-1.602,0.894c-8.242,4.551-15.938,8.324-22.928,10.831 c-72.65,26.241-165.73,6.913-213.695-18.781c-60.933-32.638-77.728-74.694-102.921-108.627c-0.352-0.49-0.742-0.98-1.094-1.47 c-0.352-0.489-0.742-0.979-1.133-1.469c-0.391-0.489-0.742-0.979-1.132-1.44c-0.391-0.489-0.742-0.95-1.133-1.441 c-0.391-0.461-0.781-0.95-1.172-1.411s-0.781-0.951-1.171-1.411c-0.391-0.461-0.781-0.951-1.172-1.412s-0.781-0.922-1.211-1.383 c-0.391-0.461-0.781-0.922-1.211-1.354c-0.429-0.46-0.82-0.921-1.25-1.354c-0.391-0.461-0.82-0.893-1.249-1.354 c-0.43-0.432-0.859-0.893-1.29-1.325l0,0l0,0c-0.43-0.432-0.859-0.893-1.289-1.325l0,0c-0.43-0.432-0.859-0.864-1.327-1.296 c-0.431-0.433-0.899-0.864-1.329-1.297c-0.469-0.432-0.898-0.864-1.367-1.267c-0.469-0.432-0.938-0.835-1.406-1.267 c-0.469-0.433-0.938-0.836-1.445-1.268c-0.469-0.403-0.977-0.835-1.445-1.239c0,0,0,0-0.039-0.028 c-0.469-0.403-0.977-0.807-1.485-1.21c0,0,0,0-0.039,0c-0.977-0.807-1.992-1.584-3.047-2.362c0,0,0,0-0.04-0.028 c-0.508-0.375-1.015-0.778-1.522-1.152l0,0c-0.547-0.403-1.094-0.777-1.641-1.152c-0.547-0.374-1.094-0.777-1.68-1.152 c-0.547-0.374-1.133-0.749-1.719-1.123c-6.25-4.033-13.202-7.72-21.092-10.947C159.636,25.244,96.008,23.083,0.078,38.149"/>
	<path fill="none" stroke-width="0.1" stroke-miterlimit="10" enable-background="new" d="M1000,133.64 c-46.949-7.979-91.555-14.086-124.365-14.691c-50.27-0.921-96.047,5.473-148.816,26.761c-23.279,9.39-46.246,22.382-67.572,34.971 c-0.625,0.374-1.25,0.748-1.875,1.095c-0.625,0.373-1.289,0.749-1.914,1.123s-1.289,0.748-1.914,1.124 c-0.625,0.374-1.25,0.748-1.875,1.122c-0.625,0.375-1.25,0.749-1.875,1.123c-0.625,0.375-1.248,0.75-1.875,1.095 c-0.625,0.374-1.25,0.749-1.875,1.124c-0.625,0.374-1.25,0.748-1.836,1.093c-0.623,0.376-1.248,0.75-1.873,1.096 c-0.627,0.375-1.213,0.72-1.836,1.096c-0.625,0.374-1.211,0.72-1.836,1.094c-0.625,0.375-1.211,0.72-1.836,1.096 c-0.586,0.345-1.211,0.72-1.797,1.064c-0.625,0.375-1.211,0.72-1.836,1.066c-0.586,0.345-1.211,0.691-1.797,1.065 c-0.586,0.346-1.172,0.692-1.797,1.038c-0.586,0.346-1.211,0.691-1.797,1.037c0,0,0,0-0.039,0c-0.586,0.346-1.172,0.69-1.758,1.007 c-0.547,0.317-1.094,0.635-1.641,0.952l-0.039,0.028c-0.039,0.028-0.078,0.028-0.117,0.057c-1.25,0.691-2.461,1.383-3.672,2.074 c-0.039,0-0.039,0.028-0.078,0.028c-0.545,0.288-1.094,0.606-1.602,0.894c-0.781,0.433-1.523,0.836-2.266,1.269 c-0.508,0.258-0.975,0.546-1.484,0.807c-0.545,0.288-1.053,0.576-1.602,0.863c-0.547,0.289-1.094,0.577-1.641,0.865 c-8.201,4.32-15.779,7.892-22.654,10.313c-72.26,25.319-163.893,6.653-211.975-18.754c-59.683-31.513-77.22-73.051-103.703-106.351 c-0.391-0.489-0.781-0.979-1.172-1.44c-0.391-0.491-0.781-0.951-1.172-1.441c-0.391-0.489-0.781-0.95-1.171-1.411 s-0.781-0.951-1.211-1.412c-0.391-0.461-0.82-0.921-1.21-1.411c-0.391-0.461-0.821-0.922-1.211-1.382 c-0.43-0.461-0.82-0.922-1.25-1.383s-0.82-0.893-1.25-1.354c-0.43-0.432-0.821-0.893-1.25-1.325 c-0.43-0.432-0.859-0.893-1.289-1.325c-0.431-0.432-0.859-0.865-1.29-1.326c-0.429-0.432-0.898-0.864-1.327-1.296 c-0.43-0.432-0.898-0.864-1.367-1.296c-0.469-0.433-0.898-0.864-1.367-1.268c-0.469-0.433-0.938-0.836-1.407-1.268 c-0.468-0.403-0.937-0.835-1.406-1.238c-0.469-0.403-0.977-0.836-1.445-1.239s-0.977-0.807-1.445-1.181 c-0.508-0.403-1.016-0.807-1.523-1.21c-0.04-0.029-0.04-0.029-0.078-0.058c-1.015-0.806-2.07-1.583-3.125-2.333c0,0,0,0-0.039,0 c-0.508-0.374-1.055-0.749-1.563-1.124c-0.547-0.375-1.094-0.749-1.64-1.124c-0.547-0.375-1.094-0.749-1.68-1.123 c-0.586-0.375-1.133-0.749-1.719-1.124s-1.172-0.72-1.758-1.095c-6.367-3.86-13.437-7.375-21.404-10.428 C157.996,27.577,86.204,26.972,0.078,43.19"/>
	<path fill="none" stroke-width="0.1" stroke-miterlimit="10" enable-background="new" d="M1000,137.385 c-46.754-8.065-90.891-14.403-123.428-15.182c-48.59-1.18-94.211,4.638-146.902,24.745c-23.24,8.873-46.441,21.287-68.002,33.386 c-0.625,0.347-1.25,0.721-1.914,1.066c-0.664,0.375-1.289,0.72-1.953,1.095c-0.664,0.374-1.289,0.749-1.953,1.095 c-0.625,0.374-1.289,0.72-1.914,1.094c-0.623,0.375-1.289,0.722-1.914,1.095c-0.625,0.375-1.289,0.721-1.912,1.096 c-0.627,0.346-1.25,0.72-1.875,1.065c-0.627,0.346-1.25,0.721-1.875,1.065c-0.625,0.347-1.25,0.721-1.875,1.066 c-0.625,0.345-1.25,0.721-1.875,1.064c-0.627,0.346-1.25,0.72-1.877,1.065c-0.623,0.347-1.248,0.691-1.834,1.038l0,0 c-0.625,0.345-1.211,0.69-1.836,1.037l0,0c-0.625,0.346-1.25,0.691-1.875,1.036c-0.625,0.347-1.211,0.692-1.836,1.01 c-0.586,0.346-1.211,0.663-1.797,1.007l-0.039,0.029c-0.625,0.347-1.211,0.69-1.836,1.009c-0.586,0.346-1.211,0.663-1.797,0.979 c-1.172,0.634-2.305,1.268-3.477,1.901l-0.039,0.027c-0.039,0.03-0.078,0.03-0.117,0.06c-0.625,0.346-1.211,0.662-1.836,0.979l0,0 c-0.586,0.315-1.211,0.633-1.797,0.949c-0.701,0.375-1.445,0.75-2.146,1.124l0,0c-0.549,0.288-1.055,0.547-1.604,0.836 c-0.545,0.287-1.094,0.575-1.639,0.863c-0.586,0.288-1.133,0.576-1.719,0.865c-8.125,4.118-15.664,7.518-22.381,9.793 c-71.832,24.428-162.098,6.424-210.258-18.696c-58.589-30.532-76.87-71.553-104.64-104.247c-0.391-0.49-0.82-0.951-1.211-1.412 c-0.391-0.461-0.821-0.951-1.211-1.412c-0.391-0.46-0.82-0.921-1.21-1.383c-0.43-0.461-0.821-0.922-1.25-1.382 c-0.43-0.461-0.82-0.922-1.25-1.354c-0.43-0.461-0.859-0.893-1.289-1.354c-0.429-0.461-0.859-0.894-1.289-1.325 c-0.43-0.433-0.859-0.894-1.328-1.326c-0.43-0.432-0.859-0.864-1.328-1.296c-0.43-0.433-0.899-0.864-1.367-1.296 c-0.469-0.432-0.899-0.864-1.367-1.296c-0.469-0.432-0.938-0.835-1.407-1.268c-0.469-0.432-0.937-0.835-1.406-1.239 c-0.469-0.403-0.938-0.835-1.445-1.238c-0.469-0.403-0.977-0.807-1.445-1.21c-0.469-0.403-0.977-0.807-1.484-1.21 c-0.508-0.403-1.016-0.807-1.524-1.181c-0.507-0.404-1.015-0.778-1.522-1.152c-1.055-0.778-2.109-1.556-3.203-2.333 c-0.039-0.029-0.039-0.029-0.078-0.058c-0.546-0.375-1.055-0.749-1.601-1.124c0,0,0,0-0.04-0.029 c-0.546-0.374-1.094-0.749-1.64-1.094c-0.547-0.375-1.133-0.72-1.68-1.095l0,0c-0.586-0.375-1.172-0.72-1.758-1.095 s-1.172-0.72-1.796-1.066l0,0c-0.586-0.374-1.211-0.72-1.836-1.065c-6.484-3.688-13.671-7.029-21.678-9.909 C156.355,29.881,84.954,31.783,0.078,48.26"/>
	<path fill="none" stroke-width="0.1" stroke-miterlimit="10" enable-background="new" d="M1000,141.158 c-46.559-8.152-90.266-14.69-122.529-15.67c-46.91-1.412-92.375,3.803-144.949,22.699c-23.201,8.354-46.637,20.222-68.432,31.83 c-0.625,0.346-1.289,0.691-1.914,1.037c-0.664,0.346-1.328,0.721-1.992,1.065c-0.664,0.346-1.328,0.72-1.992,1.066 c-0.664,0.345-1.289,0.69-1.953,1.036s-1.289,0.691-1.953,1.037c-0.625,0.348-1.289,0.692-1.914,1.038 c-0.664,0.346-1.289,0.691-1.914,1.037c-0.662,0.346-1.289,0.691-1.912,1.037c-0.627,0.346-1.289,0.691-1.914,1.037 s-1.289,0.691-1.914,1.037s-1.289,0.691-1.914,1.008c-0.625,0.345-1.25,0.691-1.875,1.009l0,0l0,0 c-0.625,0.345-1.25,0.662-1.875,1.008l0,0c-0.625,0.346-1.289,0.691-1.914,1.009l0,0c-0.625,0.345-1.211,0.662-1.836,0.979 c-0.625,0.317-1.25,0.663-1.836,0.979c-0.625,0.317-1.248,0.664-1.875,0.98c0,0,0,0-0.039,0c-1.25,0.662-2.459,1.296-3.672,1.93 c-0.623,0.316-1.209,0.634-1.834,0.951c-0.625,0.316-1.25,0.662-1.875,0.978c-0.625,0.319-1.211,0.606-1.797,0.923 c-0.703,0.374-1.445,0.721-2.148,1.094c-0.586,0.288-1.133,0.577-1.68,0.836c-0.586,0.289-1.133,0.576-1.68,0.836 c-0.586,0.288-1.172,0.576-1.719,0.835c-8.086,3.917-15.506,7.144-22.107,9.305c-71.439,23.534-160.3,6.164-208.579-18.638 c-57.457-29.497-76.518-69.94-105.578-102.059c-0.429-0.46-0.82-0.921-1.25-1.382c-0.429-0.461-0.858-0.922-1.289-1.383 c-0.43-0.461-0.859-0.894-1.289-1.354s-0.859-0.893-1.289-1.354c-0.43-0.461-0.859-0.893-1.328-1.325 c-0.429-0.433-0.898-0.893-1.327-1.325c-0.43-0.432-0.899-0.865-1.367-1.297c-0.43-0.432-0.899-0.864-1.367-1.296 c-0.469-0.433-0.899-0.864-1.367-1.268c-0.469-0.432-0.938-0.864-1.407-1.268c-0.469-0.432-0.937-0.835-1.445-1.268 c-0.468-0.403-0.937-0.835-1.445-1.238c-0.508-0.403-0.977-0.835-1.485-1.239c-0.468-0.403-0.977-0.807-1.484-1.21 c-0.507-0.403-1.015-0.807-1.522-1.21c-0.508-0.374-1.016-0.777-1.523-1.152c-0.547-0.403-1.055-0.807-1.602-1.181l0,0 c-1.016-0.749-2.071-1.498-3.164-2.218c-0.546-0.375-1.132-0.749-1.68-1.124c-0.586-0.374-1.133-0.749-1.719-1.123 c-0.546-0.375-1.132-0.72-1.718-1.065l0,0c-0.586-0.375-1.172-0.721-1.758-1.066l0,0c-0.586-0.346-1.172-0.72-1.797-1.037 c-0.625-0.375-1.25-0.72-1.875-1.065c-0.625-0.346-1.25-0.691-1.875-1.008c-6.601-3.515-13.866-6.684-21.952-9.42 C154.714,32.272,85.697,36.075,0.078,53.358"/>
	<path fill="none" stroke-width="0.1" stroke-miterlimit="10" enable-background="new" d="M1000,144.903 c-46.363-8.238-89.602-14.979-121.592-16.16c-45.23-1.642-90.539,2.967-142.996,20.684c-23.162,7.807-46.832,19.127-68.863,30.245 c-0.664,0.317-1.289,0.662-1.953,0.979c-0.664,0.347-1.367,0.691-2.031,1.009c-0.662,0.346-1.365,0.69-2.029,1.037 c-0.664,0.346-1.328,0.663-1.992,1.009c-0.666,0.346-1.328,0.662-1.953,1.009c-0.664,0.345-1.328,0.661-1.992,1.007 c-0.664,0.347-1.289,0.662-1.953,1.008c-0.664,0.318-1.289,0.662-1.953,1.009c-0.664,0.345-1.289,0.662-1.953,1.009 c-0.664,0.345-1.289,0.662-1.953,1.008l0,0c-0.625,0.317-1.289,0.662-1.914,0.979c-0.664,0.316-1.289,0.662-1.912,0.979l0,0 c-0.627,0.317-1.25,0.664-1.914,0.979c-0.625,0.316-1.289,0.663-1.914,0.979c-0.625,0.317-1.25,0.634-1.875,0.95 s-1.25,0.635-1.914,0.952l-0.039,0.028c-1.25,0.633-2.5,1.268-3.75,1.872c0,0,0,0-0.039,0c-0.625,0.317-1.25,0.634-1.875,0.922 c-0.625,0.289-1.211,0.605-1.836,0.894c0,0,0,0-0.039,0c-0.625,0.316-1.25,0.604-1.875,0.921c-0.625,0.288-1.25,0.605-1.875,0.894 c-0.703,0.346-1.445,0.69-2.148,1.037c-0.586,0.288-1.172,0.547-1.719,0.835c-0.586,0.288-1.172,0.547-1.758,0.836 c-0.586,0.287-1.172,0.546-1.758,0.808c-8.045,3.715-15.389,6.769-21.873,8.813c-70.971,22.613-158.386,5.906-206.78-18.608 c-56.207-28.46-76.049-68.355-106.476-99.841c-0.43-0.46-0.859-0.893-1.328-1.354c-0.43-0.461-0.898-0.893-1.328-1.354 c-0.43-0.432-0.898-0.893-1.328-1.325c-0.429-0.432-0.898-0.893-1.367-1.325c-0.469-0.432-0.898-0.864-1.367-1.296 c-0.469-0.432-0.937-0.863-1.406-1.296c-0.469-0.432-0.938-0.864-1.407-1.268c-0.468-0.432-0.937-0.835-1.406-1.268 c-0.469-0.432-0.938-0.835-1.445-1.239c-0.469-0.403-0.977-0.835-1.484-1.238c-0.507-0.404-0.977-0.807-1.484-1.21 c-0.508-0.403-1.016-0.807-1.484-1.21c-0.508-0.403-1.016-0.807-1.523-1.182l0,0c-0.508-0.403-1.016-0.777-1.563-1.181 c-0.508-0.403-1.055-0.778-1.601-1.152c-0.508-0.375-1.055-0.749-1.563-1.124c-1.094-0.778-2.188-1.527-3.32-2.276l0,0 c-0.547-0.374-1.095-0.72-1.641-1.065c-0.586-0.374-1.133-0.749-1.719-1.095c-0.586-0.374-1.172-0.72-1.758-1.065 c-0.586-0.375-1.211-0.72-1.796-1.066c-0.586-0.346-1.211-0.691-1.836-1.037c-0.625-0.345-1.25-0.691-1.875-1.036l0,0 c-0.625-0.346-1.25-0.663-1.914-1.008l0,0c-0.625-0.346-1.289-0.663-1.953-0.98c-6.718-3.37-14.061-6.366-22.186-8.958 C152.996,34.519,83.314,40.338,0.078,58.486"/>
	<path fill="none" stroke-width="0.1" stroke-miterlimit="10" enable-background="new" d="M1000,148.648 c-46.168-8.354-88.938-15.268-120.693-16.65c-43.551-1.872-88.703,2.132-141.043,18.665c-23.123,7.29-46.99,18.063-69.254,28.663 c-0.662,0.316-1.326,0.634-1.992,0.951c-0.664,0.316-1.367,0.662-2.031,0.979c-0.703,0.347-1.367,0.662-2.068,0.979 c-0.664,0.317-1.367,0.663-2.031,0.979s-1.328,0.662-1.992,0.979s-1.328,0.635-1.992,0.951c-0.664,0.317-1.328,0.662-1.992,0.979 s-1.328,0.634-1.992,0.95c-0.664,0.315-1.328,0.635-1.953,0.95c-0.664,0.318-1.328,0.634-1.992,0.95 c-0.664,0.318-1.289,0.634-1.953,0.952l0,0c-0.664,0.317-1.289,0.633-1.953,0.951l0,0l0,0c-0.625,0.315-1.289,0.633-1.914,0.921l0,0 l0,0c-0.664,0.316-1.328,0.634-1.992,0.95c-0.625,0.317-1.289,0.605-1.914,0.922c-1.289,0.634-2.578,1.238-3.828,1.844l-0.039,0.028 c-0.625,0.288-1.25,0.605-1.875,0.893c-0.625,0.289-1.25,0.605-1.875,0.894l-0.039,0.029c-0.625,0.289-1.25,0.576-1.875,0.865 c-0.664,0.316-1.289,0.604-1.953,0.893c-0.625,0.288-1.25,0.576-1.875,0.864c-0.701,0.317-1.445,0.662-2.146,0.979 c-0.586,0.259-1.172,0.547-1.758,0.806c-0.586,0.261-1.213,0.548-1.799,0.807c-0.625,0.26-1.209,0.548-1.795,0.807 c-7.969,3.515-15.273,6.396-21.602,8.354c-70.617,21.719-156.666,5.617-205.138-18.551c-54.957-27.423-75.658-66.743-107.413-97.594 c-0.469-0.432-0.898-0.893-1.367-1.325c-0.469-0.432-0.938-0.894-1.406-1.326c-0.469-0.433-0.938-0.863-1.407-1.296 c-0.469-0.433-0.937-0.865-1.406-1.296c-0.469-0.432-0.938-0.865-1.445-1.268c-0.469-0.432-0.977-0.836-1.445-1.267 c-0.508-0.433-0.977-0.836-1.484-1.239c-0.507-0.403-0.976-0.807-1.484-1.239c-0.508-0.403-0.977-0.807-1.484-1.209 c-0.508-0.404-1.016-0.807-1.523-1.21s-1.015-0.807-1.523-1.181c-0.508-0.403-1.054-0.777-1.563-1.181 c-0.507-0.375-1.054-0.778-1.562-1.152c-0.546-0.403-1.094-0.778-1.64-1.181c0,0,0,0-0.04-0.029 c-0.546-0.375-1.055-0.749-1.601-1.094c0,0,0,0-0.04-0.029c-1.054-0.749-2.148-1.469-3.28-2.161 c-0.547-0.375-1.133-0.72-1.719-1.094c-0.586-0.375-1.172-0.721-1.758-1.066s-1.171-0.72-1.757-1.065s-1.211-0.691-1.836-1.037 c-0.625-0.346-1.211-0.692-1.835-1.038c-0.625-0.346-1.25-0.691-1.875-1.008c-0.625-0.346-1.289-0.663-1.913-0.98 c-0.664-0.345-1.289-0.662-1.953-0.979c-0.664-0.316-1.328-0.662-1.993-0.951c-6.795-3.197-14.217-6.049-22.381-8.498 C151.316,36.881,74.799,45.696,0.078,63.613"/>
	<path fill="none" stroke-width="0.1" stroke-miterlimit="10" enable-background="new" d="M1000,152.422 c-45.973-8.44-88.273-15.556-119.756-17.141c-41.832-2.073-86.867,1.297-139.129,16.651c-23.086,6.769-47.184,16.967-69.684,27.076 c-0.664,0.289-1.326,0.604-1.99,0.894c-0.703,0.317-1.367,0.633-2.07,0.922c-0.705,0.316-1.408,0.633-2.109,0.951 c-0.703,0.316-1.367,0.634-2.031,0.921c-0.664,0.317-1.367,0.605-2.031,0.922c-0.664,0.317-1.367,0.634-2.031,0.922 c-0.664,0.317-1.367,0.634-2.031,0.922c-0.664,0.316-1.367,0.605-2.031,0.921c-0.664,0.317-1.328,0.606-1.992,0.922l0,0 c-0.664,0.318-1.367,0.635-2.031,0.923c-0.664,0.287-1.287,0.604-1.951,0.892l0,0c-0.664,0.318-1.367,0.634-2.031,0.922 c-0.664,0.317-1.328,0.606-1.992,0.923c-0.703,0.315-1.367,0.633-2.07,0.949c-1.289,0.577-2.578,1.153-3.828,1.729 c-0.664,0.287-1.289,0.575-1.953,0.893c-0.664,0.288-1.328,0.604-1.992,0.893s-1.289,0.576-1.953,0.865 c-0.664,0.287-1.289,0.576-1.914,0.863c-0.664,0.288-1.289,0.576-1.953,0.864l0,0c-0.664,0.289-1.289,0.577-1.953,0.865 c-0.703,0.316-1.443,0.633-2.148,0.922c-0.625,0.258-1.211,0.518-1.834,0.807c-0.627,0.259-1.25,0.518-1.836,0.777 c-0.625,0.259-1.25,0.519-1.836,0.777c-7.93,3.313-15.117,6.049-21.326,7.893c-70.23,20.798-154.833,5.358-203.462-18.521 c-53.746-26.387-75.268-65.102-108.39-95.347c-0.469-0.433-0.937-0.865-1.445-1.297c-0.468-0.432-0.937-0.864-1.444-1.267 c-0.469-0.432-0.977-0.835-1.445-1.268c-0.469-0.431-0.977-0.835-1.484-1.268c-0.508-0.402-0.976-0.834-1.485-1.238 c-0.508-0.403-1.015-0.835-1.484-1.239c-0.508-0.403-1.016-0.807-1.523-1.209c-0.508-0.403-1.016-0.807-1.563-1.21 c-0.508-0.403-1.016-0.777-1.562-1.181c-0.509-0.403-1.055-0.807-1.602-1.181c-0.546-0.375-1.055-0.778-1.602-1.152 s-1.055-0.777-1.602-1.152c-0.546-0.375-1.093-0.75-1.64-1.124c-0.547-0.375-1.094-0.749-1.68-1.124l-0.039-0.028 c-1.133-0.749-2.265-1.469-3.398-2.189c0,0,0,0-0.039-0.029c-0.547-0.346-1.133-0.691-1.68-1.037 c-0.586-0.346-1.172-0.72-1.758-1.066c-0.585-0.346-1.211-0.691-1.797-1.037c-0.585-0.346-1.21-0.69-1.835-1.007 c-0.625-0.346-1.25-0.691-1.875-1.009c-0.625-0.346-1.289-0.663-1.913-1.008c-0.626-0.316-1.29-0.633-1.914-0.979 c-0.664-0.317-1.329-0.634-1.992-0.951c-0.664-0.317-1.328-0.633-2.031-0.95c-0.703-0.317-1.367-0.634-2.07-0.922 c-6.875-3.025-14.335-5.732-22.538-8.037c-70.62-19.848-153.035-7.605-220.178,9.679"/>
	<path fill="none" stroke-width="0.1" stroke-miterlimit="10" enable-background="new" d="M1000,156.166 c-45.738-8.527-87.609-15.843-118.857-17.629c-40.152-2.276-85.033,0.432-137.178,14.633c-23.045,6.251-47.34,15.9-70.072,25.522 c-0.662,0.288-1.367,0.576-2.029,0.864c-0.705,0.287-1.408,0.604-2.109,0.893c-0.703,0.317-1.445,0.605-2.148,0.923 c-0.703,0.287-1.406,0.604-2.07,0.892c-0.703,0.289-1.406,0.605-2.07,0.894c-0.703,0.288-1.367,0.604-2.07,0.894 c-0.703,0.287-1.367,0.576-2.07,0.893c-0.703,0.288-1.367,0.605-2.07,0.894c-0.664,0.288-1.367,0.576-2.031,0.863l0,0 c-0.664,0.289-1.328,0.576-2.031,0.865c0,0,0,0-0.039,0c-0.664,0.288-1.328,0.576-2.031,0.864l0,0 c-0.664,0.288-1.289,0.575-1.953,0.835l0,0c0,0-0.039,0-0.039,0.029c-0.664,0.287-1.367,0.576-2.031,0.864l0,0 c-1.367,0.604-2.734,1.181-4.1,1.786c-0.625,0.287-1.289,0.547-1.914,0.807c-0.664,0.287-1.328,0.575-1.992,0.834 c-0.664,0.289-1.328,0.576-1.992,0.865l0,0c-0.664,0.287-1.289,0.546-1.953,0.835s-1.328,0.548-1.953,0.835 c-0.664,0.288-1.328,0.548-1.953,0.836l0,0c-0.664,0.286-1.328,0.547-1.953,0.806l0,0c-0.742,0.287-1.445,0.605-2.148,0.894 c-0.625,0.259-1.25,0.519-1.875,0.777c-0.625,0.26-1.25,0.52-1.875,0.75c-0.625,0.259-1.25,0.519-1.875,0.748 c-7.891,3.14-14.998,5.732-21.092,7.461c-69.838,19.877-152.996,5.07-201.742-18.464c-52.535-25.321-74.955-63.46-109.444-93.044 c-0.508-0.431-0.977-0.835-1.484-1.268c-0.508-0.432-0.977-0.835-1.484-1.266c-0.507-0.404-1.016-0.836-1.523-1.239 c-0.507-0.404-1.015-0.836-1.522-1.239c-0.508-0.404-1.016-0.807-1.563-1.21c-0.508-0.403-1.016-0.807-1.563-1.209 c-0.547-0.403-1.055-0.807-1.602-1.181c-0.546-0.403-1.055-0.777-1.601-1.181c-0.508-0.375-1.055-0.777-1.602-1.152 c-0.546-0.403-1.094-0.777-1.64-1.151c-0.547-0.375-1.095-0.75-1.641-1.124c-0.547-0.375-1.094-0.749-1.68-1.124 c-0.547-0.375-1.094-0.72-1.641-1.066c-1.172-0.749-2.343-1.469-3.515-2.189l-0.04-0.028c-0.586-0.346-1.172-0.721-1.758-1.066 c0,0,0,0-0.039-0.029c-0.586-0.346-1.172-0.663-1.757-1.008c-0.625-0.346-1.211-0.691-1.836-1.008 c-0.625-0.346-1.25-0.662-1.875-1.008s-1.25-0.663-1.875-0.98c-0.626-0.317-1.289-0.663-1.914-0.979 c-0.665-0.317-1.289-0.634-1.953-0.951c-0.664-0.316-1.328-0.633-1.992-0.95c-0.664-0.316-1.367-0.633-2.031-0.922 c-0.703-0.316-1.367-0.604-2.07-0.922c-0.703-0.316-1.407-0.605-2.148-0.893c-6.952-2.881-14.491-5.444-22.694-7.604 C147.958,41.577,60.464,56.527,0.156,73.926"/>
	<path fill="none" stroke-width="0.1" stroke-miterlimit="10" enable-background="new" d="M1000,159.939 c-45.543-8.612-86.945-16.131-117.959-18.119c-38.475-2.447-83.236-0.403-135.225,12.588c-23.004,5.733-47.535,14.836-70.463,23.938 c-0.703,0.26-1.365,0.547-2.029,0.807c-0.703,0.288-1.408,0.575-2.109,0.864c-0.742,0.288-1.445,0.576-2.188,0.864 c-0.703,0.288-1.408,0.575-2.109,0.864c-0.703,0.287-1.406,0.576-2.07,0.836c-0.703,0.287-1.406,0.575-2.109,0.834l0,0 c-0.703,0.289-1.406,0.577-2.109,0.864c-0.703,0.288-1.367,0.577-2.07,0.836l0,0c-0.703,0.289-1.367,0.547-2.07,0.835 s-1.406,0.576-2.07,0.835l0,0c-0.703,0.288-1.367,0.548-2.031,0.836c-0.703,0.289-1.367,0.546-2.029,0.835c0,0,0,0-0.041,0 c-1.367,0.546-2.734,1.122-4.1,1.671l0,0c-0.703,0.287-1.367,0.547-2.07,0.836c-0.664,0.259-1.328,0.546-1.992,0.807l0,0l0,0 c-0.664,0.287-1.367,0.546-2.031,0.806s-1.328,0.547-2.031,0.807l0,0c-0.664,0.26-1.328,0.547-1.992,0.807l0,0 c-0.664,0.288-1.328,0.547-1.992,0.807s-1.367,0.547-2.031,0.807s-1.328,0.519-1.992,0.777c-0.742,0.289-1.445,0.576-2.188,0.864 c-0.664,0.26-1.289,0.49-1.914,0.75c-0.664,0.259-1.289,0.49-1.914,0.719c-0.625,0.26-1.289,0.49-1.912,0.72 c-7.852,2.969-14.883,5.388-20.859,7.03c-69.447,18.982-151.16,4.781-200.023-18.408c-51.208-24.312-74.526-61.845-110.422-90.795 c-0.507-0.403-1.015-0.835-1.562-1.239c-0.508-0.403-1.016-0.807-1.563-1.21c-0.508-0.402-1.016-0.806-1.563-1.208 c-0.508-0.404-1.055-0.807-1.601-1.182c-0.547-0.403-1.055-0.777-1.602-1.181c-0.546-0.403-1.094-0.778-1.641-1.181 c-0.546-0.404-1.094-0.778-1.64-1.152c-0.547-0.375-1.095-0.75-1.641-1.124c-0.547-0.374-1.094-0.749-1.641-1.124l0,0 c-0.547-0.374-1.133-0.749-1.719-1.123c-0.546-0.375-1.132-0.72-1.68-1.095c-0.586-0.375-1.172-0.72-1.758-1.094h-0.039 c-1.133-0.72-2.266-1.383-3.438-2.074c-0.625-0.375-1.25-0.72-1.875-1.065c-0.625-0.346-1.21-0.691-1.835-1.037 c-0.625-0.346-1.25-0.663-1.875-1.009l0,0c-0.625-0.346-1.25-0.662-1.875-0.979c-0.625-0.317-1.25-0.663-1.913-0.98 c-0.664-0.317-1.29-0.634-1.953-0.951c-0.664-0.316-1.328-0.633-1.993-0.951l0,0c-0.664-0.317-1.327-0.633-2.031-0.921 c-0.663-0.317-1.367-0.605-2.03-0.894c-0.704-0.316-1.407-0.604-2.109-0.893c-0.703-0.316-1.445-0.604-2.148-0.892 c-0.703-0.288-1.445-0.577-2.188-0.864c-7.031-2.737-14.608-5.156-22.811-7.173C146.239,44.054,62.104,61.338,0.195,79.168"/>
	<path fill="none" stroke-width="0.1" stroke-miterlimit="10" enable-background="new" d="M1000,163.685 c-45.309-8.7-86.281-16.419-117.021-18.607c-36.795-2.622-81.4-1.24-133.271,10.571c-22.967,5.242-47.691,13.739-70.854,22.381 c-0.703,0.26-1.367,0.52-2.07,0.778c-0.742,0.26-1.445,0.547-2.148,0.806c-0.742,0.289-1.484,0.548-2.227,0.836 c-0.703,0.26-1.445,0.548-2.148,0.807c0,0,0,0-0.039,0c-0.701,0.26-1.406,0.548-2.109,0.807l0,0 c-0.701,0.26-1.404,0.548-2.107,0.807c-0.703,0.26-1.406,0.547-2.148,0.807l0,0c-0.703,0.26-1.406,0.547-2.109,0.807l0,0 c-0.703,0.26-1.367,0.519-2.07,0.807l0,0l0,0c-0.742,0.288-1.445,0.548-2.188,0.836l0,0c-0.664,0.258-1.289,0.489-1.953,0.749 c-1.406,0.547-2.813,1.094-4.219,1.613c0,0,0,0-0.039,0c-0.664,0.259-1.328,0.518-1.992,0.777l0,0c0,0-0.039,0-0.039,0.029 c-0.703,0.258-1.406,0.518-2.109,0.807c-0.664,0.259-1.367,0.518-2.029,0.777l0,0l0,0c-0.705,0.259-1.367,0.519-2.072,0.778l0,0 c-0.703,0.258-1.367,0.519-2.029,0.776l0,0l0,0c-0.705,0.259-1.367,0.521-2.031,0.778l0,0c-0.703,0.259-1.367,0.518-2.031,0.778 c-0.664,0.259-1.367,0.518-2.031,0.747l0,0l0,0l0,0c-0.664,0.26-1.367,0.49-2.031,0.751c-0.742,0.287-1.484,0.547-2.227,0.807 c-0.664,0.229-1.289,0.489-1.953,0.72c-0.664,0.229-1.289,0.461-1.953,0.72c-0.664,0.23-1.289,0.49-1.951,0.721 c-7.813,2.794-14.766,5.069-20.625,6.596c-69.057,18.061-149.285,4.494-198.344-18.379c-49.957-23.303-74.174-60.203-111.476-88.52 c-0.547-0.404-1.055-0.807-1.602-1.21c-0.546-0.403-1.055-0.807-1.601-1.181c-0.547-0.403-1.055-0.778-1.602-1.18 c-0.546-0.404-1.094-0.778-1.64-1.182c-0.547-0.374-1.095-0.778-1.681-1.152c-0.546-0.374-1.132-0.778-1.679-1.152 c-0.546-0.374-1.132-0.749-1.68-1.124c-0.547-0.375-1.133-0.749-1.719-1.094c-0.546-0.374-1.132-0.72-1.718-1.065 c-0.586-0.375-1.211-0.75-1.797-1.124c0,0,0,0-0.039,0c-0.547-0.346-1.133-0.692-1.719-1.038c-1.172-0.72-2.382-1.411-3.632-2.103 h-0.039c-0.586-0.346-1.172-0.663-1.797-1.008c-0.625-0.346-1.25-0.692-1.875-1.008c-0.625-0.346-1.25-0.663-1.914-1.008 c-0.625-0.317-1.25-0.663-1.914-0.979c-0.625-0.317-1.289-0.634-1.953-0.951c-0.664-0.317-1.328-0.634-1.992-0.951 c-0.664-0.317-1.328-0.634-2.031-0.922c-0.664-0.317-1.367-0.605-2.031-0.893l0,0l0,0c-0.703-0.288-1.367-0.605-2.07-0.894 c-0.703-0.316-1.406-0.604-2.109-0.893c-0.703-0.289-1.445-0.576-2.148-0.864c-0.741-0.288-1.445-0.576-2.187-0.864 c-0.742-0.288-1.484-0.547-2.227-0.835c-7.109-2.592-14.726-4.868-22.928-6.769C144.519,46.445,58.667,66.004,0.156,84.354"/>
	<path fill="none" stroke-width="0.1" stroke-miterlimit="10" enable-background="new" d="M1000,167.458 c-45.074-8.757-85.617-16.679-116.123-19.1c-35.115-2.792-79.564-2.102-131.318,8.556c-22.928,4.725-47.848,12.675-71.244,20.799 c-0.703,0.23-1.406,0.489-2.109,0.72c-0.742,0.26-1.445,0.519-2.188,0.778c-0.742,0.259-1.523,0.518-2.266,0.807 c-0.742,0.26-1.445,0.518-2.188,0.778c-0.742,0.258-1.445,0.518-2.188,0.777l0,0c-0.703,0.259-1.443,0.519-2.148,0.749 c-0.74,0.26-1.443,0.518-2.188,0.778l0,0c-0.703,0.258-1.404,0.518-2.148,0.747c0,0,0,0-0.037,0 c-0.705,0.261-1.408,0.519-2.109,0.751h-0.039c-0.742,0.258-1.486,0.518-2.227,0.807c-1.367,0.488-2.734,0.978-4.063,1.468 c-0.742,0.261-1.445,0.518-2.188,0.777c-0.703,0.261-1.406,0.519-2.109,0.749l0,0c-0.703,0.26-1.367,0.489-2.07,0.75l0,0 c-0.703,0.259-1.406,0.519-2.109,0.749l0,0c-0.703,0.26-1.406,0.518-2.109,0.749c-0.701,0.259-1.406,0.489-2.068,0.749 c-0.705,0.26-1.408,0.489-2.072,0.749c-0.703,0.26-1.367,0.489-2.07,0.721c-0.701,0.259-1.404,0.489-2.068,0.719 c-0.705,0.26-1.367,0.49-2.072,0.72l0,0c-0.74,0.261-1.484,0.52-2.225,0.778c-0.664,0.23-1.328,0.462-1.992,0.691 c-0.664,0.23-1.328,0.461-1.992,0.691s-1.328,0.461-1.992,0.662c-7.773,2.622-14.688,4.782-20.43,6.193 c-68.664,17.111-147.448,4.206-196.624-18.32c-48.629-22.296-73.823-58.533-112.531-86.216c-0.546-0.403-1.094-0.777-1.64-1.181 c-0.547-0.403-1.133-0.778-1.68-1.151c-0.547-0.375-1.094-0.778-1.68-1.153c-0.546-0.374-1.132-0.75-1.679-1.123 c-0.586-0.374-1.133-0.749-1.718-1.124c-0.586-0.374-1.133-0.749-1.719-1.094c-0.586-0.375-1.172-0.721-1.757-1.095 c-0.586-0.375-1.172-0.72-1.758-1.066s-1.172-0.691-1.758-1.037c-0.625-0.375-1.25-0.72-1.875-1.065c0,0-0.04,0-0.04-0.03 c-1.21-0.691-2.382-1.353-3.632-2.016c-0.625-0.346-1.25-0.663-1.875-1.008c-0.625-0.346-1.25-0.662-1.914-0.979 c-0.625-0.346-1.289-0.663-1.953-0.98c-0.664-0.316-1.289-0.633-1.953-0.95c-0.664-0.317-1.327-0.634-1.992-0.951 c-0.665-0.316-1.328-0.633-1.992-0.921c-0.664-0.317-1.328-0.605-2.031-0.893c-0.704-0.317-1.367-0.605-2.071-0.894 c-0.703-0.288-1.406-0.604-2.109-0.893s-1.406-0.576-2.148-0.864c-0.703-0.288-1.445-0.576-2.188-0.864 c-0.742-0.288-1.484-0.547-2.226-0.835c-0.742-0.288-1.484-0.547-2.266-0.807c-0.781-0.26-1.523-0.547-2.304-0.807 c-7.148-2.448-14.804-4.581-23.006-6.366C142.567,48.922,49.254,71.88,0,89.711"/>
	<path fill="none" stroke-width="0.1" stroke-miterlimit="10" enable-background="new" d="M1000,171.231 c-44.84-8.843-84.953-16.938-115.186-19.588c-33.396-2.938-77.768-2.938-129.365,6.538c-22.889,4.207-48.004,11.609-71.596,19.242 c-0.703,0.231-1.406,0.462-2.109,0.691c-0.742,0.231-1.484,0.491-2.227,0.721c-0.781,0.26-1.563,0.519-2.344,0.777 c-0.742,0.23-1.484,0.491-2.227,0.721c0,0,0,0-0.039,0c-0.701,0.231-1.443,0.49-2.146,0.721c-0.742,0.23-1.445,0.461-2.148,0.721 c0,0,0,0-0.039,0c-0.742,0.229-1.486,0.488-2.227,0.749c-0.703,0.229-1.445,0.489-2.148,0.72c-0.703,0.229-1.406,0.461-2.109,0.69 c-0.039,0.029-0.117,0.029-0.156,0.059c-1.484,0.488-2.93,0.978-4.414,1.469c-0.703,0.23-1.406,0.489-2.109,0.721l0,0 c-0.703,0.23-1.367,0.461-2.031,0.69l0,0c-0.701,0.23-1.406,0.489-2.109,0.72c0,0,0,0-0.037,0c-0.703,0.23-1.445,0.489-2.148,0.72 s-1.406,0.461-2.109,0.721c-0.703,0.23-1.445,0.49-2.148,0.72l0,0c-0.703,0.23-1.406,0.462-2.109,0.691 c-0.703,0.23-1.406,0.461-2.109,0.691s-1.406,0.461-2.109,0.691s-1.406,0.461-2.107,0.721c-0.703,0.229-1.408,0.46-2.109,0.691 c-0.742,0.259-1.523,0.489-2.266,0.749c-0.664,0.229-1.367,0.432-2.031,0.663c-0.664,0.229-1.367,0.431-2.031,0.661 c-0.664,0.202-1.367,0.432-2.031,0.634c-7.734,2.448-14.57,4.465-20.193,5.818c-68.275,16.188-145.575,3.889-194.907-18.291 c-47.342-21.287-73.473-56.891-113.626-83.882c-0.586-0.374-1.132-0.749-1.718-1.152c-0.586-0.374-1.133-0.749-1.719-1.123 c-0.586-0.375-1.133-0.75-1.719-1.095c-0.586-0.374-1.172-0.75-1.758-1.094c-0.586-0.374-1.172-0.72-1.797-1.094 c-0.586-0.375-1.171-0.72-1.796-1.067c-0.586-0.345-1.211-0.72-1.797-1.065c-0.625-0.346-1.21-0.72-1.836-1.037 c-0.586-0.346-1.21-0.691-1.796-1.009c-1.25-0.691-2.539-1.383-3.789-2.044c0,0-0.039,0-0.039-0.03 c-0.626-0.316-1.25-0.662-1.875-0.979c0,0,0,0-0.04,0c-0.625-0.317-1.25-0.633-1.875-0.95c-0.625-0.317-1.289-0.634-1.953-0.951 c-0.664-0.317-1.329-0.634-1.992-0.951c-0.664-0.316-1.328-0.633-1.993-0.922c-0.664-0.316-1.327-0.604-2.031-0.921 c-0.703-0.288-1.367-0.605-2.07-0.893c-0.703-0.288-1.367-0.605-2.07-0.864c-0.703-0.288-1.406-0.576-2.148-0.865 c-0.703-0.288-1.445-0.576-2.148-0.864c-0.742-0.289-1.445-0.548-2.187-0.835c-0.742-0.288-1.485-0.547-2.227-0.807 c-0.742-0.259-1.523-0.547-2.266-0.807c-0.781-0.259-1.523-0.519-2.305-0.778c-0.781-0.259-1.562-0.518-2.343-0.777 c-7.187-2.305-14.881-4.321-23.084-5.992C140.966,51.399,54.488,75.913,0.078,95.011"/>
	<path fill="none" stroke-width="0.1" stroke-miterlimit="10" enable-background="new" d="M1000,175.004 c-44.645-8.929-84.289-17.225-114.287-20.105c-31.717-3.053-75.932-3.802-127.451,4.522c-22.811,3.688-48.16,10.543-71.986,17.687 c-0.703,0.201-1.406,0.433-2.109,0.634c-0.742,0.231-1.484,0.461-2.227,0.663c-0.82,0.23-1.602,0.489-2.383,0.72 c-0.742,0.23-1.523,0.461-2.266,0.691c-0.742,0.229-1.484,0.462-2.227,0.691l0,0l0,0c-0.703,0.23-1.445,0.462-2.148,0.663h-0.039 c-0.703,0.23-1.445,0.433-2.148,0.662c0,0-0.039,0-0.039,0.028l0,0c-0.742,0.231-1.484,0.462-2.188,0.692 c-0.039,0-0.039,0-0.078,0.029c-1.406,0.432-2.811,0.892-4.219,1.325c-0.039,0.028-0.117,0.028-0.156,0.057 c-0.703,0.23-1.443,0.461-2.148,0.663h-0.039c-0.703,0.23-1.445,0.46-2.148,0.662l0,0l0,0c-0.74,0.231-1.445,0.461-2.146,0.662 c-0.742,0.231-1.484,0.462-2.188,0.692l0,0c-0.703,0.229-1.445,0.461-2.148,0.661l0,0c-0.703,0.23-1.445,0.462-2.148,0.691 c-0.742,0.231-1.445,0.462-2.188,0.691c-0.703,0.231-1.445,0.462-2.148,0.663c-0.703,0.229-1.445,0.46-2.148,0.662 c-0.703,0.231-1.445,0.433-2.148,0.663s-1.406,0.432-2.148,0.662c-0.703,0.23-1.445,0.433-2.148,0.662 c-0.781,0.231-1.523,0.462-2.266,0.691l0,0c-0.703,0.201-1.367,0.432-2.07,0.634c-0.703,0.201-1.367,0.433-2.07,0.635 c-0.703,0.2-1.367,0.402-2.07,0.604c-7.693,2.305-14.451,4.176-19.998,5.416c-67.885,15.267-143.7,3.571-193.227-18.234 c-46.012-20.279-73.119-55.221-114.756-81.549c-0.586-0.375-1.172-0.75-1.758-1.124l0,0c-0.586-0.375-1.172-0.72-1.758-1.095 c-0.586-0.374-1.211-0.72-1.797-1.065c-0.625-0.375-1.21-0.72-1.836-1.065c-0.625-0.345-1.21-0.72-1.835-1.066 c-0.625-0.345-1.211-0.691-1.836-1.037c-0.625-0.346-1.25-0.691-1.914-1.037s-1.289-0.691-1.953-1.037 c-1.211-0.664-2.461-1.296-3.671-1.931c-0.625-0.316-1.29-0.662-1.953-0.979c-0.664-0.317-1.328-0.634-1.992-0.95 c-0.665-0.317-1.328-0.635-1.992-0.952l0,0c-0.664-0.316-1.328-0.633-2.031-0.921c-0.664-0.317-1.367-0.605-2.031-0.921 c-0.703-0.317-1.367-0.605-2.07-0.893c-0.703-0.289-1.367-0.604-2.07-0.893c-0.703-0.288-1.407-0.577-2.109-0.864 c-0.703-0.289-1.445-0.577-2.148-0.865c-0.742-0.287-1.445-0.575-2.187-0.835c-0.742-0.288-1.484-0.547-2.227-0.806 c-0.742-0.289-1.484-0.547-2.266-0.807c-0.742-0.259-1.523-0.519-2.265-0.778c-0.781-0.26-1.563-0.519-2.344-0.778 s-1.562-0.519-2.383-0.749c-0.781-0.26-1.601-0.491-2.421-0.749c-7.226-2.161-14.92-4.063-23.123-5.618 C139.285,53.876,62.455,79.37,0.155,100.311"/>
	<path fill="none" stroke-width="0.1" stroke-miterlimit="10" enable-background="new" d="M1000,178.779 c-44.41-8.988-83.625-17.486-113.35-20.626c-30.037-3.169-74.096-4.637-125.498,2.507c-22.771,3.168-48.316,9.478-72.338,16.131 c-0.703,0.201-1.406,0.403-2.109,0.576c-0.781,0.201-1.523,0.432-2.266,0.634c-0.82,0.229-1.641,0.461-2.461,0.691 c-0.781,0.229-1.523,0.432-2.266,0.633l0,0c-0.742,0.202-1.484,0.433-2.227,0.634l0,0c-0.742,0.202-1.484,0.432-2.266,0.634 c-0.039,0-0.039,0-0.078,0.028l0,0c-0.742,0.202-1.445,0.433-2.188,0.634h-0.039c-1.523,0.434-3.006,0.864-4.492,1.297 c-0.039,0-0.039,0-0.076,0.03c-0.705,0.2-1.408,0.402-2.148,0.604c-0.781,0.229-1.523,0.432-2.268,0.661c0,0,0,0-0.039,0 c-0.742,0.231-1.482,0.433-2.186,0.634l0,0c-0.742,0.202-1.445,0.433-2.189,0.634l0,0c-0.74,0.23-1.482,0.433-2.227,0.662 c-0.74,0.202-1.482,0.434-2.186,0.636c-0.742,0.2-1.445,0.431-2.188,0.633c-0.742,0.229-1.484,0.432-2.188,0.633 c-0.742,0.232-1.484,0.433-2.188,0.634c-0.742,0.202-1.445,0.433-2.148,0.634c-0.742,0.202-1.445,0.433-2.188,0.633 c-0.742,0.202-1.445,0.434-2.188,0.635s-1.445,0.433-2.188,0.635c-0.781,0.229-1.523,0.431-2.305,0.661 c-0.703,0.202-1.406,0.403-2.109,0.605c-0.703,0.201-1.406,0.403-2.109,0.604c-0.703,0.202-1.404,0.403-2.109,0.577 c-7.654,2.131-14.373,3.889-19.801,5.04c-67.496,14.317-141.826,3.257-191.509-18.204c-44.685-19.271-72.768-53.521-115.851-79.188 l0,0c-0.586-0.374-1.211-0.72-1.836-1.066c-0.625-0.346-1.25-0.72-1.836-1.065c-0.625-0.345-1.211-0.69-1.836-1.036 s-1.249-0.692-1.875-1.038c-0.625-0.345-1.25-0.691-1.913-1.037c-0.625-0.346-1.29-0.692-1.914-1.037 c-0.625-0.346-1.289-0.691-1.953-1.008c0,0,0,0-0.039,0c-1.29-0.663-2.617-1.325-3.946-1.988c-0.625-0.318-1.25-0.605-1.875-0.922 c-0.664-0.317-1.328-0.633-1.992-0.922c-0.664-0.317-1.367-0.633-2.031-0.921c-0.664-0.317-1.367-0.605-2.031-0.922 c-0.703-0.287-1.367-0.604-2.07-0.893s-1.407-0.605-2.109-0.894c-0.703-0.288-1.406-0.576-2.108-0.864 c-0.704-0.288-1.407-0.576-2.148-0.835c-0.742-0.288-1.445-0.576-2.188-0.835c-0.742-0.289-1.445-0.547-2.187-0.807 c-0.742-0.259-1.484-0.547-2.227-0.807s-1.523-0.548-2.266-0.778c-0.781-0.259-1.523-0.518-2.305-0.778 c-0.781-0.259-1.562-0.519-2.343-0.749c-0.781-0.26-1.602-0.49-2.382-0.749c-0.821-0.231-1.602-0.49-2.422-0.72 c-0.82-0.23-1.641-0.461-2.461-0.72c-7.266-2.045-14.999-3.831-23.162-5.272C137.528,56.412,54.487,86.196,0.117,105.699"/>
	<path fill="none" stroke-width="0.1" stroke-miterlimit="10" enable-background="new" d="M1000,182.553 c-44.176-9.075-82.963-17.716-112.451-21.145c-28.357-3.283-72.299-5.503-123.545,0.462c-22.732,2.649-48.434,8.412-72.689,14.576 c-0.703,0.173-1.406,0.375-2.109,0.547c-0.742,0.202-1.523,0.374-2.266,0.575c-0.859,0.23-1.719,0.433-2.539,0.662l0,0 c-0.742,0.202-1.523,0.404-2.266,0.605c-0.781,0.201-1.563,0.403-2.305,0.606l0,0c-0.742,0.2-1.484,0.402-2.266,0.604 c-0.039,0-0.039,0-0.039,0c-1.523,0.403-3.008,0.808-4.492,1.21h-0.039c-0.742,0.201-1.484,0.403-2.227,0.576 c0,0-0.039,0-0.039,0.029l0,0c-0.742,0.201-1.484,0.402-2.227,0.605c-0.781,0.201-1.521,0.402-2.303,0.604l0,0 c-0.742,0.203-1.486,0.404-2.227,0.606l0,0c-0.742,0.201-1.484,0.402-2.227,0.604s-1.484,0.403-2.227,0.604 c-0.742,0.202-1.484,0.404-2.227,0.606c-0.742,0.2-1.484,0.402-2.227,0.604c-0.742,0.201-1.484,0.403-2.227,0.605 c-0.74,0.201-1.484,0.402-2.227,0.604c-0.74,0.202-1.482,0.403-2.225,0.604c-0.742,0.202-1.484,0.404-2.188,0.606 c-0.742,0.2-1.484,0.402-2.227,0.604s-1.484,0.402-2.188,0.576c-0.781,0.202-1.563,0.432-2.344,0.633 c-0.703,0.202-1.445,0.376-2.109,0.577c-0.703,0.201-1.406,0.375-2.148,0.547c-0.703,0.203-1.445,0.374-2.109,0.547 c-7.615,1.988-14.256,3.63-19.607,4.696c-67.104,13.366-139.911,2.879-189.79-18.148c-43.316-18.262-72.416-51.851-117.022-76.825 c-0.625-0.346-1.25-0.691-1.914-1.037c-0.625-0.346-1.25-0.691-1.914-1.037c-0.625-0.346-1.25-0.662-1.875-1.009 c-0.625-0.346-1.29-0.662-1.914-1.007c-0.664-0.346-1.328-0.691-1.992-1.009c-0.664-0.346-1.367-0.691-2.071-1.037 c-1.289-0.634-2.578-1.268-3.906-1.901c0,0,0,0-0.039,0c-0.664-0.316-1.328-0.633-1.992-0.922c-0.664-0.288-1.328-0.605-1.993-0.893 c-0.663-0.317-1.367-0.605-2.07-0.922c-0.703-0.317-1.406-0.605-2.109-0.893c-0.704-0.289-1.407-0.576-2.109-0.893 c-0.703-0.288-1.406-0.577-2.109-0.864c-0.703-0.288-1.406-0.576-2.148-0.835c-0.742-0.289-1.445-0.576-2.188-0.836 c-0.742-0.288-1.445-0.547-2.187-0.807c-0.742-0.259-1.485-0.547-2.227-0.807c-0.742-0.259-1.484-0.518-2.265-0.777 c-0.743-0.26-1.523-0.52-2.305-0.778c-0.781-0.259-1.563-0.518-2.344-0.749c-0.781-0.26-1.563-0.49-2.382-0.75 c-0.781-0.259-1.602-0.489-2.383-0.72c-0.82-0.23-1.641-0.49-2.461-0.72c-0.82-0.231-1.64-0.461-2.5-0.692 c-0.82-0.23-1.68-0.46-2.539-0.691c-7.303-1.93-14.998-3.572-23.162-4.926c-91.712-15.24-173.62,16.274-227.366,36.928"/>
	<path fill="none" stroke-width="0.1" stroke-miterlimit="10" enable-background="new" d="M1000,186.355 c-43.941-9.133-82.299-17.977-111.514-21.662c-26.678-3.371-70.465-6.368-121.592-1.557c-22.695,2.132-48.592,7.346-73.082,13.021 c-0.703,0.174-1.404,0.317-2.107,0.489c-0.742,0.174-1.523,0.346-2.266,0.52c-0.898,0.201-1.758,0.402-2.656,0.633h-0.039 c-0.781,0.175-1.563,0.375-2.344,0.548l0,0c-0.742,0.173-1.484,0.346-2.266,0.547h-0.039l0,0c-1.563,0.375-3.086,0.749-4.609,1.124 c-0.039,0-0.039,0-0.039,0c-0.742,0.173-1.484,0.374-2.227,0.548c-0.039,0-0.039,0-0.078,0.028l0,0 c-0.742,0.173-1.484,0.375-2.227,0.547h-0.039c-0.742,0.173-1.484,0.375-2.227,0.548c0,0,0,0-0.039,0 c-0.781,0.2-1.563,0.373-2.344,0.575c-0.781,0.201-1.523,0.374-2.266,0.576c-0.779,0.201-1.523,0.375-2.266,0.576l0,0 c-0.781,0.201-1.521,0.374-2.266,0.577c-0.74,0.2-1.521,0.372-2.266,0.574c-0.742,0.175-1.523,0.375-2.264,0.576 c-0.781,0.202-1.523,0.375-2.268,0.577c-0.74,0.201-1.521,0.374-2.266,0.576c-0.742,0.201-1.482,0.373-2.225,0.575 c-0.742,0.174-1.484,0.375-2.227,0.548c-0.742,0.201-1.484,0.374-2.227,0.576c-0.742,0.2-1.484,0.374-2.227,0.547 c-0.781,0.202-1.602,0.403-2.383,0.576c-0.742,0.173-1.445,0.346-2.148,0.519c-0.742,0.173-1.445,0.346-2.148,0.52 c-0.742,0.172-1.445,0.345-2.146,0.518c-7.578,1.844-14.18,3.342-19.453,4.321c-66.752,12.443-138.036,2.534-188.111-18.09 c-41.948-17.283-72.103-50.15-118.154-74.463c-0.625-0.346-1.289-0.692-1.953-1.008c-0.664-0.346-1.289-0.662-1.953-1.007 c-0.625-0.318-1.289-0.663-1.953-0.981c-0.664-0.316-1.327-0.662-1.992-0.978c-0.664-0.317-1.328-0.634-1.993-0.952 c-1.367-0.662-2.773-1.296-4.179-1.958c-0.664-0.288-1.29-0.576-1.953-0.864c-0.704-0.317-1.367-0.605-2.071-0.893 c-0.703-0.289-1.367-0.605-2.07-0.894s-1.406-0.604-2.148-0.893c-0.703-0.288-1.445-0.576-2.148-0.864 c-0.703-0.288-1.445-0.576-2.148-0.836c-0.703-0.288-1.445-0.546-2.187-0.835c-0.743-0.288-1.484-0.547-2.227-0.835 c-0.742-0.259-1.484-0.547-2.227-0.807c-0.742-0.259-1.484-0.519-2.265-0.778c-0.781-0.259-1.523-0.518-2.305-0.777 c-0.781-0.26-1.523-0.519-2.304-0.749c-0.781-0.26-1.562-0.49-2.343-0.749c-0.781-0.26-1.602-0.491-2.383-0.721 s-1.602-0.489-2.421-0.72c-0.821-0.23-1.641-0.46-2.461-0.691c-0.82-0.23-1.64-0.461-2.5-0.691c-0.859-0.23-1.679-0.432-2.539-0.663 c-0.859-0.23-1.719-0.432-2.579-0.662c-7.343-1.786-15.038-3.341-23.162-4.608C134.13,61.453,49.254,95.962,0.078,116.559"/>
	<path fill="none" stroke-width="0.1" stroke-miterlimit="10" enable-background="new" d="M1000,190.157 c-43.707-9.188-81.672-18.206-110.615-22.18c-25.037-3.429-68.629-7.23-119.641-3.573c-22.654,1.613-48.746,6.279-73.432,11.465 c-0.703,0.144-1.367,0.288-2.068,0.432c-0.781,0.174-1.525,0.317-2.266,0.49c-0.938,0.201-1.836,0.403-2.775,0.605 c-0.037,0-0.037,0-0.078,0c-0.781,0.172-1.563,0.345-2.344,0.518c-0.037,0-0.037,0-0.076,0.029 c-1.523,0.346-3.086,0.663-4.609,1.008h-0.039l0,0c-0.781,0.174-1.563,0.347-2.344,0.52l0,0c-0.781,0.172-1.523,0.345-2.305,0.519 l0,0c-0.781,0.173-1.602,0.345-2.383,0.519l0,0l0,0c-0.742,0.173-1.523,0.346-2.266,0.519c-0.781,0.172-1.563,0.374-2.344,0.547l0,0 c-0.781,0.173-1.523,0.345-2.305,0.519l0,0c-0.781,0.172-1.521,0.346-2.303,0.519s-1.563,0.345-2.344,0.519 c-0.781,0.173-1.523,0.345-2.305,0.518c-0.781,0.175-1.563,0.347-2.305,0.519c-0.781,0.174-1.523,0.347-2.266,0.52 c-0.781,0.173-1.523,0.345-2.305,0.519c-0.742,0.172-1.523,0.346-2.266,0.518c-0.781,0.173-1.523,0.347-2.266,0.52 c-0.781,0.173-1.523,0.345-2.266,0.519s-1.523,0.346-2.266,0.519c-0.82,0.173-1.602,0.375-2.383,0.548 c-0.742,0.172-1.484,0.345-2.188,0.489c-0.742,0.173-1.484,0.346-2.188,0.519c-0.74,0.172-1.484,0.316-2.188,0.49 c-7.576,1.698-14.1,3.082-19.256,3.975c-66.361,11.465-136.083,2.16-186.392-18.062c-40.543-16.305-71.752-48.451-119.326-72.072 c-0.665-0.316-1.329-0.662-2.031-0.979c-0.664-0.317-1.328-0.634-1.992-0.98c-0.664-0.316-1.328-0.634-2.031-0.951 c-0.703-0.317-1.367-0.634-2.07-0.95l0,0c-1.367-0.634-2.734-1.239-4.101-1.844c-0.704-0.317-1.407-0.605-2.148-0.922 c-0.704-0.288-1.407-0.576-2.071-0.865c-0.703-0.288-1.444-0.604-2.148-0.894c-0.703-0.287-1.406-0.576-2.148-0.863 c-0.742-0.289-1.445-0.576-2.188-0.865c-0.743-0.288-1.445-0.547-2.187-0.834c-0.742-0.288-1.485-0.548-2.227-0.807 c-0.742-0.288-1.484-0.547-2.227-0.807c-0.742-0.26-1.523-0.519-2.265-0.778c-0.781-0.259-1.523-0.519-2.305-0.778 c-0.781-0.259-1.523-0.518-2.304-0.748c-0.781-0.259-1.563-0.49-2.344-0.749c-0.781-0.23-1.563-0.49-2.383-0.721 c-0.781-0.23-1.601-0.489-2.422-0.72c-0.82-0.23-1.64-0.461-2.46-0.691c-0.82-0.23-1.641-0.461-2.461-0.691 c-0.82-0.23-1.679-0.432-2.5-0.663c-0.859-0.23-1.68-0.432-2.539-0.663c-0.859-0.23-1.718-0.431-2.616-0.633 c-0.859-0.202-1.758-0.403-2.657-0.605c-7.343-1.671-15.077-3.111-23.162-4.292C132.333,63.959,38.708,103.192,0.078,122.031"/>
	<path fill="none" stroke-width="0.1" stroke-miterlimit="10" enable-background="new" d="M1000,193.988 c-43.473-9.246-81.01-18.436-109.678-22.757c-23.357-3.514-66.832-8.123-117.727-5.588c-22.576,1.123-48.863,5.242-73.705,9.938 c-0.662,0.115-1.326,0.259-1.992,0.375c-0.703,0.144-1.445,0.289-2.148,0.403c-1.055,0.201-2.068,0.402-3.086,0.605 c-1.6,0.315-3.201,0.633-4.803,0.949c-0.039,0-0.039,0-0.078,0.029c-0.781,0.144-1.563,0.317-2.344,0.462l0,0 c-0.781,0.144-1.563,0.316-2.305,0.461c-0.781,0.172-1.602,0.316-2.383,0.489l0,0c-0.781,0.173-1.602,0.317-2.383,0.489 c-0.781,0.174-1.563,0.317-2.344,0.489c0,0,0,0-0.039,0c-0.781,0.145-1.563,0.317-2.344,0.49c-0.781,0.174-1.563,0.316-2.342,0.489 c0,0,0,0-0.041,0c-0.781,0.174-1.563,0.317-2.303,0.49c-0.781,0.173-1.563,0.316-2.344,0.49c-0.781,0.172-1.563,0.316-2.344,0.489 c-0.781,0.172-1.563,0.317-2.305,0.489c-0.781,0.173-1.563,0.317-2.305,0.489c-0.781,0.174-1.563,0.317-2.305,0.49 c-0.781,0.173-1.523,0.316-2.305,0.49c-0.781,0.172-1.521,0.316-2.303,0.488c-0.781,0.175-1.523,0.318-2.305,0.49 c-0.781,0.173-1.523,0.317-2.305,0.49c-0.82,0.172-1.641,0.345-2.422,0.518c-0.742,0.145-1.484,0.318-2.227,0.461 c-0.742,0.146-1.484,0.317-2.227,0.461c-0.742,0.174-1.484,0.317-2.227,0.462c-7.539,1.555-14.023,2.823-19.1,3.63 c-65.973,10.514-134.17,1.756-184.675-18.004c-39.176-15.326-71.439-46.752-120.576-69.683c-0.704-0.316-1.367-0.633-2.071-0.95 c-0.703-0.317-1.406-0.634-2.108-0.951c-0.664-0.317-1.367-0.604-2.031-0.893c-1.406-0.633-2.813-1.239-4.258-1.815l0,0 c-0.703-0.287-1.406-0.575-2.108-0.862c-0.703-0.289-1.407-0.576-2.148-0.865c-0.703-0.288-1.445-0.577-2.188-0.864 c-0.741-0.289-1.484-0.576-2.226-0.865c-0.742-0.288-1.445-0.547-2.188-0.835c-0.741-0.288-1.484-0.547-2.227-0.806 c-0.741-0.26-1.484-0.548-2.265-0.807c-0.742-0.26-1.523-0.519-2.266-0.778c-0.743-0.26-1.523-0.519-2.305-0.778 c-0.781-0.259-1.562-0.519-2.343-0.75c-0.781-0.259-1.563-0.49-2.344-0.749c-0.781-0.259-1.562-0.49-2.382-0.72 c-0.781-0.231-1.602-0.491-2.422-0.721c-0.82-0.231-1.601-0.461-2.422-0.692c-0.82-0.23-1.64-0.46-2.46-0.691 c-0.82-0.23-1.641-0.461-2.499-0.662c-0.821-0.231-1.681-0.433-2.539-0.634c-0.859-0.23-1.719-0.432-2.579-0.633 c-0.859-0.202-1.718-0.433-2.617-0.634c-0.858-0.201-1.757-0.403-2.656-0.605c-0.898-0.202-1.796-0.403-2.694-0.576 c-7.382-1.555-15.078-2.91-23.163-3.975c-99.641-13.251-187.29,25.896-230.06,47.76"/>
	<path fill="none" stroke-width="0.1" stroke-miterlimit="10" enable-background="new" d="M1000,197.819 c-43.238-9.304-80.385-18.666-108.779-23.333c-21.717-3.542-64.996-8.986-115.773-7.604c-22.537,0.605-48.98,4.178-74.057,8.382 c-0.625,0.115-1.25,0.202-1.875,0.317c-0.547,0.088-1.094,0.201-1.641,0.288h-0.039c-2.07,0.346-4.178,0.72-6.209,1.096 c-0.82,0.144-1.602,0.288-2.383,0.432c-0.041,0-0.041,0-0.078,0c-0.781,0.144-1.602,0.288-2.383,0.433h-0.039 c-0.781,0.145-1.602,0.287-2.383,0.432l0,0c-0.781,0.145-1.602,0.288-2.383,0.432c-0.82,0.144-1.602,0.288-2.422,0.432 c-0.82,0.145-1.602,0.289-2.383,0.433c-0.82,0.144-1.602,0.287-2.383,0.433c-0.781,0.144-1.602,0.288-2.383,0.431 c-0.781,0.146-1.602,0.289-2.383,0.433c-0.781,0.145-1.602,0.288-2.383,0.461c-0.781,0.144-1.602,0.289-2.383,0.462 c-0.781,0.143-1.563,0.287-2.344,0.46c-0.781,0.145-1.563,0.289-2.344,0.461c-0.781,0.144-1.563,0.289-2.344,0.461 c-0.781,0.145-1.563,0.288-2.344,0.462c-0.781,0.144-1.563,0.289-2.344,0.46c-0.781,0.144-1.563,0.288-2.344,0.462 c-0.781,0.144-1.563,0.288-2.342,0.432c-0.82,0.173-1.641,0.317-2.461,0.462c-0.781,0.144-1.523,0.287-2.266,0.432 c-0.781,0.145-1.523,0.288-2.266,0.432c-0.781,0.145-1.523,0.288-2.266,0.433c-7.539,1.411-13.984,2.563-18.945,3.313 c-65.58,9.563-132.216,1.325-182.954-17.976c-37.73-14.347-71.126-45.053-121.747-67.262c-0.703-0.317-1.407-0.634-2.148-0.922 c-0.742-0.317-1.484-0.634-2.227-0.95c-1.367-0.576-2.773-1.152-4.179-1.729c-0.742-0.288-1.445-0.576-2.188-0.865 c-0.703-0.288-1.445-0.576-2.188-0.835c-0.742-0.288-1.484-0.576-2.226-0.864c-0.742-0.288-1.484-0.547-2.227-0.835 c-0.742-0.289-1.523-0.548-2.265-0.807c-0.742-0.259-1.484-0.547-2.266-0.806c-0.742-0.26-1.523-0.52-2.304-0.778 c-0.781-0.259-1.523-0.519-2.305-0.778c-0.781-0.259-1.563-0.519-2.344-0.749c-0.781-0.26-1.563-0.491-2.344-0.75 s-1.601-0.49-2.382-0.72c-0.781-0.26-1.602-0.49-2.422-0.72c-0.82-0.23-1.601-0.461-2.421-0.692c-0.82-0.23-1.641-0.46-2.461-0.691 c-0.82-0.23-1.641-0.461-2.5-0.662c-0.82-0.23-1.679-0.432-2.539-0.663c-0.859-0.202-1.68-0.432-2.539-0.634 c-0.858-0.202-1.718-0.433-2.578-0.634c-0.86-0.201-1.758-0.403-2.617-0.604c-0.898-0.202-1.758-0.403-2.656-0.605 c-0.898-0.201-1.797-0.374-2.695-0.576l0,0c-0.898-0.202-1.835-0.375-2.734-0.548c-7.381-1.468-15.077-2.708-23.123-3.687 C128.779,69.172,50.738,109.731,27.42,119.294c-5.898,2.42-15.546,7.289-27.342,13.914"/>
	<path fill="none" stroke-width="0.1" stroke-miterlimit="10" enable-background="new" d="M1000,201.68 c-43.043-10.14-79.76-18.897-107.842-23.909c-20.078-3.572-63.16-9.908-113.82-9.622c-22.732,0.087-49.645,3.17-75.15,6.943 c-0.664,0.086-1.328,0.201-1.992,0.288h-0.039c-1.094,0.174-2.148,0.317-3.242,0.489h-0.039c-1.055,0.144-2.07,0.317-3.125,0.49 c-0.898,0.144-1.836,0.287-2.734,0.432c-0.859,0.144-1.719,0.26-2.539,0.403c-0.82,0.143-1.678,0.259-2.5,0.403 c-0.818,0.144-1.639,0.26-2.498,0.403c-0.82,0.144-1.641,0.259-2.461,0.403c-0.82,0.144-1.641,0.288-2.461,0.403 c-0.82,0.144-1.641,0.26-2.461,0.403s-1.641,0.288-2.422,0.401c-0.82,0.146-1.602,0.261-2.422,0.404 c-0.82,0.145-1.602,0.288-2.422,0.402c-0.82,0.146-1.602,0.26-2.42,0.403c-0.82,0.145-1.602,0.289-2.383,0.403 c-0.822,0.145-1.604,0.288-2.383,0.403c-0.781,0.145-1.602,0.288-2.383,0.403c-0.781,0.145-1.604,0.288-2.385,0.403 c-0.781,0.145-1.6,0.288-2.381,0.403c-0.781,0.145-1.563,0.288-2.344,0.403c-0.781,0.146-1.602,0.288-2.383,0.402 c-0.82,0.145-1.641,0.288-2.461,0.434c-0.781,0.144-1.563,0.258-2.305,0.402c-0.781,0.144-1.563,0.259-2.305,0.404 c-0.781,0.143-1.523,0.257-2.305,0.401c-7.498,1.297-13.904,2.334-18.826,2.967c-65.189,8.585-130.263,0.894-181.275-17.916 c-36.326-13.395-70.815-43.354-122.998-64.842c-0.704-0.316-1.445-0.605-2.188-0.893l0,0c-1.484-0.605-2.969-1.182-4.492-1.758 c-0.703-0.288-1.445-0.548-2.148-0.807c-0.742-0.288-1.445-0.548-2.188-0.807c-0.742-0.288-1.523-0.548-2.265-0.835 c-0.742-0.259-1.523-0.547-2.266-0.807c-0.742-0.259-1.523-0.547-2.305-0.807c-0.781-0.259-1.523-0.519-2.305-0.778 c-0.781-0.259-1.562-0.518-2.304-0.778c-0.781-0.259-1.563-0.518-2.344-0.748c-0.781-0.259-1.562-0.489-2.383-0.75 c-0.781-0.23-1.602-0.489-2.383-0.72c-0.781-0.23-1.601-0.489-2.421-0.72s-1.602-0.461-2.422-0.691 c-0.82-0.229-1.64-0.461-2.461-0.69c-0.82-0.231-1.64-0.462-2.5-0.663c-0.82-0.23-1.68-0.432-2.5-0.663 c-0.859-0.23-1.679-0.432-2.539-0.634c-0.859-0.201-1.719-0.432-2.579-0.634c-0.859-0.202-1.718-0.403-2.617-0.604 c-0.859-0.202-1.757-0.404-2.617-0.576c-0.898-0.202-1.758-0.375-2.656-0.576s-1.797-0.374-2.734-0.548 c-0.899-0.172-1.836-0.374-2.734-0.547c-0.938-0.172-1.875-0.346-2.813-0.518c-7.382-1.354-15.077-2.505-23.084-3.399 C127.061,71.766,47.926,114.6,27.732,123.99c-5.703,2.65-15.546,7.836-27.654,14.893"/>
	<path fill="none" stroke-width="0.1" stroke-miterlimit="10" enable-background="new" d="M1000,205.568 c-42.262-9.795-79.135-19.099-106.943-24.542c-18.438-3.603-61.324-10.773-111.867-11.667c-22.811-0.433-50.152,2.131-76.01,5.474 c-1.328,0.171-2.695,0.345-4.023,0.518h-0.039c-0.547,0.087-1.055,0.144-1.602,0.202c-0.898,0.115-1.758,0.229-2.656,0.345 c-0.859,0.115-1.758,0.23-2.617,0.347c-0.859,0.115-1.719,0.23-2.539,0.345c-0.82,0.115-1.68,0.23-2.5,0.346 c-0.818,0.116-1.678,0.231-2.498,0.346c-0.859,0.115-1.68,0.23-2.5,0.375c-0.82,0.115-1.641,0.23-2.461,0.374 c-0.82,0.115-1.641,0.23-2.461,0.375c-0.82,0.115-1.641,0.26-2.461,0.375c-0.82,0.114-1.641,0.229-2.422,0.374 c-0.82,0.115-1.641,0.26-2.461,0.375c-0.82,0.114-1.641,0.259-2.461,0.374s-1.602,0.259-2.422,0.375 c-0.82,0.114-1.641,0.258-2.422,0.373c-0.82,0.116-1.602,0.261-2.42,0.376c-0.82,0.114-1.602,0.259-2.422,0.374 s-1.602,0.259-2.422,0.375c-0.82,0.114-1.602,0.258-2.383,0.374c-0.82,0.114-1.602,0.26-2.383,0.375 c-0.859,0.143-1.68,0.259-2.5,0.374c-0.781,0.115-1.563,0.23-2.344,0.374c-0.781,0.115-1.563,0.23-2.344,0.374 c-0.781,0.115-1.561,0.261-2.342,0.376c-7.5,1.151-13.867,2.103-18.711,2.678c-64.838,7.548-128.311,0.404-179.556-17.888 c-34.919-12.443-70.502-41.653-124.288-62.422c-1.444-0.576-2.929-1.124-4.452-1.671l0,0c-0.742-0.288-1.523-0.547-2.265-0.835 c-0.742-0.259-1.523-0.547-2.266-0.806c-0.742-0.26-1.523-0.548-2.266-0.808c-0.781-0.259-1.522-0.519-2.304-0.777 c-0.781-0.259-1.563-0.519-2.344-0.778c-0.781-0.259-1.562-0.519-2.343-0.749c-0.781-0.259-1.563-0.519-2.383-0.749l0,0 c-0.781-0.26-1.563-0.49-2.383-0.72c-0.781-0.23-1.601-0.49-2.421-0.721c-0.82-0.231-1.602-0.49-2.422-0.72s-1.641-0.461-2.46-0.691 c-0.82-0.23-1.641-0.46-2.461-0.691c-0.82-0.23-1.68-0.461-2.5-0.663c-0.82-0.231-1.679-0.432-2.499-0.662 c-0.859-0.231-1.68-0.433-2.539-0.635c-0.859-0.202-1.719-0.432-2.579-0.633c-0.859-0.202-1.718-0.404-2.578-0.605 c-0.859-0.202-1.758-0.403-2.617-0.605c-0.898-0.202-1.757-0.375-2.656-0.576c-0.898-0.202-1.796-0.374-2.695-0.548 c-0.898-0.172-1.796-0.374-2.734-0.548c-0.898-0.172-1.836-0.345-2.773-0.518c-0.938-0.173-1.875-0.345-2.812-0.519 c-0.938-0.172-1.914-0.345-2.852-0.49c-7.382-1.266-15.038-2.304-23.006-3.139c-107.57-11.178-188.228,34.249-204.906,43.18 c-5.429,2.909-15.468,8.468-27.928,15.986"/>
	<path fill="none" stroke-width="0.1" stroke-miterlimit="10" enable-background="new" d="M1000,209.514 c-42.77-10.484-78.549-19.27-106.008-25.204c-16.795-3.629-59.486-11.61-109.951-13.683c-23.514-0.952-52.066,1.239-78.861,4.234 c-0.664,0.087-1.328,0.143-1.992,0.229c-0.586,0.058-1.172,0.145-1.758,0.202c-0.859,0.086-1.68,0.201-2.498,0.288 c-0.859,0.087-1.719,0.201-2.539,0.288c-0.859,0.086-1.68,0.201-2.5,0.288s-1.68,0.202-2.5,0.289c-0.82,0.114-1.68,0.2-2.5,0.315 s-1.68,0.202-2.5,0.317s-1.68,0.201-2.498,0.317c-0.822,0.114-1.641,0.201-2.463,0.316c-0.82,0.116-1.68,0.201-2.498,0.316 c-0.82,0.115-1.641,0.231-2.461,0.317c-0.82,0.115-1.641,0.231-2.461,0.318c-0.82,0.114-1.641,0.229-2.461,0.316 c-0.82,0.115-1.641,0.23-2.461,0.317c-0.82,0.114-1.641,0.229-2.461,0.345s-1.641,0.23-2.422,0.316 c-0.82,0.117-1.641,0.231-2.422,0.346c-0.82,0.115-1.641,0.23-2.422,0.346c-0.82,0.115-1.639,0.231-2.42,0.317 c-0.822,0.115-1.641,0.23-2.422,0.346c-0.859,0.115-1.68,0.23-2.539,0.346c-0.82,0.115-1.602,0.23-2.383,0.317 c-0.781,0.115-1.602,0.23-2.344,0.316c-0.781,0.115-1.563,0.231-2.344,0.317c-7.5,1.008-13.826,1.843-18.553,2.333 c-64.449,6.625-126.319-0.115-177.839-17.83c-33.904-11.667-71.206-40.703-127.842-60.781c-0.742-0.259-1.484-0.519-2.265-0.778 s-1.523-0.547-2.305-0.807s-1.563-0.518-2.344-0.778c-0.781-0.259-1.563-0.518-2.343-0.777c-0.781-0.26-1.563-0.519-2.383-0.75 c-0.781-0.259-1.601-0.489-2.382-0.749c-0.781-0.26-1.602-0.49-2.422-0.721l0,0c-0.821-0.23-1.602-0.49-2.422-0.72 c-0.82-0.23-1.601-0.461-2.421-0.691s-1.641-0.461-2.461-0.691c-0.82-0.231-1.641-0.461-2.46-0.663 c-0.821-0.23-1.68-0.432-2.5-0.663c-0.82-0.23-1.68-0.431-2.539-0.662s-1.719-0.432-2.539-0.633 c-0.859-0.203-1.719-0.432-2.578-0.634c-0.859-0.202-1.719-0.403-2.578-0.604c-0.859-0.202-1.758-0.403-2.617-0.605 c-0.859-0.202-1.757-0.404-2.657-0.576c-0.898-0.202-1.796-0.374-2.694-0.576c-0.898-0.173-1.797-0.374-2.695-0.547 c-0.898-0.172-1.836-0.346-2.734-0.518c-0.938-0.173-1.836-0.346-2.773-0.519c-0.938-0.172-1.875-0.345-2.812-0.488 c-0.938-0.174-1.914-0.318-2.852-0.491c-0.977-0.173-1.914-0.316-2.891-0.461c-7.382-1.152-15.038-2.132-22.967-2.88 C123.897,76.98,42.537,125.489,28.631,133.439c-5.625,3.023-15.664,9.188-28.553,17.195"/>
</svg> 