<svg class="thz-svg-shape thz-svg-abstract-wave-3-stroke" xmlns="http://www.w3.org/2000/svg" viewBox="0 0 1000 250" preserveAspectRatio="none"><path d="M1000,4.53C944,35.26,899.74,92.21,858.69,139.66c-27.38,31.66-72.06,53.35-98.59,47.17-17.41-4-23.5-18.14-45.39-38-32.88-29.73-78.46-74.8-135.15-65.68-69.23,11.17-120.17,63.44-165.89,116.28-27.36,31.66-72.06,53.35-98.59,47.2-17.38-4.06-21.38-21.4-45.39-38-18.59-12.84-46.37-24.46-75.74-30-26-4.87-53.26-5-76.59,3.15-36.15,12.56-56.24,41-90.35,48.24a82.28,82.28,0,0,1-27,1.17M1000,117.1a49.32,49.32,0,0,1-12.53-1c-17.32-3.77-42.69-19.38-65.59-37.27-85.19-66.56-143.47,2.58-179.53,43.6-47.56,54-95.19,105.19-179.09,86.23-29.74-6.75-62.93-51.71-86.41-70-85.18-66.53-143.43,2.61-179.52,43.6-54.28,61.68-107.18,80.16-180.77,54C47.85,211.75,13.61,169.71,0,115.06m1000-.63c-6,1.45-11.48,2.87-16.41,2.38C965.84,115.14,939.9,99.75,917,82.09c-41.9-32.26-76.71-32-106.27-19.11-29.77,13-54.12,38.07-73.28,58.26-25.17,26.5-49.72,53.74-78.63,71.88-28.27,17.72-61.57,26.08-103,16.67-29.36-6.63-61.71-50.74-85.15-69-83.17-64.89-140.49,1.81-176.38,41.35-27.07,29.82-53.91,49.18-82.94,58.23-29.42,9.15-60.78,8.44-97.4-4.34C47.42,212.88,13.89,172.37,0,120m1000-8.53c-7.43,2.69-14.06,6-20.32,6.09-18,.31-44.65-14.74-67.61-32.14-41.22-31.27-75-31.38-104.38-19.73-29.79,11.82-54.88,34.52-75.2,54.39-26.59,26-51.88,54.15-81.39,73.28C623,211.58,589.22,220.25,548.2,211c-29-6.57-60.43-49.8-83.9-68.06C383.14,79.65,326.81,143.94,291.07,182c-27,28.74-53.89,47.48-82.75,56.49-29.62,9.24-60.69,9.73-97.17-2.69C46.94,214,14.15,175,0,124.75m1000-16.5c-8.87,3.83-16.58,9.13-24.24,10-18.14,2-45.58-12.45-68.6-29.62-40.5-30.25-73.27-30.73-102.47-20.3C774.84,79,749,99.3,727.56,118.85c-28,25.49-54,54.54-84.11,74.67-28.09,18.79-62.19,27.78-102.76,18.59-28.6-6.49-59.21-48.87-82.66-67.09-79.17-61.6-134.5.25-170.08,36.91C261,209.65,234.06,227.7,205.4,236.69c-29.85,9.35-60.63,11.06-97-1.05C46.4,215,14.34,177.53,0,129.4M1000,105c-10.35,4.91-19.08,12.16-28.12,14-18.26,3.65-46.55-10.12-69.62-27C862.43,62.64,830.68,61.79,801.71,71c-29.93,9.53-56.47,27.39-79.09,46.63-29.36,25-56.15,54.94-86.82,76.06-28,19.3-62.54,28.63-102.62,19.53-28.23-6.41-58-47.91-81.44-66.11-77.16-59.92-131.53-.51-166.94,34.67-26.84,26.7-53.86,44.11-82.35,53.07-30,9.44-60.54,12.33-96.74.59C45.84,216.05,14.54,180.05,0,133.93m1000-32.28c-11.79,5.92-21.57,15.11-32,18-18.31,5.13-47.48-7.8-70.61-24.5-39.12-28.26-69.91-29.5-98.65-21.45-30,8.36-57.24,23.84-81,42.74-30.76,24.47-58.31,55.31-89.55,77.45-27.95,19.81-62.87,29.48-102.5,20.49-27.84-6.32-56.69-47-80.17-65.17C370.3,91,316.92,148,281.68,181.7c-26.81,25.65-53.85,42.4-82.14,51.33-30.28,9.56-60.47,13.64-96.53,2.24C45.24,217.05,14.68,182.49,0,138.38M1000,98.27c-13.29,6.92-24.1,18-35.94,22.11-18.37,6.47-48.42-5.47-71.61-21.94-38.41-27.26-68.2-28.88-96.75-22a226.54,226.54,0,0,0-82.94,38.89c-32.15,24-60.47,55.67-92.27,78.83-27.89,20.3-63.21,30.33-102.36,21.43-27.47-6.23-55.48-46-78.92-64.17-73.19-56.61-125.61-2-160.67,30.24-26.73,24.61-53.83,40.68-82,49.61-30.48,9.67-60.38,14.91-96.3,3.88C44.62,218,14.8,184.9,0,142.72M1000,94.84c-14.8,7.89-26.67,20.78-39.83,26.25-18.48,7.71-49.38-3.17-72.62-19.36C849.85,75.46,821,73.41,792.7,79.08c-30.22,6-58.77,16.73-84.87,35-33.54,23.47-62.65,56-95,80.22-27.78,20.78-63.53,31.18-102.19,22.4-27.13-6.16-54.23-45.07-77.7-63.22-71.18-55-122.63-2.83-157.5,28-26.67,23.58-53.8,39-81.75,47.88-30.7,9.78-60.3,16.18-96.1,5.52C44,219,14.88,187.23,0,147M1000,91.41c-16.33,8.82-29.28,23.53-43.74,30.42-18.6,8.82-50.32-.88-73.59-16.84-37-25.28-64.94-27.72-93-23.21-30.33,4.84-59.53,13.18-86.8,31.12-34.92,23-64.8,56.35-97.74,81.61-27.72,21.26-63.83,32-102,23.36-26.76-6.1-53-44.17-76.45-62.25C357.49,102.3,307,152,272.27,181.39c-26.61,22.53-53.77,37.3-81.55,46.17-30.9,9.87-60.15,17.44-95.84,7.17C43.29,219.91,15,189.55,0,151.14M1000,88c-17.89,9.73-31.92,26.23-47.65,34.56-18.71,9.92-51.22,1.42-74.58-14.26C841.48,84,814.47,81.13,786.69,84.44c-30.45,3.69-60.27,9.67-88.73,27.3-36.31,22.45-67,56.66-100.46,83-27.7,21.74-64.18,32.88-101.94,24.29-26.36-6-51.73-43.2-75.2-61.25-67.16-51.68-116.71-4.4-151.2,23.52-26.59,21.52-53.78,35.63-81.36,44.45-31.13,10-60.07,18.71-95.64,8.82C42.58,220.79,15,191.82,0,155.22M1000,84.53c-19.42,10.63-34.61,28.88-51.54,38.72-18.87,10.94-52.15,3.71-75.6-11.71C837.32,88.18,811.21,85,783.71,87.13c-30.61,2.44-61.06,6.13-90.68,23.42-37.67,22-69.14,57-103.18,84.36-27.64,22.19-64.52,33.73-101.8,25.25-26-5.92-50.48-42.26-74-60.29-65.17-50-113.75-5.16-148.08,21.32a263.87,263.87,0,0,1-81.16,42.72c-31.32,10.06-59.92,19.92-95.41,10.46C41.84,221.67,15,194.06,0,159.25M1000,81.07c-21,11.54-37.3,31.52-55.45,42.89-19,11.93-53.06,6-76.59-9.13-34.81-22.39-60-26.08-87.25-25-30.76,1.22-61.83,2.58-92.61,19.53C649,130.84,616.78,166.7,582.19,195.11c-27.58,22.67-64.86,34.58-101.65,26.22C454.91,215.49,431.3,180,407.8,162c-63.16-48.39-110.81-6-144.91,19.07a281,281,0,0,1-81,41c-31.52,10.18-59.78,21.18-95.19,12.11C41.07,222.49,15,196.24,0,163.16M1000,77.61c-22.56,12.42-40,34.16-59.36,47.06s-54,8.27-77.58-6.58C829,96.66,804.63,92.55,777.7,92.49c-30.92,0-62.56-.93-94.54,15.68-40.42,21-73.5,57.65-108.62,87.13C547,218.41,509.37,230.74,473,222.46c-25.23-5.75-48-40.39-71.46-58.34-61.15-46.74-107.86-6.74-141.8,16.84C233.3,199.33,206,211.49,179,220.25c-31.75,10.29-59.64,22.39-95,13.75-43.71-10.69-69-35.61-84-67M1000,74.12c-24.12,13.33-42.8,36.77-63.24,51.25-19.53,13.84-54.91,10.58-78.61-4-33.33-20.5-56.81-25.06-83.45-26.2-31.07-1.3-63.33-4.47-96.47,11.8-41.81,20.52-75.71,58-111.37,88.52-27.5,23.56-65.49,36.29-101.37,28.12-24.86-5.67-46.75-39.46-70.25-57.37-59.13-45.1-104.91-7.51-138.64,14.6-26.39,17.32-53.66,28.83-80.56,37.59C144.09,228.81,116.56,242,81.3,233.8c-41.78-9.7-66.36-33.31-81.3-63M1000,70.67c-25.71,14.17-45.58,39.34-67.15,55.44-19.79,14.74-55.79,12.81-79.6-1.47-32.6-19.53-55.22-24.58-81.56-26.76-31.24-2.61-64.06-8-98.39,7.91-43.17,20-77.9,58.28-114.1,89.91-27.44,24-65.82,37.14-101.22,29.08-24.5-5.61-45.5-38.55-69-56.4-57.12-43.46-102-8.31-135.5,12.38-26.36,16.27-53.66,27.13-80.36,35.83-32.18,10.49-59.36,24.78-94.54,17-39.89-8.79-63.7-31.07-78.58-59.1M1000,67.18c-27.3,15.08-48.36,41.92-71.07,59.64-20.07,15.65-56.69,15.08-80.59,1.11-31.83-18.63-53.6-24.13-79.62-27.36-31.41-3.91-64.86-11.56-100.35,4-44.56,19.55-80.08,58.56-116.82,91.3-27.41,24.43-66.16,38-101.09,30-24.12-5.5-44.25-37.59-67.77-55.45-55.11-41.81-99-9.07-132.36,10.18-26.33,15.22-53.63,25.43-80.16,34.13C137.8,225.35,111,240.72,75.86,233.43c-38-7.85-61.06-28.86-75.86-55.28M1000,63.72c-28.89,15.93-51.19,44.48-75,63.81-20.38,16.55-57.6,17.32-81.61,3.65-31.07-17.65-52-23.66-77.73-27.94-31.58-5.25-65.59-15.09-102.27.17-45.93,19.07-82.3,58.87-119.54,92.69-27.39,24.86-66.51,38.86-101,31-23.75-5.44-43-36.68-66.5-54.48-53.12-40.17-96.1-9.89-129.21,7.94-26.3,14.17-53.63,23.75-80,32.4-32.6,10.71-59,27.1-94.09,20.32C37,226.29,14.71,206.56,0,181.75M1000,60.23c-30.47,16.81-54,47.06-78.86,68-20.69,17.43-58.48,19.56-82.6,6.23-30.31-16.75-50.41-23.27-75.83-28.54-31.72-6.61-66.36-18.6-104.21-3.72-47.28,18.6-84.5,59.16-122.26,94.09-27.38,25.28-66.81,39.71-100.83,31.91-23.39-5.32-41.73-35.74-65.25-53.48C319.05,136.2,277,164,244.07,180.42c-26.28,13.1-53.61,22.08-79.77,30.7-32.8,10.8-58.82,28.21-93.86,21.94C36.11,226.94,14.57,208.51,0,185.24M1000,56.75c-32.06,17.69-56.84,49.63-82.77,72.2-21,18.34-59.33,21.79-83.6,8.78-29.54-15.84-48.78-22.84-73.93-29.11-31.86-8-67.1-22.14-106.13-7.6-48.67,18.15-86.69,59.48-125,95.48-27.33,25.71-67.13,40.56-100.66,32.88-23-5.28-40.48-34.81-64-52.53-49.07-36.91-90.23-11.48-122.91,3.49-26.28,12-53.6,20.35-79.57,28.94-33,10.91-58.65,29.34-93.66,23.61C35.21,227.59,14.43,210.41,0,188.7M1000,53.29c-33.65,18.54-59.7,52.16-86.66,76.39-21.4,19.19-60.23,24-84.61,11.34-28.78-15-47.17-22.48-72-29.73-32-9.33-67.87-25.63-108.06-11.46-50,17.66-88.9,59.76-127.73,96.86-27.3,26.14-67.47,41.42-100.55,33.85-22.62-5.19-39.21-33.9-62.76-51.56-47.09-35.27-87.34-12.31-119.8,1.24-26.25,10.95-53.54,18.68-79.37,27.25-33.19,11-58.45,30.38-93.4,25.22C34.3,228.19,14.29,212.28,0,192M1000,49.8c-35.24,19.42-62.56,54.71-90.57,80.59-21.77,20.1-61.09,26.19-85.61,13.89-28-14.06-45.55-22.11-70.1-30.3-32.17-10.74-68.63-29.17-110-15.34-51.43,17.18-91.11,60-130.46,98.25-27.3,26.53-67.8,42.27-100.4,34.78-22.26-5.1-38-33-61.54-50.57-45.05-33.64-84.39-13.12-116.62-1-26.25,9.89-53.55,17-79.18,25.51-33.42,11.14-58.28,31.47-93.2,26.9C33.36,228.75,14.12,214.1,0,195.36m1000-149c-36.82,20.29-65.43,57.26-94.48,84.78-22.14,21-61.94,28.4-86.6,16.47-27.19-13.18-43.94-21.77-68.2-30.9-32.29-12.16-69.4-32.68-112-19.22-52.78,16.73-93.34,60.3-133.17,99.64-27.3,27-68.15,43.12-100.27,35.75-21.88-5-36.7-32.06-60.29-49.61-43-32-81.5-13.95-113.5-3.23-26.22,8.81-53.52,15.3-79,23.81-33.62,11.22-58.08,32.46-93,28.52C32.43,229.26,13.92,215.86,0,198.59M1000,42.83c-38.44,21.17-68.29,59.81-98.36,89-22.57,21.85-62.82,30.58-87.63,19-26.39-12.33-42.29-21.4-66.3-31.49-32.4-13.58-70.13-36.17-113.87-23-54.14,16.21-95.56,60.55-135.9,101-27.29,27.35-68.45,44-100.12,36.71-21.51-5-35.46-31.16-59.07-48.65-41-30.38-78.55-14.76-110.33-5.44-26.22,7.68-53.52,13.61-78.78,22.06-33.84,11.33-57.88,33.44-92.78,30.18C31.47,229.77,13.72,217.58,0,201.77M1000,39.34c-40,22.06-71.18,62.36-102.28,93.18-22.93,22.73-63.66,32.77-88.61,21.6-25.6-11.48-40.65-21.09-64.4-32.09-32.52-15-70.9-39.71-115.8-26.93-55.53,15.76-97.77,60.83-138.65,102.39-27.27,27.75-68.77,44.81-100,37.64-21.12-4.85-34.16-30.22-57.8-47.65-39-28.77-75.66-15.62-107.21-7.68-26.22,6.6-53.49,11.9-78.57,20.35C112.65,211.6,89,234.54,54.17,232c-23.7-1.73-40.68-12.7-54.17-27.1m1000-169c-41.61,22.91-74.07,64.89-106.19,97.35-23.36,23.64-64.52,34.92-89.6,24.15-24.78-10.63-39-20.78-62.51-32.66C709.1,108.25,670.07,81.49,624,93.91,567.08,109.22,524,155,482.61,197.69c-27.27,28.14-69.11,45.66-99.84,38.6C362,231.5,349.86,207,326.19,189.58c-37-27.13-72.74-16.44-104-9.89-26.22,5.49-53.47,10.23-78.38,18.62-34.28,11.56-57.49,35.32-92.33,33.48-22-1.17-38.18-10.92-51.45-23.9M1000,32.4C956.77,56.15,923,99.81,889.9,134c-23.75,24.49-65.34,37-90.57,26.68-24-9.81-37.33-20.47-60.63-33.23C706,109.47,666.3,80.67,619,92.72,560.76,107.54,516.8,154.09,475,197.88c-27.27,28.55-69.46,46.52-99.7,39.58-20.41-4.71-31.67-28.44-55.33-45.76-35-25.51-69.82-17.29-100.92-12.13-26.19,4.37-53.43,8.56-78.18,16.93-34.47,11.67-57.29,36.17-92.1,35.09C28.4,231,13,222.43,0,210.84M1000,28.91c-44.82,24.63-79.85,70-114,105.76-24.21,25.4-66.22,39.15-91.59,29.26-23.19-9-35.66-20.19-58.71-33.85C703,110.69,662.56,79.85,614.08,91.53,554.47,105.9,509.62,153.15,467.3,198.08,440,227,397.54,245.45,367.72,238.59c-20-4.62-30.36-27.52-54.09-44.76-32.91-23.92-66.9-18.17-97.74-14.34-26.19,3.23-53.43,6.83-78,15.16-34.7,11.79-57.12,37-91.9,36.77-18.66-.14-33.28-7.49-46-17.72M1000,25.42c-46.43,25.52-82.77,72.49-117.9,110-24.63,26.28-67,41.24-92.58,31.8-22.36-8.22-34-19.87-56.8-34.41C699.92,111.91,658.79,79,609.15,90.34c-61,13.92-106.67,61.88-149.5,107.94-27.3,29.34-70.1,48.22-99.44,41.47-19.65-4.53-29.09-26.64-52.84-43.79-30.9-22.31-64-19.05-94.63-16.59-26.16,2.1-53.4,5.16-77.78,13.47C100.07,204.72,78,230.6,43.31,231.22c-17,.34-30.89-5.84-43.31-14.74M1000,21.94c-48,26.39-85.66,75-121.81,114.15-25.06,27.18-67.86,43.31-93.57,34.38-21.52-7.48-32.23-19.58-54.91-35C696.88,113.1,655,78.21,604.22,89.15,541.85,102.61,495.31,151.31,452,198.48c-27.27,29.73-70.42,49.07-99.28,42.41-19.27-4.45-27.83-25.74-51.59-42.81-28.85-20.72-61.09-19.93-91.47-18.82-26.17,1-53.41,3.49-77.59,11.76-35.12,12-56.75,38.44-91.45,40C25.17,231.76,12.1,226.74,0,219.2M1000,18.45C950.36,45.72,911.42,96,874.31,136.8c-25.54,28.06-68.74,45.38-94.6,36.93-20.69-6.74-30.5-19.3-53-35.6C693.85,114.32,651.27,77.35,599.29,88c-63.73,13-111.18,62.42-155,110.72-27.3,30.13-70.75,49.94-99.16,43.37-18.88-4.37-26.53-24.86-50.34-41.84-26.82-19.14-58.14-20.84-88.33-21.06-26.14-.2-53.35,1.78-77.39,10-35.29,12.11-56.58,39.09-91.22,41.67C24,231.9,11.76,228,0,221.81M1000,15c-51.22,28.09-91.5,80.08-129.6,122.54-26,28.95-69.57,47.37-95.59,39.49-19.87-6-28.77-19-51.11-36.2-32.88-25.28-76.2-64.29-129.35-54C529.24,99.3,480.94,149.44,436.66,198.88c-27.33,30.5-71.1,50.79-99,44.33-18.51-4.28-25.26-24-49.1-40.88-24.77-17.54-55.22-21.74-85.18-23.27-26.13-1.36-53.35.09-77.19,8.31-35.52,12.21-56.46,39.65-91,43.31C22.82,232,11.4,229.26,0,224.33M1000,11.51c-52.84,29-94.42,82.6-133.49,126.73-26.44,29.85-70.41,49.38-96.6,42-19-5.33-27-18.74-49.19-36.76-32.91-26.79-77-67.81-131.3-57.94C523,97.65,473.76,148.5,429,199.07c-27.32,30.9-71.4,51.65-98.87,45.27-18.14-4.19-24-23.1-47.88-39.88-22.7-16-52.27-22.65-82-25.51-26.08-2.52-53.33-1.59-77,6.58-35.71,12.33-56.32,40.16-90.76,44.95C21.6,232,11,230.43,0,226.77M1000,8C945.57,37.87,902.66,93.17,862.6,139c-26.9,30.76-71.23,51.37-97.6,44.62-18.22-4.68-25.25-18.45-47.28-37.39C684.81,118,640,74.89,584.49,84.38,516.63,96,466.59,147.57,421.35,199.27c-27.35,31.3-71.75,52.5-98.73,46.24-17.78-4.11-22.68-22.26-46.63-38.92-20.7-14.4-49.33-23.56-78.89-27.75-26-3.69-53.32-3.26-76.82,4.87C84.36,196.15,64,224.3,29.74,230.31,20.3,232,10.55,231.45,0,229.09" fill="none" stroke-width="0.2" stroke-miterlimit="10" enable-background="new" /></svg>