<svg class="thz-svg-shape thz-svg-abstract-wave-2-stroke" xmlns="http://www.w3.org/2000/svg" viewBox="0 0 1000 250" preserveAspectRatio="none"><path d="M0,98.78c250.49-84,170.5,144,270.51,144,119.42,0,130.65-103.15,159.67-158.46C459,29.39,505.36,21.62,692.5,208.79c56.86,56.87,81-105.22,151-187C880-20.81,941.24,51.3,1000,1.3M0,248.7C109.5,227.3,79.34,122.48,175.52,77.09c255-120.3,345,354.7,408,49.7C597,61.53,660.5,31.12,706.28,16.38,825-21.86,825.93,119.53,905,165.2c38.67,22.3,69.88,28.06,95,25.45M0,103.63c246-82,167.58,136.2,267.45,133.82,123.42-2.95,136.6-88.1,167.38-151.2C462.24,30,508,23,693,202.58c57.21,55.56,81.53-99.12,152.54-176.17C882.28-13.5,942.8,54.08,1000,8.16M0,108.45C241.4,28.51,164.69,236.77,264.38,232.09c127.88-6,142.79-73.64,175.41-144.48C466,30.75,511.42,25.05,693.38,196.38,751.09,250.69,775.56,103.31,847.47,31,884.6-6.27,944.3,57,1000,14.93M0,113.29C236.86,35.34,161.83,233.62,261.32,226.76,393.67,217.61,410.4,167.63,444.75,89c25.09-57.43,70.13-61.85,249.08,101.2,58.31,53.12,82.83-87,155.63-154.52C887,.87,945.78,59.92,1000,21.62M0,118.14C232.32,42.2,159,230.39,258.23,221.41,395.12,209,413.71,176.87,449.69,90.3c24.09-57.94,68.76-61.14,244.6,93.66,59.07,52,83.59-81,157.15-143.66C889.4,8,947.19,63,1000,28.23M0,123c227.76-73.9,156.13,104.12,255.17,93.12,141.39-15.74,162-29.91,199.48-124.42,23.18-58.39,67.43-60.43,240.09,86.09,60,50.91,84.42-75,158.68-132.83C891.89,15,948.61,66.15,1000,34.69M0,127.81c223.23-71.89,153.32,95.86,252.11,82.91C398,191.59,420.66,195.5,459.61,93,482,34.21,525.8,33.27,695.17,171.54c61.08,49.87,85.35-69,160.24-122C894.41,22,950,69.41,1000,41.07M0,132.63c218.66-69.85,150.49,87.56,249.05,72.73,150.46-22.62,175.21-.51,215.52-111,21.6-59.16,65.08-59,231.05,71C758,214.18,782,102.29,857.39,54.16c39.6-25.28,93.94,18.6,142.61-6.8M0,137.47C214.13,69.64,147.68,216.64,246,200c155-26.19,181.9,14.2,223.54-104.31,20.89-59.53,64.06-58.37,226.54,63.41,63.75,47.79,87.48-57,163.31-100.35,40.25-23,93.31,17.44,140.62-5.21M0,142.32C209.56,76.47,144.85,213,242.93,194.68c159.53-29.8,188.67,29,231.56-97.6,20.27-59.87,63.15-57.71,222,55.84,65.36,46.72,88.69-51,164.86-89.49C902.29,42.71,954,79.79,1000,59.66M0,147.14c205-63.81,142,62.19,239.86,42.21,164.05-33.51,195.51,43.71,239.56-90.94,19.7-60.15,62.42-57.09,217.53,48.3,67.13,45.61,90-44.87,166.39-78.66C905,49.63,955.36,83.47,1000,65.7M0,152c200.46-61.8,139.21,53.6,236.8,32,168.55-37.25,202.37,58.51,247.58-84.22,19.16-60.43,61.8-56.52,213,40.74,69.06,44.44,91.42-38.7,167.93-67.84,42.32-16.13,91.36,14.63,134.67-1M0,156.83c195.93-59.78,136.37,44.93,233.74,21.83,173-41.1,209.28,73.28,255.6-77.53,18.65-60.72,61.32-56,208.49,33.17,71.21,43.14,92.95-32.46,169.48-57,43-13.77,90.71,14,132.69.26M0,161.65c191.36-57.74,133.51,36.26,230.65,11.65,177.54-44.93,216.26,88.07,263.65-70.84,18.17-61,61-55.58,204,25.63,73.51,41.75,94.54-26.11,171-46.18,43.65-11.42,90,13.5,130.7,1.48M0,166.5C186.83,110.74,130.65,194,227.59,168c182-48.87,223.26,102.84,271.67-64.14,17.75-61.23,60.89-55.25,199.48,18,75.94,40.2,96.15-19.64,172.54-35.32,44.25-9.1,89.32,13.13,128.72,2.61M0,171.32c182.29-53.72,127.78,18.71,224.53-8.7C411,109.81,454.79,280.28,504.22,105.19c17.35-61.52,60.95-55,194.94,10.48,78.58,38.44,97.88-13.09,174.11-24.49,44.76-6.72,88.58,13,126.73,3.74M0,176.17c177.73-51.71,124.89,9.86,221.47-18.88,190.85-56.84,237.29,132.46,287.69-50.77,17-61.71,61.22-54.94,190.46,3,81.32,36.45,99.58-6.38,175.63-13.67,45.16-4.31,87.82,13,124.75,4.88M0,181c173.19-49.69,122,1,218.41-29.08,195.25-60.86,244.37,147.26,295.71-44.05,16.64-62,61.71-55,186-4.62,84.22,34.18,101.31.42,177.16-2.84,45.44-2,87,13.13,122.77,6M0,185.83c168.63-47.65,119.05-7.91,215.34-39.26C415,81.63,466.81,308.66,519.08,109.24,535.38,47,581.5,53.88,700.49,97.05c87.23,31.66,103,7.37,178.73,8,45.64.4,86.17,13.5,120.78,7.12M0,190.68c164.09-45.64,116.1-16.9,212.28-49.44,204-69.05,258.55,176.88,311.76-30.67C540,48.12,587.36,54.67,701,90.84c90.31,28.77,104.71,14.4,180.25,18.85,45.7,2.67,85.27,14,118.8,8.22M0,195.53c159.53-43.66,113.13-25.88,209.22-59.64,208.35-73.2,265.69,191.7,319.78-24,15.7-62.67,64.46-56.75,172.4-27.3,93.43,25.52,106.36,21.55,181.79,29.68,45.61,4.91,84.3,14.66,116.81,9.41M0,200.34c155-41.61,110.15-34.86,206.16-69.78C418.82,53.17,479,337.06,534,113.29c15.45-62.93,65.79-57.94,167.87-34.86,96.6,21.85,107.94,28.77,183.34,40.5,45.41,7.06,83.26,15.51,114.83,10.63M0,205.19c150.43-39.6,107.17-43.93,203.1-80,217-81.55,280,221.33,335.79-10.57,15.2-63.13,67.35-59.5,163.39-42.41C802,90,811.73,108.3,887.16,123.55c45.1,9.13,82.17,16.47,112.84,11.88M0,210c145.9-37.56,104.14-53,200-90.14C421.31,34.06,487.19,356,543.85,116c15-63.39,69-61.54,158.88-50,102.79,13.27,110.9,43.46,186.41,62.16,44.67,11.09,81,17.55,110.86,13.21M0,214.86c141.33-35.55,101.11-62.08,197-100.35,225.55-90,294.38,251,351.86,2.81,14.74-63.58,70.81-64,154.35-57.49,105.76,8.25,112.25,50.86,188,73,44.17,12.92,79.77,18.73,108.88,14.59M0,219.71c136.8-33.54,98.05-71.21,193.89-110.53,229.8-94.33,301.57,265.78,359.88,9.5,14.52-63.84,72.63-67.07,149.84-65.06,108.51,2.81,113.53,58.31,189.5,83.82,43.54,14.6,78.49,20,106.89,16M0,224.52C132.23,193,95,144.22,190.83,103.83,424.88,5.24,499.6,384.43,558.73,120,573.05,56,633.09,49.37,704.07,47.42c111.06-3.12,114.71,65.76,191,94.64C938,158.28,972.25,163.35,1000,159.55M0,229.37C127.7,199.86,91.9,139.88,187.76,98.5,426-4.43,503.77,393.89,563.69,121.37c14.12-64.29,75.92-74.78,140.8-80.16,113.33-9.44,115.85,73.25,192.59,105.48,42.12,17.68,75.77,22.62,102.92,19M0,234.19c123.16-27.47,88.78-98.62,184.7-141C427.18-14.1,507.94,403.36,568.63,122.73c14-64.54,77.18-79.45,136.31-87.73C820.2,18.81,821.85,115.76,899.06,151.31c41.3,19,74.35,24,100.94,20.6M0,239C118.6,213.58,85.63,131.21,181.64,87.78c246.67-111.57,330.49,325,392,36.31,13.8-64.8,77.89-84.58,131.81-95.3C822.21,5.55,823.26,117,901.05,155.93c40.47,20.24,72.87,25.39,99,22.19M0,243.89c114.06-23.45,82.49-117,178.58-161.44,250.84-115.94,337.72,339.88,400,43,13.63-65,77.89-90,127.27-102.85,118-30.61,118.8,95.7,197.21,138,39.57,21.32,71.38,26.74,97,23.82" fill="none" stroke-width="0.2" stroke-miterlimit="10" enable-background="new" /></svg>