<svg class="thz-svg-shape thz-svg-clouds-multiple" xmlns="http://www.w3.org/2000/svg" viewBox="0 0 1000 250" preserveAspectRatio="none">
    <path style="opacity:0.2;" d="M981.5,207.6c-4.9-13.6-16.8-15.7-23.1-15.7c-4.4,0-8.6,1.3-12,3.6c-3.4-14.8-16.7-25.9-32.6-25.9  c-11.1,0-21,5.4-27.1,13.8C883,171,871.6,162,858,162c-16.2,0-29.4,12.9-29.9,28.9c-3.6-2.6-8.1-4.2-12.9-4.2  c-8.5,0-15.9,4.9-19.6,11.9c-6.1-7.3-15.3-11.9-25.6-11.9c-4.2,0-8.3,0.8-12,2.2c0.4-1.6,0.6-3.2,0.6-4.9c0-12.2-9.9-22-22-22  c-9.3,0-17.2,5.7-20.4,13.8c-6.1-8.4-39.8-18.8-49.4,13.4c-21.7-0.5-29.2,11.5-26.9,24.3c-3.6-6.5-10.5-10.9-18.5-10.9  c-6.1,0-11.6,2.6-15.5,6.7c-5.8-14.7-20.1-25.1-36.8-25.1c-21.3,0-38.6,16.8-39.5,37.9c-1.3-0.3-2.6-0.4-3.9-0.4  c-6.1,0-11.5,3.1-14.7,7.9c-3.4-11.4-14-19.7-26.5-19.7c-9,0-17,4.3-22.1,11c-3.2-13.7-15.5-23.9-30.2-23.9  c-15.6,0-28.4,11.5-30.6,26.4c-3.2-4.4-8.4-7.2-14.2-7.2c-4.9,0-9.3,2-12.5,5.2c-8.9-32.3-36.4-26.9-41.4-18.5c0.1,0.4,0,0,0,0  c-3.6-1.6-7.5-2.5-11.7-2.5c-7.2,0-13.8,2.7-18.8,7.1c-4.3-17.3-20-30.1-38.6-30.1c-8.9,0-17.1,2.9-23.7,7.8c0-0.6,0.1-1.3,0.1-1.9  c0-15.6-12.7-28.3-28.3-28.3S184,167.8,184,183.4c0,3.1,0.5,6.1,1.4,8.9c-4.8-3.9-11-6.2-17.6-6.2c-10.5,0-19.7,5.7-24.6,14.2  c-3.4-3.1-8-5.1-13-5.1c-4.6,0-8.7,1.6-12,4.3c-5-8-13.9-13.4-24-13.4c-13.5,0-24.8,9.5-27.6,22.2c-7.3-8.9-18.4-14.6-30.8-14.6  c-15.7,0-29.3,9.1-35.8,22.3v20.4c6.5-13.2,20.1-22.3,35.8-22.3c12.4,0,23.5,5.7,30.8,14.6c2.6-11.7,12.4-20.7,24.5-22  c1-0.1,2-0.2,3.1-0.2c10.2,0,19.1,5.4,24,13.4c3.3-2.7,7.5-4.3,12-4.3c5,0,9.5,1.9,13,5.1c4.9-8.5,14.1-14.2,24.6-14.2  c2.2,0,4.4,0.3,6.5,0.8c4.1,1,7.9,2.8,11.1,5.4c-0.8-2.5-1.3-5.3-1.4-8.1c0-0.3,0-0.5,0-0.8c0-15.6,12.7-28.3,28.3-28.3  c15.6,0,28.3,12.7,28.3,28.3c0,0.6,0,1.3-0.1,1.9c6.6-4.9,14.8-7.8,23.7-7.8c18.6,0,34.2,12.7,38.6,30c0,0,0,0.1,0,0.1  c5-4.4,11.6-7.1,18.8-7.1c4.2,0,8.1,0.9,11.7,2.5c0,0,0.1,0.4,0,0c0.9-1.5,2.6-3,4.7-4.1c8.9-4.7,26.5-4,34.8,17  c0.7,1.7,1.3,3.6,1.9,5.5c1.4-1.4,3.1-2.6,5-3.5c1.8-0.8,3.7-1.4,5.7-1.6c0.6-0.1,1.3-0.1,1.9-0.1c5.8,0,11,2.8,14.2,7.2  c1.7-11.3,9.4-20.6,19.9-24.5c3.4-1.2,7-1.9,10.8-1.9c8,0,15.4,3.1,20.9,8.1c4.5,4.1,7.8,9.6,9.3,15.8c5.1-6.7,13.1-11,22.1-11  c12.5,0,23.1,8.3,26.5,19.7c3.2-4.7,8.6-7.9,14.7-7.9c1.4,0,2.7,0.2,3.9,0.4c0.8-21.1,18.2-37.9,39.5-37.9c1.9,0,3.7,0.1,5.5,0.4  c3,0.4,5.8,1.2,8.5,2.2c10.4,4,18.7,12.2,22.8,22.6c3.9-4.1,9.4-6.7,15.5-6.7c8,0,14.9,4.4,18.5,10.9c-2.3-12.7,5.2-24.8,26.9-24.3  c0.3-1.1,0.7-2.2,1.1-3.3c10.8-28.2,42.5-18.3,48.3-10.2c3.2-8.1,11.2-13.8,20.4-13.8c12.2,0,22,9.9,22,22c0,1.7-0.2,3.3-0.6,4.9  c3.7-1.4,7.8-2.2,12-2.2c7.5,0,14.5,2.5,20.1,6.7c2,1.5,3.9,3.3,5.6,5.3c1.4-2.8,3.4-5.2,5.8-7.1c3.8-3,8.6-4.9,13.8-4.9  c0.1,0,0.2,0,0.3,0c4.7,0.1,9.1,1.6,12.7,4.2c0.3-8.3,3.9-15.7,9.6-20.9c5.3-5,12.5-8,20.3-8c8.2,0,15.7,3.3,21.1,8.7  c3.5,3.5,6.2,7.8,7.6,12.7c6.1-8.4,15.9-13.8,27.1-13.8c2.9,0,5.6,0.4,8.3,1c8.8,2.2,16.2,8,20.7,15.7c1.6,2.8,2.9,5.9,3.6,9.2  c3.4-2.2,7.4-3.5,11.8-3.6c0.1,0,0.2,0,0.3,0c2.4,0,5.7,0.3,9.1,1.5c5.4,1.8,11,5.8,14,14.2c5.4-5.4,18.5-3.3,18.5,8.5  c0-10.7,0-22.7,0-27.8C1000,201.9,987,197.6,981.5,207.6z" />
    <path style="opacity:0.4;" d="M879.1,191.1c5.4-5.6,13.1-9.1,21.5-9.1c8.4,0,16,3.5,21.4,9.1c-2.6-0.7-5.4-1-8.3-1c-11.1,0-21,5.4-27.1,13.8  C885.3,198.9,882.6,194.6,879.1,191.1z M958.1,212.3c-3.9-3.5-9-5.6-14.7-5.6c-0.2,0-0.5,0-0.7,0c1.6,2.8,2.9,5.9,3.6,9.2  C949.7,213.7,953.8,212.4,958.1,212.3z M795.6,219c1.4-2.8,3.4-5.2,5.8-7.1c-0.4,0-0.8,0-1.2,0c-2.7,0-6.4,0.4-10.2,1.9  C792.1,215.3,794,217.1,795.6,219z M837.7,190.4c-9.6,2.1-17.7,8.3-22.2,16.7c4.7,0.1,9.1,1.6,12.7,4.2  C828.4,203,832,195.6,837.7,190.4z M321.7,220.9c4.2,0,8.1,0.9,11.7,2.5V243c0,0,0.1-19.1,0-19.6c0.9-1.5,2.6-3,4.7-4.1  c-3.6-1.5-7.5-2.3-11.7-2.3c-9.4,0-17.9,4.2-23.6,10.9c0,0,0,0.1,0,0.1C307.9,223.6,314.5,220.9,321.7,220.9z M184,204.7  c-3.4,0.5-6.7,1.4-9.7,2.7c4.1,1,7.9,2.8,11.1,5.4C184.6,210.2,184.1,207.5,184,204.7z M605.9,229.8c3.9-4.1,9.4-6.7,15.5-6.7  c8,0,14.9,4.4,18.5,10.9c-2.3-12.7,5.2-24.8,26.9-24.3c0.3-1.1,0.7-2.2,1.1-3.3c-1.1-0.1-2.2-0.2-3.4-0.2c-10.2,0-19.1,5.4-24,13.4  c-3.3-2.7-7.5-4.3-12-4.3c-5,0-9.5,1.9-13,5.1c-4.9-8.5-14.1-14.2-24.6-14.2c-2.7,0-5.3,0.4-7.8,1.1  C593.5,211.2,601.8,219.4,605.9,229.8z M984.7,206.9c-7.8,0-12.7,2.5-17.3,6.9c5.4,1.8,11,5.8,14,14.2c5.4-5.4,18.5-3.3,18.5,8.5  V216C1000,211,988.7,206.9,984.7,206.9z M35.8,214.2c12.4,0,23.5,5.7,30.8,14.6c2.6-11.7,12.4-20.7,24.5-22  c-10.5-29.2-42.7-19.1-48.6-10.9c-3.2-8.1-11.2-13.8-20.4-13.8c-12.2,0-22,9.9-22,22c0,1.7,0.2,3.3,0.6,4.9  c-0.2-0.1-0.4-0.1-0.6-0.2v27.8C6.5,223.2,20.1,214.2,35.8,214.2z M462.3,241.3c5.1-6.7,13.1-11,22.1-11c12.5,0,23.1,8.3,26.5,19.7  c3.2-4.7,8.6-7.9,14.7-7.9c1.4,0,2.7,0.2,3.9,0.4c0.8-21.1,18.2-37.9,39.5-37.9c1.9,0,3.7,0.1,5.5,0.4c0-0.5,0.1-1.1,0.1-1.6  c0-15.6-12.7-28.3-28.3-28.3S518,187.8,518,203.5c0,0.6,0,1.3,0.1,1.9c-6.6-4.9-14.8-7.8-23.7-7.8c-18.6,0-34.3,12.8-38.6,30.1  c-0.8-0.7-1.7-1.4-2.7-2.1C457.6,229.7,460.9,235.1,462.3,241.3z M401.5,243.8c1.7-11.3,9.4-20.6,19.9-24.5  c-8.7-5.2-27.5-5.1-36,17.4c0.6-0.1,1.3-0.1,1.9-0.1C393.1,236.6,398.3,239.5,401.5,243.8z M379.7,238.3c-2.1-1.1-4.4-1.8-6.8-2.1  c0.7,1.7,1.3,3.6,1.9,5.5C376.2,240.4,377.9,239.2,379.7,238.3z" />
    <path d="M981.5,221.5c-3-8.4-8.7-12.4-14-14.2c-3.4-1.2-6.7-1.5-9.1-1.5c-0.1,0-0.2,0-0.3,0c-4.3,0-8.4,1.4-11.8,3.6  c-0.8-3.3-2-6.4-3.6-9.2c-4.5-7.7-11.9-13.4-20.7-15.7c-2.6-0.7-5.4-1-8.3-1c-11.1,0-21,5.4-27.1,13.8c-1.4-4.9-4.1-9.2-7.6-12.7  c-5.4-5.4-12.8-8.7-21.1-8.7c-7.9,0-15,3-20.3,8c-5.7,5.3-9.3,12.7-9.6,20.9c-3.6-2.6-7.9-4.1-12.7-4.2c-0.1,0-0.2,0-0.3,0  c-5.2,0-10,1.8-13.8,4.9c-2.4,1.9-4.4,4.3-5.8,7.1c-1.6-2-3.5-3.7-5.6-5.3c-5.6-4.2-12.5-6.7-20.1-6.7c-4.2,0-8.3,0.8-12,2.2  c0.4-1.6,0.6-3.2,0.6-4.9c0-12.2-9.9-22-22-22c-9.3,0-17.2,5.7-20.4,13.8c-5.9-8.1-37.5-18-48.3,10.2c-0.4,1-0.8,2.1-1.1,3.3  c-21.7-0.5-29.2,11.5-26.9,24.3c-3.6-6.5-10.5-10.9-18.5-10.9c-6.1,0-11.6,2.6-15.5,6.7c-4.1-10.4-12.4-18.6-22.8-22.6  c-2.7-1-5.6-1.8-8.5-2.2c-1.8-0.3-3.6-0.4-5.5-0.4c-21.3,0-38.6,16.8-39.5,37.9c-1.3-0.3-2.6-0.4-3.9-0.4c-6.1,0-11.5,3.1-14.7,7.9  c-3.4-11.4-14-19.7-26.5-19.7c-9,0-17,4.3-22.1,11c-1.5-6.2-4.8-11.6-9.3-15.8c-5.5-5-12.8-8.1-20.9-8.1c-3.8,0-7.4,0.7-10.8,1.9  c-10.4,3.9-18.2,13.2-19.9,24.5c-3.2-4.4-8.4-7.2-14.2-7.2c-0.6,0-1.3,0-1.9,0.1c-2,0.2-3.9,0.8-5.7,1.6c-1.8,0.9-3.5,2.1-5,3.5  c-0.5-2-1.2-3.8-1.9-5.5c-8.4-21-25.9-21.7-34.8-17c-2.2,1.1-3.8,2.6-4.7,4.1c0.1,0.4,0,0,0,0c-3.6-1.6-7.5-2.5-11.7-2.5  c-7.2,0-13.8,2.7-18.8,7.1c0,0,0-0.1,0-0.1c-4.4-17.2-20-30-38.6-30c-8.9,0-17.1,2.9-23.7,7.8c0-0.6,0.1-1.3,0.1-1.9  c0-15.6-12.7-28.3-28.3-28.3c-15.6,0-28.3,12.7-28.3,28.3c0,0.3,0,0.5,0,0.8c0.1,2.8,0.5,5.5,1.4,8.1c-3.2-2.6-7-4.4-11.1-5.4  c-2.1-0.5-4.3-0.8-6.5-0.8c-10.5,0-19.7,5.7-24.6,14.2c-3.4-3.1-8-5.1-13-5.1c-4.6,0-8.7,1.6-12,4.3c-5-8-13.9-13.4-24-13.4  c-1,0-2.1,0.1-3.1,0.2c-12.1,1.3-22,10.3-24.5,22c-7.3-8.9-18.4-14.6-30.8-14.6c-15.7,0-29.3,9.1-35.8,22.3v20h333.3h333.3H1000  c0-2,0-11.1,0-20C1000,218.3,986.9,216.1,981.5,221.5z" />
</svg>