<svg class="thz-svg-shape thz-svg-clouds" xmlns="http://www.w3.org/2000/svg" viewBox="0 0 1000 250" preserveAspectRatio="none">
    <path d="M1000,209.6c0-11.7-13.1-13.9-18.5-8.5c-4.9-13.6-16.8-15.7-23.1-15.7c-4.4,0-8.6,1.3-12,3.6c-3.4-14.8-16.7-25.9-32.6-25.9  c-11.1,0-21,5.4-27.1,13.8c-3.7-12.4-15.1-21.4-28.7-21.4c-16.2,0-29.4,12.9-29.9,28.9c-3.6-2.6-8.1-4.2-12.9-4.2  c-8.5,0-15.9,4.9-19.6,11.9c-6.1-7.3-15.3-11.9-25.6-11.9c-4.2,0-8.3,0.8-12,2.2c0.4-1.6,0.6-3.2,0.6-4.9c0-12.2-9.9-22-22-22  c-9.3,0-17.2,5.7-20.4,13.8c-6.1-8.4-39.8-18.8-49.4,13.4c-21.7-0.5-29.2,11.5-26.9,24.3c-3.6-6.5-10.5-10.9-18.5-10.9  c-6.1,0-11.6,2.6-15.5,6.7c-5.8-14.7-20.1-25.1-36.8-25.1c-21.3,0-38.6,16.8-39.5,37.9c-1.3-0.3-2.6-0.4-3.9-0.4  c-6.1,0-11.5,3.1-14.7,7.9c-3.4-11.4-14-19.7-26.5-19.7c-9,0-17,4.3-22.1,11c-3.2-13.7-15.5-23.9-30.2-23.9  c-15.6,0-28.4,11.5-30.6,26.4c-3.2-4.4-8.4-7.2-14.2-7.2c-4.9,0-9.3,2-12.5,5.2c-8.9-32.3-36.4-26.9-41.4-18.5  c0.1,0.4,0,19.6,0,19.6v-19.6c-3.6-1.6-7.5-2.5-11.7-2.5c-7.2,0-13.8,2.7-18.8,7.1c-4.4-17.3-20-30.1-38.6-30.1  c-8.9,0-17.1,2.9-23.7,7.8c0-0.6,0.1-1.3,0.1-1.9c0-15.6-12.7-28.3-28.3-28.3c-15.6,0-28.3,12.7-28.3,28.3c0,3.1,0.5,6.1,1.4,8.9  c-4.8-3.9-11-6.2-17.6-6.2c-10.5,0-19.7,5.7-24.6,14.2c-3.4-3.1-8-5.1-13-5.1c-4.6,0-8.7,1.6-12,4.3c-5-8-13.9-13.4-24-13.4  c-13.5,0-24.8,9.5-27.6,22.2c-7.3-8.9-18.4-14.6-30.8-14.6c-15.7,0-29.3,9.1-35.8,22.3V250h333.3h333.3H1000  C1000,250,1000,219.7,1000,209.6z" />
</svg>