<svg class="thz-svg-shape thz-svg-drops" xmlns="http://www.w3.org/2000/svg" viewBox="0 0 1000 250" preserveAspectRatio="none">
    <path d="M457.1,174c1.8-2.7,6.3-5.2,9.2-2.5c3.2,3-2.6,5.8-3.8,8.3c-0.6,1.2-0.5,2.1-0.2,3.3c0.8,3.3-2.4,3.9-4.5,2.5c0,0,0,0-0.1,0  C454.3,183.5,455.3,176.7,457.1,174z M460.8,165c1.6-0.2,3.2-1,4-2.4c1.1-2,0-4.6-2.2-5.3c-2-0.6-4.2,0.7-4.8,2.8  C457.2,162.3,458.8,164.3,460.8,165z M425.4,117.5c1.1,1.2,2.7,1.8,3.5,3.2c0.3,0.5,0.4,1.1,0.5,1.7c0,0.8,0.2,2,1.1,2.3  c0.3,0.1,0.9-0.2,1.4-0.5c0.9-2.4,2.1-5.4-0.1-7.6c-0.8-0.8-1.9-1.4-2.9-1.9c-0.7-0.4-1.5-0.9-2.4-0.7c-0.9-0.2-1.3,0.2-1.2,1.3  C424.5,116.2,424.6,116.9,425.4,117.5z M407.7,126.7c0.9-4.7,5.9-6.7,10.2-5.3c4.4,1.5,6.9,6.1,5.7,10.5c-1.3,4.6-5.9,6.5-10.3,5.4  c-0.4-0.1-0.6,0.1-0.6,0.4C408.8,135.8,407,130.8,407.7,126.7z M419.2,131.6c0.4-1.2,0.9-2.4,1.3-3.5c0.1-0.4-0.5-0.5-0.6-0.2  c-0.4,1.2-0.8,2.4-1.2,3.6C418.6,131.7,419.1,131.8,419.2,131.6z M419,134.4c1.8-1.1,3.6-3.6,3.1-5.8c-0.1-0.3-0.5-0.3-0.6,0  c-0.3,1-0.3,2-0.8,3c-0.5,1-1.2,1.7-2,2.4C418.5,134.2,418.8,134.6,419,134.4z M407.4,215.4c0.1-0.2,0.3-0.3,0.5-0.3  c2.6,0.5,4.8-1.7,4.5-4.3c-0.3-2.4-2.8-4.2-5.1-4.4c-2.8-0.3-4.3,2-3.6,4.6C404.2,212.9,405.8,214.2,407.4,215.4z M399.8,202.9  c0.2,0,0.3,0.1,0.3,0.2c2.1-0.5,2.2-3.8-0.2-3.8c-0.9,0-1.8,0.6-1.8,1.6C398.1,201.8,398.8,202.8,399.8,202.9z M500,250H0v-31.3  c0,0,5.9-1,10.6,1.4c3.9,2,8.6,2.8,12.9,1.8c4.2-1,7.6-3.7,9.1-7.7c2.2-5.9,0.3-13.1-0.8-19.1c-1.2-6.7-3.1-13.2-4.1-19.9  c-1-6.6-0.9-13.9,3.8-19.2c8.1-9.2,22.8-7.5,30.2,1.6c3.9,4.8,4.6,10.7,3,16.5c-1.8,6.2-5.4,11.5-7.9,17.4  c-4.3,10.2-4.2,22.6,2.7,31.7c6.1,7.9,17.6,11.9,27,8c5.8-2.4,9.7-7.6,15.1-10.8c3.1-1.8,6.8-3.1,10.4-2.1c2.6,0.7,4.8,2.4,7,4  c2,1.4,4,2.8,6.4,3.3c2.5,0.5,4.6-0.3,6.8-1.3c1.7-0.7,3.3-1.5,5.2-1.2c1.4,0.2,2.7,0.8,4,1.4c2,1,4.1,2.3,6.4,2.6  c4.5,0.6,7.1-3.4,7.4-7.5c0.4-6.1-4.7-11.5-3.3-17.6c1.7-7.3,11.5-8.5,15.5-2.5c3.4,5.1-0.2,11.3-1.7,16.4c-1.2,4.2-1.1,9,2.8,11.8  c3.7,2.6,8.9,2.3,12.5-0.3c10.7-7.7,5.3-23.6,3.1-34c-0.8-3.6-1.5-7.3-2.3-10.9c-0.5-2.2-0.9-4.5-1.1-6.7c-0.1-1.2-0.1-2.5-0.1-3.7  c0.4-5.9,4.1-10.4,9.7-12c4.8-1.4,10.2-0.4,13.7,3.4c3.9,4.4,4.5,10.7,3.7,16.4c-0.9,6.1-3.6,11.7-6,17.3c-2.3,5.6-4.9,12-4.2,18.1  c0.4,3.5,3,8.4,7.3,7.2c3.6-1,4.4-5.6,6.3-8.2c3.7-5,7.3,1.8,9.6,4.4c1.3,1.4,3,2.4,5,2.3c3-0.1,5.6-1.8,8.6-2.1  c5.5-0.5,10.5,2.6,15,5.3c4.4,2.7,8.9,5.6,14.1,6.7c13,2.7,27.5-8.7,39.6-0.6c0.1,0.1,0.2,0.1,0.3,0.1c0.1,0.1,0.2,0.3,0.3,0.4  c1.6,2.1,3.9,3.4,6.6,3.6c3.4,0.2,6.8-1.9,8.3-4.9c1.9-3.7,1.6-8.7,1.1-12.7c-0.9-7.2-5.9-15.5-3.8-22.8c0.4-1.3,0.9-2.5,1.8-3.7  c2.7-3.7,7.5-4.6,11-1.4c3.1,2.9,4.1,7.3,3.5,11.3c-1.3,8.5-9,17.2-5.7,26.1c1.1,2.9,3.5,5.5,6.7,5.9c2.8,0.4,6-1.3,7-4  c0.6-1.6,0.3-3.2-0.3-4.7c-0.7-1.9-2.3-4.3-1.2-6.3c1.3-2.4,4.7-2.4,6.5-0.6c1.9,1.9,1.8,4.4,1.6,6.9c-0.1,1.2-0.1,2.3,0.1,3.3  c0.4,2.1,1.6,3.7,4.2,4.3c3.7,0.8,6.8-1.5,9.6-3.7c3.7-2.9,8.1-5.9,13-5.8c4.3,0.1,7.4,4.2,11.7,3.9c2.1-0.1,4-1.2,5.8-2.2  c2.1-1.2,4.4-2.3,6.8-2.7c2.9-0.5,5,0.5,7.6,1.6c1.4,0.6,2.8,0.9,4.4,0.7c8.7-1,10.7-11.6,10.9-18.8c0.2-9-2.4-17.9-4.9-26.5  c-1.3-4.5-2.6-9.1-3.6-13.7c-0.5-2.5-1-5.1-1.2-7.6c-0.2-2.3-0.4-4.9,0.9-7c1.4-2.3,4.4-3.6,6.8-4.4c2.4-0.8,4.9-1.2,7.4-0.8  c4.2,0.8,7.4,4,9.2,7.6c4.7,9.3,0.5,20.1-2,29.4c-1.4,5.2-2.8,10.3-4.2,15.5c-1.2,4.4-2.6,9-2.2,13.6c0.3,3.6,1.8,6.8,4.7,9  c2.3,1.7,5.4,2.6,8.2,1.7c8.1-2.8,4-13.1,2.3-18.5c-1.5-4.8-1.5-10.8,4.1-12.9c5.3-1.9,9.8,2.5,10.3,7.5c0.6,7-4.6,18.5,4.3,22.4  c3.9,1.7,8.9-3.9,12.6-3.9c6.5,0,12.6,12.4,22.5,12.4 M49.8,153.4c9.2,1.5,13.7,10.8,11.5,19.4c-0.1,0.6,0.7,0.8,0.9,0.2  c1.2-4.7,0.9-9.8-1.8-14c-2.4-3.7-6.2-6.1-10.6-6.2C49.6,152.8,49.5,153.4,49.8,153.4z M43.2,155c4.9-0.1,8.4,2,11.9,5.2  c0.4,0.4,1.1-0.1,0.8-0.6c-2.6-4-8-5.8-12.6-5.3C42.8,154.4,42.8,155,43.2,155z M158.6,197.8c2.9-0.1,5.2,1.7,6.3,4.4  c0.2,0.5,0.9,0.1,0.8-0.3c-1-3-4.1-4.8-7.1-4.6C158.3,197.3,158.3,197.8,158.6,197.8z M164.3,204.7c0-1.6-1.5-3.1-2.9-3.6  c-0.3-0.1-0.4,0.3-0.2,0.5c0.6,0.4,1.1,0.8,1.5,1.4c0.4,0.6,0.5,1.2,0.7,1.8C163.6,205.2,164.3,205.2,164.3,204.7z M191.8,163.8  c0.4-0.1,0.4-0.8-0.1-0.8c-4.4-0.1-8.5,4.5-9.1,8.6c0,0.2,0.3,0.3,0.3,0.1c0.7-2,1.7-3.8,3.4-5.2C187.9,165,189.7,164.5,191.8,163.8  z M194.8,164.2c-2.6,0.1-5.2,1.8-6.2,4.2c-0.1,0.2,0.2,0.4,0.4,0.2c1.4-2.1,3.3-3.3,5.9-3.6C195.3,164.9,195.3,164.2,194.8,164.2z   M267.3,232.9c-3.6-0.1-6.9-0.8-10.2-2.2c-0.3-0.1-0.6,0.3-0.3,0.5c3.3,1.6,6.8,2.6,10.5,2.7C267.9,233.9,267.9,233,267.3,232.9z   M322.4,189.2c0.4-0.2,0.1-0.8-0.3-0.7c-3,0.5-4.9,4-5,6.7c0,0.2,0.4,0.3,0.4,0.1c0.2-1.4,0.8-2.7,1.8-3.8  C320.2,190.4,321.3,189.9,322.4,189.2z M324.7,190.1c-2.1-0.4-4.2,1-4.8,2.9c-0.1,0.2,0.3,0.4,0.4,0.2c0.8-1.8,2.5-2.5,4.3-2.3  C325,191,325.1,190.2,324.7,190.1z M417.4,147.8c0.4-0.2,0.3-0.8-0.2-0.7c-2.7,0.6-4.4,3.6-4,6.3c0,0.2,0.3,0.2,0.3,0  C413.3,150.7,415,148.7,417.4,147.8z M421.3,147.5c-2.4,0.2-4.6,1.7-5.9,3.6c-0.2,0.3,0.2,0.6,0.4,0.3c1.5-1.8,3.3-2.8,5.6-3.2  C421.9,148.2,421.8,147.5,421.3,147.5z M448.4,192.4c0.4,0,0.5-0.6,0.1-0.7c-2.6-0.4-5.1,1.6-5.7,4.1c-0.1,0.4,0.5,0.5,0.6,0.2  C444.1,193.7,446,192.5,448.4,192.4z M451.2,193.6c-1.8,0-3.5,0.7-4.7,2c-0.3,0.3,0.1,0.7,0.4,0.4c1.2-1.1,2.7-1.6,4.3-1.5  C451.8,194.6,451.8,193.6,451.2,193.6z M346.5,210.3c1.7,0.1,3.9-0.1,4.5-2c0.5-1.6-0.5-3.5-2.2-3.8c-1.5-0.2-3.1,0.7-3.5,2.2  C344.9,208,345.5,209.4,346.5,210.3z M328.9,178c0.7-1.6,2.5-2.3,2.8-4.1c0.4-2.2-0.2-4.2,1.3-6.2c1.5-2.1,4.2-3.3,6.7-2.6  c2.5,0.7,4.5,2.8,4.9,5.4c0.4,2.5-0.8,5.1-2.1,7.2c-2.2,3.4-5.4,5.6-9.1,7c-0.1-0.2-0.2-0.4-0.5-0.4C329.8,184,327.5,181,328.9,178z   M341.6,169.5c0.8,2.2,0.6,4.3-0.8,6.2c-0.1,0.1,0.1,0.3,0.3,0.2c1.6-1.9,2.1-4.4,1.2-6.7C342.1,168.8,341.5,169.1,341.6,169.5z   M339.8,169.4c0.1,0.6,0.3,1.1,0.4,1.7c0.1,0.6,0.1,1.2,0.1,1.8c0,0.3,0.4,0.3,0.5,0.1c0.2-1.2,0.3-2.7-0.3-3.8  C340.2,168.7,339.7,169,339.8,169.4z M334.7,159.2c-0.2-0.4,0.4-0.9,0.9-0.5c1.3,1,3.4,0.2,3.9-1.3c0.5-1.7-0.9-3.5-2.5-3.9  c-1.4-0.4-3.1,0.3-3.9,1.6C332.2,156.6,333.1,158.5,334.7,159.2z M294,220.3c0.2-0.2,0.4-0.3,0.6,0c0,0,0.1,0.1,0.1,0.1  c0,0,0.1,0,0.1,0.1c1,0.8,2.3,0.2,2.6-1.1c0.2-1.2-0.5-2.4-1.6-3c-1.1-0.6-2.5-0.2-3.2,0.9C291.9,218.6,292.8,220,294,220.3z   M222.2,205.2c1-1.2,0.6-3.2-0.8-3.9c-1.4-0.7-3.4,0.1-4,1.6c-0.5,1.3,0,2.6,0.9,3.6C219.7,206.3,221.4,206.3,222.2,205.2z   M213.5,199.3c0-0.1,0.1-0.2,0.3-0.2c0.4-0.1,1.2-0.2,1.5-0.4c0.3-0.2,0.3-0.6,0.2-1c-0.2-0.7-0.8-1.4-1.6-1.4  C212.5,196.4,212.5,198.7,213.5,199.3z M147.4,159.8c1-3.4,5-4.1,8-4.5c2.3,0.7,4.5,1.4,6.6,2.8c3,2,5.3,4.9,6.7,8.2  c1.2,3,1.7,6.5,1.2,9.6c-0.3,1.8-1.1,4-3.1,4.4c-0.7,0.2-1.8,0-2.3-0.6c-0.3-0.3-0.4-0.7-0.5-1.1c-0.1-0.8,0.1-1.8,0.1-2.5  c-0.8-6.2-9.7-4.6-13.4-7.6C148.2,166.7,146.4,163,147.4,159.8z M152.3,163.3c0,0.3,0.5,0.4,0.6,0.1c0.2-1.4,1.5-2.4,2.9-2.3  c0.7,0.1,0.6-0.9,0-1C154,159.9,152.3,161.5,152.3,163.3z M150.2,164.6c0.1,0.2,0.5,0.1,0.4-0.2c-0.3-1.1-0.3-2.3,0.2-3.4  c0.5-1.1,1.4-1.5,2.3-2.1c0.3-0.2,0.2-0.9-0.2-0.8C150.2,158.4,148.9,162.3,150.2,164.6z M155.7,148.8c1.8-2.8,7.6-5.6,3.5-8.9  c-2.5-2-5.6-0.1-6.3,2.7C152.3,145.2,153.8,147.4,155.7,148.8z M149.6,193c0.1,0.1,0.2,0.2,0.2,0.3c1,0.1,2-0.7,2.3-1.7  c0.2-1-0.6-1.8-1.6-2C148.4,189,147.8,192.1,149.6,193z M114.7,197.9c0.6,0.4,1,0.7,1.8,0.6c0.6-0.1,1.2-0.5,1.5-1  c0.7-1,0.1-2.2-1-2.7c-1.1-0.5-2.3-0.1-2.7,1c-0.2,0.6-0.2,1.4,0.2,2C114.6,197.9,114.6,197.9,114.7,197.9z M106.6,210.2  c2.4-0.1,5.4-0.4,7-2.3c2.5-2.8-0.9-6.2-3.8-6.3c-2.2-0.1-4.5,1.1-5.1,3.3C104.1,206.9,104.9,209.1,106.6,210.2z M42.3,116.4  c1.1,1.3,3,1.9,4.5,0.8c1.5-1.1,1.6-3.5,0.4-4.8c-1.2-1.3-3.6-1.2-4.7,0.2c-0.9,1-1,2.5-0.5,3.7C42.1,116.2,42.2,116.3,42.3,116.4z   M26.7,133c-1.9-3.9-2.8-11.1,3.3-11.7c4.9-0.6,8.7,4.5,9.6,8.8c1,4.5-0.7,9-4.5,11.6C31.2,139.9,28.6,136.7,26.7,133z M31.9,124.8  c-1.6,0.2-3.1,1.4-3.4,3.1c0,0.2,0.3,0.4,0.4,0.2c0.6-1.3,1.7-2.3,3.1-2.4C32.7,125.6,32.6,124.7,31.9,124.8z M27.2,128.8  c0.1,0.2,0.4,0.1,0.3-0.1c-0.5-1.3-0.4-2.7,0.4-3.9c0.8-1.2,2-1.4,3.4-1.6c0.5,0,0.6-0.8,0.1-0.9C27.8,121.4,25.3,125.9,27.2,128.8z   M957.1,174c1.8-2.7,6.3-5.2,9.2-2.5c3.2,3-2.6,5.8-3.8,8.3c-0.6,1.2-0.5,2.1-0.2,3.3c0.8,3.3-2.4,3.9-4.5,2.5c0,0,0,0-0.1,0  C954.3,183.5,955.3,176.7,957.1,174z M960.8,165c1.6-0.2,3.2-1,4-2.4c1.1-2,0-4.6-2.2-5.3c-2-0.6-4.2,0.7-4.8,2.8  C957.2,162.3,958.8,164.3,960.8,165z M925.4,117.5c1.1,1.2,2.7,1.8,3.5,3.2c0.3,0.5,0.4,1.1,0.5,1.7c0,0.8,0.2,2,1.2,2.3  c0.3,0.1,0.9-0.2,1.4-0.5c0.9-2.4,2.1-5.4-0.1-7.6c-0.8-0.8-1.9-1.4-2.9-1.9c-0.7-0.4-1.5-0.9-2.4-0.7c-0.9-0.2-1.3,0.2-1.2,1.3  C924.5,116.2,924.6,116.9,925.4,117.5z M907.7,126.7c0.9-4.7,5.9-6.7,10.2-5.3c4.4,1.5,6.9,6.1,5.7,10.5c-1.3,4.6-5.9,6.5-10.3,5.4  c-0.4-0.1-0.6,0.1-0.6,0.4C908.8,135.8,907,130.8,907.7,126.7z M919.2,131.6c0.4-1.2,0.9-2.4,1.3-3.5c0.1-0.4-0.5-0.5-0.6-0.2  c-0.4,1.2-0.8,2.4-1.2,3.6C918.6,131.7,919.1,131.8,919.2,131.6z M919,134.4c1.8-1.1,3.6-3.6,3.1-5.8c-0.1-0.3-0.5-0.3-0.6,0  c-0.3,1-0.3,2-0.8,3c-0.5,1-1.2,1.7-2,2.4C918.5,134.2,918.8,134.6,919,134.4z M907.4,215.4c0.1-0.2,0.3-0.3,0.5-0.3  c2.6,0.5,4.8-1.7,4.5-4.3c-0.3-2.4-2.8-4.2-5.1-4.4c-2.8-0.3-4.3,2-3.6,4.6C904.2,212.9,905.8,214.2,907.4,215.4z M899.8,202.9  c0.2,0,0.3,0.1,0.3,0.2c2.1-0.5,2.2-3.8-0.2-3.8c-0.9,0-1.8,0.6-1.8,1.6C898.1,201.8,898.8,202.8,899.8,202.9z M495.8,228  c6.9,0,23.4-5,27.7-6c4.2-1,7.6-3.7,9.1-7.7c2.2-5.9,0.3-13.1-0.8-19.1c-1.2-6.7-3.1-13.2-4.1-19.9c-1-6.6-0.9-13.9,3.8-19.2  c8.1-9.2,22.8-7.5,30.2,1.6c3.9,4.8,4.6,10.7,3,16.5c-1.8,6.2-5.4,11.5-7.9,17.4c-4.3,10.2-4.2,22.6,2.7,31.7  c6.1,7.9,17.6,11.9,27,8c5.8-2.4,9.7-7.6,15.1-10.8c3.1-1.8,6.8-3.1,10.4-2.1c2.6,0.7,4.8,2.4,7,4c2,1.4,4,2.8,6.4,3.3  c2.5,0.5,4.6-0.3,6.8-1.3c1.7-0.7,3.3-1.5,5.2-1.2c1.4,0.2,2.7,0.8,4,1.4c2,1,4.1,2.3,6.4,2.6c4.5,0.6,7.1-3.4,7.4-7.5  c0.4-6.1-4.7-11.5-3.3-17.6c1.7-7.3,11.5-8.5,15.5-2.5c3.4,5.1-0.2,11.3-1.7,16.4c-1.2,4.2-1.1,9,2.8,11.8c3.7,2.6,8.9,2.3,12.5-0.3  c10.7-7.7,5.3-23.6,3.1-34c-0.8-3.6-1.5-7.3-2.3-10.9c-0.5-2.2-0.9-4.5-1.1-6.7c-0.1-1.2-0.1-2.5-0.1-3.7c0.4-5.9,4.1-10.4,9.7-12  c4.8-1.4,10.2-0.4,13.7,3.4c3.9,4.4,4.5,10.7,3.7,16.4c-0.9,6.1-3.6,11.7-6,17.3c-2.3,5.6-4.9,12-4.2,18.1c0.4,3.5,3,8.4,7.3,7.2  c3.6-1,4.4-5.6,6.3-8.2c3.7-5,7.3,1.8,9.6,4.4c1.3,1.4,3,2.4,5,2.3c3-0.1,5.6-1.8,8.6-2.1c5.5-0.5,10.5,2.6,15,5.3  c4.4,2.7,8.9,5.6,14.1,6.7c13,2.7,27.5-8.7,39.5-0.6c0.1,0.1,0.2,0.1,0.3,0.1c0.1,0.1,0.2,0.3,0.3,0.4c1.6,2.1,3.9,3.4,6.6,3.6  c3.4,0.2,6.8-1.9,8.3-4.9c1.9-3.7,1.6-8.7,1.1-12.7c-0.9-7.2-5.9-15.5-3.8-22.8c0.4-1.3,0.9-2.5,1.8-3.7c2.7-3.7,7.5-4.6,11-1.4  c3.1,2.9,4.1,7.3,3.5,11.3c-1.3,8.5-9,17.2-5.7,26.1c1.1,2.9,3.5,5.5,6.7,5.9c2.8,0.4,6-1.3,7-4c0.6-1.6,0.3-3.2-0.3-4.7  c-0.7-1.9-2.3-4.3-1.2-6.3c1.3-2.4,4.7-2.4,6.5-0.6c1.9,1.9,1.8,4.4,1.6,6.9c-0.1,1.2-0.1,2.3,0.1,3.3c0.4,2.1,1.6,3.7,4.2,4.3  c3.7,0.8,6.8-1.5,9.6-3.7c3.7-2.9,8.1-5.9,13-5.8c4.3,0.1,7.4,4.2,11.7,3.9c2.1-0.1,4-1.2,5.8-2.2c2.1-1.2,4.4-2.3,6.8-2.7  c2.9-0.5,5,0.5,7.6,1.6c1.4,0.6,2.8,0.9,4.4,0.7c8.7-1,10.7-11.6,10.9-18.8c0.2-9-2.4-17.9-4.9-26.5c-1.3-4.5-2.6-9.1-3.6-13.7  c-0.5-2.5-1-5.1-1.2-7.6c-0.2-2.3-0.4-4.9,0.9-7c1.4-2.3,4.4-3.6,6.8-4.4c2.4-0.8,4.9-1.2,7.4-0.8c4.2,0.8,7.4,4,9.2,7.6  c4.7,9.3,0.5,20.1-2,29.4c-1.4,5.2-2.8,10.3-4.2,15.5c-1.2,4.4-2.6,9-2.2,13.6c0.3,3.6,1.8,6.8,4.7,9c2.3,1.7,5.4,2.6,8.2,1.7  c8.1-2.8,4-13.1,2.3-18.5c-1.5-4.8-1.5-10.8,4.1-12.9c5.3-1.9,9.8,2.5,10.3,7.5c0.6,7-4.6,18.5,4.3,22.4c3.9,1.7,6.8-1.2,10.2-2.4  c4-1.5,29.1,1.7,29.1,1.7V250H500 M549.8,153.4c9.2,1.5,13.7,10.8,11.5,19.4c-0.1,0.6,0.7,0.8,0.9,0.2c1.2-4.7,0.9-9.8-1.8-14  c-2.4-3.7-6.2-6.1-10.6-6.2C549.6,152.8,549.5,153.4,549.8,153.4z M543.2,155c4.9-0.1,8.4,2,11.9,5.2c0.4,0.4,1.1-0.1,0.8-0.6  c-2.6-4-8-5.8-12.6-5.3C542.8,154.4,542.8,155,543.2,155z M658.6,197.8c2.9-0.1,5.2,1.7,6.3,4.4c0.2,0.5,0.9,0.1,0.8-0.3  c-1-3-4.1-4.8-7.1-4.6C658.3,197.3,658.3,197.8,658.6,197.8z M664.3,204.7c0-1.6-1.5-3.1-2.9-3.6c-0.3-0.1-0.4,0.3-0.2,0.5  c0.6,0.4,1.1,0.8,1.5,1.4c0.4,0.6,0.5,1.2,0.7,1.8C663.6,205.2,664.3,205.2,664.3,204.7z M691.8,163.8c0.4-0.1,0.4-0.8-0.1-0.8  c-4.4-0.1-8.5,4.5-9.1,8.6c0,0.2,0.3,0.3,0.3,0.1c0.7-2,1.7-3.8,3.4-5.2C687.9,165,689.7,164.5,691.8,163.8z M694.8,164.2  c-2.6,0.1-5.2,1.8-6.2,4.2c-0.1,0.2,0.2,0.4,0.4,0.2c1.4-2.1,3.3-3.3,5.9-3.6C695.3,164.9,695.3,164.2,694.8,164.2z M767.3,232.9  c-3.6-0.1-6.9-0.8-10.2-2.2c-0.3-0.1-0.6,0.3-0.3,0.5c3.3,1.6,6.8,2.6,10.5,2.7C767.9,233.9,767.9,233,767.3,232.9z M822.4,189.2  c0.4-0.2,0.1-0.8-0.3-0.7c-3,0.5-4.9,4-5,6.7c0,0.2,0.4,0.3,0.4,0.1c0.2-1.4,0.8-2.7,1.8-3.8C820.2,190.4,821.3,189.9,822.4,189.2z   M824.7,190.1c-2.1-0.4-4.2,1-4.8,2.9c-0.1,0.2,0.3,0.4,0.4,0.2c0.8-1.8,2.5-2.5,4.3-2.3C825,191,825.1,190.2,824.7,190.1z   M917.4,147.8c0.4-0.2,0.3-0.8-0.2-0.7c-2.7,0.6-4.4,3.6-4,6.3c0,0.2,0.3,0.2,0.3,0C913.3,150.7,915,148.7,917.4,147.8z   M921.3,147.5c-2.4,0.2-4.6,1.7-5.9,3.6c-0.2,0.3,0.2,0.6,0.4,0.3c1.5-1.8,3.3-2.8,5.6-3.2C921.9,148.2,921.8,147.5,921.3,147.5z   M948.4,192.4c0.4,0,0.5-0.6,0.1-0.7c-2.6-0.4-5.1,1.6-5.7,4.1c-0.1,0.4,0.5,0.5,0.6,0.2C944.1,193.7,946,192.5,948.4,192.4z   M951.2,193.6c-1.8,0-3.5,0.7-4.7,2c-0.3,0.3,0.1,0.7,0.4,0.4c1.2-1.1,2.7-1.6,4.3-1.5C951.8,194.6,951.8,193.6,951.2,193.6z   M846.5,210.3c1.7,0.1,3.9-0.1,4.5-2c0.5-1.6-0.5-3.5-2.2-3.8c-1.5-0.2-3.1,0.7-3.5,2.2C844.9,208,845.5,209.4,846.5,210.3z   M828.9,178c0.7-1.6,2.5-2.3,2.8-4.1c0.4-2.2-0.2-4.2,1.3-6.2c1.5-2.1,4.2-3.3,6.7-2.6c2.5,0.7,4.5,2.8,4.9,5.4  c0.4,2.5-0.8,5.1-2.1,7.2c-2.2,3.4-5.4,5.6-9.1,7c-0.1-0.2-0.2-0.4-0.5-0.4C829.8,184,827.5,181,828.9,178z M841.6,169.5  c0.8,2.2,0.6,4.3-0.8,6.2c-0.1,0.1,0.1,0.3,0.3,0.2c1.6-1.9,2.1-4.4,1.2-6.7C842.1,168.8,841.5,169.1,841.6,169.5z M839.8,169.4  c0.1,0.6,0.3,1.1,0.4,1.7c0.1,0.6,0.1,1.2,0.1,1.8c0,0.3,0.4,0.3,0.5,0.1c0.2-1.2,0.3-2.7-0.3-3.8  C840.2,168.7,839.7,169,839.8,169.4z M834.7,159.2c-0.2-0.4,0.4-0.9,0.9-0.5c1.3,1,3.4,0.2,3.9-1.3c0.5-1.7-0.9-3.5-2.5-3.9  c-1.4-0.4-3.1,0.3-3.9,1.6C832.2,156.6,833.1,158.5,834.7,159.2z M794,220.3c0.2-0.2,0.4-0.3,0.6,0c0,0,0.1,0.1,0.1,0.1  c0,0,0.1,0,0.1,0.1c1,0.8,2.3,0.2,2.6-1.1c0.2-1.2-0.5-2.4-1.6-3c-1.1-0.6-2.5-0.2-3.2,0.9C791.9,218.6,792.8,220,794,220.3z   M722.2,205.2c1-1.2,0.6-3.2-0.8-3.9c-1.4-0.7-3.4,0.1-4,1.6c-0.5,1.3,0,2.6,0.9,3.6C719.7,206.3,721.4,206.3,722.2,205.2z   M713.5,199.3c0-0.1,0.1-0.2,0.3-0.2c0.4-0.1,1.2-0.2,1.5-0.4c0.3-0.2,0.3-0.6,0.2-1c-0.2-0.7-0.8-1.4-1.6-1.4  C712.5,196.4,712.5,198.7,713.5,199.3z M647.4,159.8c1-3.4,5-4.1,8-4.5c2.3,0.7,4.5,1.4,6.6,2.8c3,2,5.3,4.9,6.7,8.2  c1.2,3,1.7,6.5,1.2,9.6c-0.3,1.8-1.1,4-3.1,4.4c-0.7,0.2-1.8,0-2.3-0.6c-0.3-0.3-0.4-0.7-0.5-1.1c-0.1-0.8,0.1-1.8,0.1-2.5  c-0.8-6.2-9.7-4.6-13.4-7.6C648.2,166.7,646.4,163,647.4,159.8z M652.3,163.3c0,0.3,0.5,0.4,0.6,0.1c0.2-1.4,1.5-2.4,2.9-2.3  c0.7,0.1,0.6-0.9,0-1C654,159.9,652.3,161.5,652.3,163.3z M650.2,164.6c0.1,0.2,0.5,0.1,0.4-0.2c-0.3-1.1-0.3-2.3,0.2-3.4  c0.5-1.1,1.4-1.5,2.3-2.1c0.3-0.2,0.2-0.9-0.2-0.8C650.2,158.4,648.9,162.3,650.2,164.6z M655.7,148.8c1.8-2.8,7.6-5.6,3.5-8.9  c-2.5-2-5.6-0.1-6.3,2.7C652.3,145.2,653.8,147.4,655.7,148.8z M649.6,193c0.1,0.1,0.2,0.2,0.2,0.3c1,0.1,2-0.7,2.3-1.7  c0.2-1-0.6-1.8-1.6-2C648.4,189,647.8,192.1,649.6,193z M614.7,197.9c0.6,0.4,1,0.7,1.8,0.6c0.6-0.1,1.2-0.5,1.5-1  c0.7-1,0.1-2.2-1-2.7c-1-0.5-2.3-0.1-2.7,1c-0.2,0.6-0.2,1.4,0.2,2C614.6,197.9,614.6,197.9,614.7,197.9z M606.6,210.2  c2.4-0.1,5.4-0.4,7-2.3c2.5-2.8-0.9-6.2-3.8-6.3c-2.2-0.1-4.5,1.1-5.1,3.3C604.1,206.9,604.9,209.1,606.6,210.2z M542.3,116.4  c1.1,1.3,3,1.9,4.5,0.8c1.5-1.1,1.6-3.5,0.4-4.8c-1.2-1.3-3.6-1.2-4.7,0.2c-0.9,1-1,2.5-0.5,3.7  C542.1,116.2,542.2,116.3,542.3,116.4z M526.7,133c-1.9-3.9-2.8-11.1,3.3-11.7c4.9-0.6,8.7,4.5,9.6,8.8c1,4.5-0.7,9-4.5,11.6  C531.2,139.9,528.6,136.7,526.7,133z M531.9,124.8c-1.6,0.2-3.1,1.4-3.4,3.1c0,0.2,0.3,0.4,0.4,0.2c0.6-1.3,1.7-2.3,3.1-2.4  C532.7,125.6,532.6,124.7,531.9,124.8z M527.2,128.8c0.1,0.2,0.4,0.1,0.3-0.1c-0.5-1.3-0.4-2.7,0.4-3.9c0.8-1.2,2-1.4,3.4-1.6  c0.5,0,0.6-0.8,0.1-0.9C527.8,121.4,525.3,125.9,527.2,128.8z M487.8,214.1c1.6-0.2,3.2-1,4-2.4c1.1-2,0-4.6-2.2-5.3  c-2-0.6-4.2,0.7-4.8,2.8C484.2,211.3,485.8,213.4,487.8,214.1z" />
</svg>