<svg class="thz-svg-shape thz-svg-graph-spikes-double-line-stroke" xmlns="http://www.w3.org/2000/svg" viewBox="0 0 1000 250" preserveAspectRatio="none"><polyline points="0 250 35.66 234.92 53.52 230.92 92.04 210.66 114.89 222.45 173.76 200.9 212.11 216.04 285.13 186.79 323.49 201.9 382.36 180.38 405.21 192.17 431.66 185.48 462.13 160.4 509.87 172.3 536.11 153.79 578.8 157.85 650.18 129.24 688.53 144.35 747.41 122.84 770.25 134.63 796.7 127.94 827.15 102.85 874.91 114.76 901.16 96.25 947.25 100.64 1000 86.27" transform="translate(0,-15)" style="fill:none;stroke-miterlimit:10"/><polyline points="0 243.54 67.01 216.15 96.01 197.13 134.27 209.58 187.06 179.16 212.74 195.8 286.01 159.15 323.23 175.59 357.02 156.71 384.01 150.13 404.7 165.1 475 126.15 516.84 140.78 541.02 121.14 578.8 133.18 631.02 93.13 709.71 112.29 752 89.13 796.39 99.06 834.15 76.15 876.92 87.72 906.01 67.14 947.99 78.62 1000 58.15" transform="translate(0,-15)" style="fill:none;stroke:stroke-miterlimit:10;opacity:0.4"/></svg>