<svg class="thz-svg-shape thz-svg-graph-with-circles-multiple-lines-stroke" xmlns="http://www.w3.org/2000/svg" viewBox="0 0 1000 250" preserveAspectRatio="none"><path d="M0,93l45.9-32.23m8.64-.56L96.17,81.68m9.58,2,26.13-1.62M141,78.76l27.44-20m7.71.57,51.53,50.57m7.83,6.38L279,145.43m6.23,7.49,11.68,26.59M303,181l8.84-6.81m9-3.82,9.35-1.39m7.94-4.9,8.67-12.34m7.94-3.62,35.8,3.71m8.56,4.17,17.83,18.45m6.69,7.63,20.19,25.42m8.19,4.65,25.11,3.4m7.63-3.68,10.18-17m4-9.21L508.81,152m6.27-6.38,23-7.11m7.82-5.59,14.88-20.43m7.54-1.9,17.24,8.33m8.05,5.87,10.06,10.54m8.45,2.67,26-5.36m8.08,3,8.16,10.4m7.68,1.76,14-6.86m8.42,1,29.31,24.69m7.71-.06,13.07-11.31m6.17-7.8L754,122.08m4.84-8.9L774.2,86m7.2-6.26,43-16.93m8.71,1.28,27,21.15m9,3.65,27.16,2.89m9.61-1.67,41.13-20m9.21-.2,43.77,19m-950-34a3.08,3.08,0,1,0,3.08,3.09,3.09,3.09,0,0,0-3.08-3.09Zm901.52,10a3.08,3.08,0,1,0,3.09,3.06,3.08,3.08,0,0,0-3.09-3.06ZM901.34,89.28a3.06,3.06,0,1,0,3.06,3.06,3.06,3.06,0,0,0-3.06-3.06Zm-37.25-4a3.06,3.06,0,1,0,3.06,3.06,3.07,3.07,0,0,0-3.06-3.06Zm-35-27.38A3.06,3.06,0,1,0,832.14,61a3,3,0,0,0-3.06-3.06ZM776.69,78.54a3.08,3.08,0,1,0,3.07,3.09,3.07,3.07,0,0,0-3.07-3.09Zm-20.32,36a3.08,3.08,0,1,0,3.06,3.06,3,3,0,0,0-3.06-3.06Zm-18.06,34.41a3.06,3.06,0,1,0,3.06,3.06,3,3,0,0,0-3.06-3.06Zm-20.72,17.94a3.07,3.07,0,1,0,3.06,3.07,3.08,3.08,0,0,0-3.06-3.07Zm-37.08-31.23a3.08,3.08,0,0,0,0,6.15,3.08,3.08,0,1,0,0-6.15Zm-23,11.31a3.08,3.08,0,1,0,3.06,3.09,3.1,3.1,0,0,0-3.06-3.09ZM643,128.57a3.08,3.08,0,1,0,3.06,3.06,3.09,3.09,0,0,0-3.06-3.06Zm-35.89,7.37a3.08,3.08,0,1,0,3.06,3.09,3.07,3.07,0,0,0-3.06-3.09Zm-17-17.86a3.06,3.06,0,1,0,3.07,3.06,3.07,3.07,0,0,0-3.07-3.06Zm-26.36-12.76a3.07,3.07,0,1,0,3.09,3.07,3.07,3.07,0,0,0-3.09-3.07ZM542.89,134A3.07,3.07,0,1,0,546,137a3.07,3.07,0,0,0-3.09-3.07Zm-32.66,10.12a3.07,3.07,0,1,0,3.06,3.07,3,3,0,0,0-3.06-3.07Zm-12.73,43.4a3.08,3.08,0,1,0,3.07,3.09,3.1,3.1,0,0,0-3.07-3.09Zm-15.39,25.74a3.06,3.06,0,1,0,3.06,3.06,3.07,3.07,0,0,0-3.06-3.06Zm-35.18-4.76a3.06,3.06,0,1,0,3.09,3.06,3.07,3.07,0,0,0-3.09-3.06Zm-26.5-33.36a3.06,3.06,0,1,0,3.09,3.06,3.07,3.07,0,0,0-3.09-3.06Zm-24.86-25.77a3.08,3.08,0,1,0,3.06,3.06,3.07,3.07,0,0,0-3.06-3.06Zm-45.87-4.74a3.07,3.07,0,1,0,3.06,3.07,3.08,3.08,0,0,0-3.06-3.07Zm-14.51,20.61a3.08,3.08,0,1,0,3.06,3.06,3.07,3.07,0,0,0-3.06-3.06Zm-19.36,2.89a3.07,3.07,0,1,0,3.06,3.07,3.07,3.07,0,0,0-3.06-3.07Zm-16.9,13a3.08,3.08,0,1,0,3.06,3.06,3.07,3.07,0,0,0-3.06-3.06ZM283.2,145.21a3.06,3.06,0,1,0,3.06,3.06,3.07,3.07,0,0,0-3.06-3.06Zm-51.88-34.84a3.08,3.08,0,1,0,3.09,3.09,3.09,3.09,0,0,0-3.09-3.09ZM172.56,52.69a3.08,3.08,0,1,0,3.06,3.08,3.06,3.06,0,0,0-3.06-3.08Zm-35.63,26A3.06,3.06,0,1,0,140,81.77a3,3,0,0,0-3.06-3.06ZM100.67,81A3.06,3.06,0,1,0,103.76,84,3.07,3.07,0,0,0,100.67,81Z" style="fill:none;stroke-miterlimit:10;opacity:0.4"/><path d="M0,122.53,45.91,90.3m7.22,1.11,23.73,31m7.37,1.36,12.13-7.54m9.39-3,26.13-1.61m9.16-3.32,27.44-20m7.71.57,25.14,24.66m7.23,7.11,19.16,18.8m6.21,7.91,15.68,26.47m6.75,7.26,21.17,14.82m8,6.21,9.59,8.28m7.85.2,8.84-6.81m9-3.82,9.35-1.39m7.94-4.91,8.67-12.33m7.57-2.15,40.23,17.26,21.2,9.21m6.6,6.72,7.37,17.89m7,4.45,10.12-.43m9.32,2.5L466,243m7.94-.76,17.83-17.21m7-7.34,15.73-18.23m5.78-8.28L531.61,171m6.23-7.83,14.86-13.46L566,136.36m6.72.4,7.74,9.89m6.72,7.57,10.68,10.72m8.65,3.88,26.5,1.53m9.53,2.75,7.23,4m9.1.45,24.57-10.63m7.83,1.93,24.63,30.5m7.28,1,21.58-15.79m6.74-7.32,16-25.79m6.55-7.57,20-16.95m7.09-7.23,24.4-25.48m7.52-.54,27,21.14m9,3.66,27.16,2.89m9.38,3.15,11.31,6.8m7.57-1.27,23.79-28.72m7.37-1,44.3,31.55M951.57,94.3a3.08,3.08,0,1,0,3.09,3.06,3.08,3.08,0,0,0-3.09-3.06Zm-901.52-10a3.08,3.08,0,1,0,3.08,3.06,3.09,3.09,0,0,0-3.08-3.06Zm29.87,39A3.08,3.08,0,1,0,83,126.39a3.09,3.09,0,0,0-3.09-3.07Zm20.75-12.86a3.06,3.06,0,1,0,3.09,3.06,3.07,3.07,0,0,0-3.09-3.06Zm36.26-2.27a3.08,3.08,0,1,0,3.06,3.09,3.07,3.07,0,0,0-3.06-3.09Zm35.63-26a3.08,3.08,0,1,0,3.06,3.07,3.07,3.07,0,0,0-3.06-3.07ZM204.93,114A3.08,3.08,0,1,0,208,117a3.07,3.07,0,0,0-3.06-3.06Zm26.39,25.91a3.08,3.08,0,1,0,3.09,3.06,3.09,3.09,0,0,0-3.09-3.06Zm20.87,35.21a3.06,3.06,0,1,0,3.06,3.06,3,3,0,0,0-3.06-3.06Zm29.51,20.6a3.08,3.08,0,1,0,3.06,3.09,3.1,3.1,0,0,0-3.06-3.09Zm17.23,14.88a3.08,3.08,0,1,0,3.06,3.07,3.07,3.07,0,0,0-3.06-3.07Zm16.9-13a3.07,3.07,0,1,0,3.06,3.06,3.07,3.07,0,0,0-3.06-3.06Zm19.36-2.89a3.08,3.08,0,1,0,3.06,3.06,3.07,3.07,0,0,0-3.06-3.06Zm14.51-20.64a3.08,3.08,0,1,0,3.06,3.09,3.1,3.1,0,0,0-3.06-3.09Zm70.73,30.51a3.08,3.08,0,1,0,3.09,3.09,3.09,3.09,0,0,0-3.09-3.09Zm11.25,27.26a3.07,3.07,0,1,0,3.09,3.07,3.07,3.07,0,0,0-3.09-3.07ZM452,231A3.06,3.06,0,1,0,455,234,3.07,3.07,0,0,0,452,231Zm18.37,11.73a3.08,3.08,0,1,0,3.06,3.09,3.07,3.07,0,0,0-3.06-3.09Zm25.14-24.21a3.08,3.08,0,1,0,3.06,3.07,3.09,3.09,0,0,0-3.06-3.07Zm22.37-25.91a3.08,3.08,0,1,0,3.06,3.07,3.09,3.09,0,0,0-3.06-3.07Zm16.24-29.11a3.07,3.07,0,1,0,3.06,3.06,3,3,0,0,0-3.06-3.06Zm35.49-33.76a3.08,3.08,0,1,0,3.09,3.06,3.09,3.09,0,0,0-3.09-3.06Zm14,17.89a3.06,3.06,0,1,0,3.09,3.06,3,3,0,0,0-3.09-3.06Zm17.88,17.86a3.08,3.08,0,1,0,3.06,3.06,3.07,3.07,0,0,0-3.06-3.06Zm36.63,2.12a3.08,3.08,0,1,0,3.06,3.06,3.07,3.07,0,0,0-3.06-3.06Zm16.13,8.88a3.08,3.08,0,1,0,3.06,3.09,3.09,3.09,0,0,0-3.06-3.09Zm33.87-14.63a3.06,3.06,0,1,0,3.06,3.06,3,3,0,0,0-3.06-3.06Zm31,38.38a3.08,3.08,0,1,0,3.09,3.06,3.09,3.09,0,0,0-3.09-3.06Zm29.77-21.77a3.06,3.06,0,1,0,3.06,3.06,3,3,0,0,0-3.06-3.06ZM770.17,144a3.06,3.06,0,1,0,3.07,3.06,3,3,0,0,0-3.07-3.06Zm27.47-23.79a3.08,3.08,0,1,0,3.09,3.07,3.07,3.07,0,0,0-3.09-3.07Zm31.44-32.82a3.08,3.08,0,1,0,3.06,3.09,3.07,3.07,0,0,0-3.06-3.09Zm35,27.41a3.06,3.06,0,1,0,3.06,3.06,3.07,3.07,0,0,0-3.06-3.06Zm37.25,4a3.06,3.06,0,1,0,3.06,3.06,3.06,3.06,0,0,0-3.06-3.06Zm20,12a3.08,3.08,0,1,0,3.09,3.06,3.09,3.09,0,0,0-3.09-3.06Z" style="fill:none;stroke-miterlimit:10"/></svg>