<svg class="thz-svg-shape thz-svg-graph-with-circles-lines-stroke" xmlns="http://www.w3.org/2000/svg" viewBox="0 0 1000 250" preserveAspectRatio="none"><path d="M0,93l45.9-32.23m8.64-.56L96.17,81.68m9.58,2,26.13-1.62M141,78.76l27.44-20m7.71.57,51.53,50.57m7.83,6.38L279,145.43m6.23,7.49,11.68,26.59M303,181l8.84-6.81m9-3.82,9.35-1.39m7.94-4.9,8.67-12.34m7.94-3.62,35.8,3.71m8.56,4.17,17.83,18.45m6.69,7.63,20.19,25.42m8.19,4.65,25.11,3.4m7.63-3.68,10.18-17m4-9.21L508.81,152m6.27-6.38,23-7.11m7.82-5.59,14.88-20.43m7.54-1.9,17.24,8.33m8.05,5.87,10.06,10.54m8.45,2.67,26-5.36m8.08,3,8.16,10.4m7.68,1.76,14-6.86m8.42,1,29.31,24.69m7.71-.06,13.07-11.31m6.17-7.8L754,122.08m4.84-8.9L774.2,86m7.2-6.26,43-16.93m8.71,1.28,27,21.15m9,3.65,27.16,2.89m9.61-1.67,41.13-20m9.21-.2,43.77,19m-950-34a3.08,3.08,0,1,0,3.08,3.09,3.09,3.09,0,0,0-3.08-3.09Zm901.52,10a3.08,3.08,0,1,0,3.09,3.06,3.08,3.08,0,0,0-3.09-3.06ZM901.34,89.28a3.06,3.06,0,1,0,3.06,3.06,3.06,3.06,0,0,0-3.06-3.06Zm-37.25-4a3.06,3.06,0,1,0,3.06,3.06,3.07,3.07,0,0,0-3.06-3.06Zm-35-27.38A3.06,3.06,0,1,0,832.14,61a3,3,0,0,0-3.06-3.06ZM776.69,78.54a3.08,3.08,0,1,0,3.07,3.09,3.07,3.07,0,0,0-3.07-3.09Zm-20.32,36a3.08,3.08,0,1,0,3.06,3.06,3,3,0,0,0-3.06-3.06Zm-18.06,34.41a3.06,3.06,0,1,0,3.06,3.06,3,3,0,0,0-3.06-3.06Zm-20.72,17.94a3.07,3.07,0,1,0,3.06,3.07,3.08,3.08,0,0,0-3.06-3.07Zm-37.08-31.23a3.08,3.08,0,0,0,0,6.15,3.08,3.08,0,1,0,0-6.15Zm-23,11.31a3.08,3.08,0,1,0,3.06,3.09,3.1,3.1,0,0,0-3.06-3.09ZM643,128.57a3.08,3.08,0,1,0,3.06,3.06,3.09,3.09,0,0,0-3.06-3.06Zm-35.89,7.37a3.08,3.08,0,1,0,3.06,3.09,3.07,3.07,0,0,0-3.06-3.09Zm-17-17.86a3.06,3.06,0,1,0,3.07,3.06,3.07,3.07,0,0,0-3.07-3.06Zm-26.36-12.76a3.07,3.07,0,1,0,3.09,3.07,3.07,3.07,0,0,0-3.09-3.07ZM542.89,134A3.07,3.07,0,1,0,546,137a3.07,3.07,0,0,0-3.09-3.07Zm-32.66,10.12a3.07,3.07,0,1,0,3.06,3.07,3,3,0,0,0-3.06-3.07Zm-12.73,43.4a3.08,3.08,0,1,0,3.07,3.09,3.1,3.1,0,0,0-3.07-3.09Zm-15.39,25.74a3.06,3.06,0,1,0,3.06,3.06,3.07,3.07,0,0,0-3.06-3.06Zm-35.18-4.76a3.06,3.06,0,1,0,3.09,3.06,3.07,3.07,0,0,0-3.09-3.06Zm-26.5-33.36a3.06,3.06,0,1,0,3.09,3.06,3.07,3.07,0,0,0-3.09-3.06Zm-24.86-25.77a3.08,3.08,0,1,0,3.06,3.06,3.07,3.07,0,0,0-3.06-3.06Zm-45.87-4.74a3.07,3.07,0,1,0,3.06,3.07,3.08,3.08,0,0,0-3.06-3.07Zm-14.51,20.61a3.08,3.08,0,1,0,3.06,3.06,3.07,3.07,0,0,0-3.06-3.06Zm-19.36,2.89a3.07,3.07,0,1,0,3.06,3.07,3.07,3.07,0,0,0-3.06-3.07Zm-16.9,13a3.08,3.08,0,1,0,3.06,3.06,3.07,3.07,0,0,0-3.06-3.06ZM283.2,145.21a3.06,3.06,0,1,0,3.06,3.06,3.07,3.07,0,0,0-3.06-3.06Zm-51.88-34.84a3.08,3.08,0,1,0,3.09,3.09,3.09,3.09,0,0,0-3.09-3.09ZM172.56,52.69a3.08,3.08,0,1,0,3.06,3.08,3.06,3.06,0,0,0-3.06-3.08Zm-35.63,26A3.06,3.06,0,1,0,140,81.77a3,3,0,0,0-3.06-3.06ZM100.67,81A3.06,3.06,0,1,0,103.76,84,3.07,3.07,0,0,0,100.67,81Z" transform="translate(0,-5)" style="fill:none;stroke-miterlimit:10"/></svg>