<svg class="thz-svg-shape thz-svg-graph-with-circles" xmlns="http://www.w3.org/2000/svg" viewBox="0 0 1000 250" preserveAspectRatio="none"><path d="M0,87.23,45.89,55a5.09,5.09,0,0,0,8.68-.59L96.18,75.92a5,5,0,0,0-.57,2.33,5.08,5.08,0,0,0,10.15,0c0-.11,0-.2,0-.31l26.14-1.62A5.07,5.07,0,0,0,142,76a5,5,0,0,0-1-3l27.44-20a5.09,5.09,0,0,0,7.71.57l51.54,50.57a5.14,5.14,0,0,0-1.45,3.54,5.07,5.07,0,0,0,5.08,5.08,5,5,0,0,0,4.19-2.24L279,139.68a4.83,4.83,0,0,0-.88,2.83,5.06,5.06,0,0,0,5.07,5.05,4.9,4.9,0,0,0,2-.43l11.68,26.59a5.07,5.07,0,1,0,7.09,4.65,4.91,4.91,0,0,0-1.05-3.09l8.84-6.8a5.09,5.09,0,0,0,9.1-3.09c0-.26,0-.51-.05-.77l9.35-1.39a5.06,5.06,0,1,0,7.91-4.87L346.76,146a5.2,5.2,0,0,0,2.92.9,5.07,5.07,0,0,0,5.05-4.53l35.77,3.71v.51a5.08,5.08,0,0,0,8.59,3.66l17.83,18.45a5.05,5.05,0,0,0,3.51,8.7,5,5,0,0,0,3.15-1.07l20.21,25.42a5,5,0,0,0-1.93,4,5.07,5.07,0,0,0,10.1.68l25.11,3.4a4.53,4.53,0,0,0-.06.68,5.08,5.08,0,1,0,7.69-4.36l10.17-17a5.13,5.13,0,0,0,2.61.71,5.06,5.06,0,0,0,1.42-9.92l9.89-33.68a5.64,5.64,0,0,0,1.45.2,5.06,5.06,0,0,0,5-5.07,4.57,4.57,0,0,0-.22-1.51l23-7.11a5.08,5.08,0,1,0,7.83-5.61l14.88-20.44a5.07,5.07,0,0,0,7.57-1.87l17.2,8.33a5.2,5.2,0,0,0-.51,2.21,5.07,5.07,0,0,0,5.08,5.08,5,5,0,0,0,3.48-1.42l10.07,10.54a5.06,5.06,0,1,0,8.56,3.66,5.86,5.86,0,0,0-.09-1l25.94-5.33a5.09,5.09,0,0,0,8.11,3l8.16,10.4a5.06,5.06,0,1,0,8.19,4A5.2,5.2,0,0,0,662,142l14-6.86a5.06,5.06,0,0,0,8.42,1l29.31,24.69a5.18,5.18,0,0,0-1.19,3.29,5.08,5.08,0,1,0,8.9-3.32l13.07-11.31a5,5,0,0,0,3.82,1.76,5.07,5.07,0,0,0,2.36-9.56L754,116.29a5.07,5.07,0,0,0,4.84-8.9l15.34-27.13a4.92,4.92,0,0,0,2.49.65,5.06,5.06,0,0,0,5.08-5A4.9,4.9,0,0,0,781.4,74l42.94-16.93a5.09,5.09,0,0,0,4.71,3.21,5,5,0,0,0,4-1.93l27,21.15A4.93,4.93,0,0,0,859,82.61a5.07,5.07,0,0,0,10.12.54L896.26,86c0,.17,0,.37,0,.54a5.08,5.08,0,1,0,10.15,0,4.79,4.79,0,0,0-.51-2.21l41.13-20a5.07,5.07,0,0,0,9.21-.23l43.8,19V250H0ZM951.56,59a3.08,3.08,0,1,0,3.06,3.06A3,3,0,0,0,951.56,59ZM901.3,83.52a3.06,3.06,0,1,0,3.07,3.06,3,3,0,0,0-3.07-3.06Zm-37.24-4a3.07,3.07,0,1,0,3.06,3.06,3,3,0,0,0-3.06-3.06Zm-35-27.41a3.08,3.08,0,1,0,3.09,3.09,3.09,3.09,0,0,0-3.09-3.09ZM776.66,72.78a3.08,3.08,0,1,0,3.09,3.09,3.09,3.09,0,0,0-3.09-3.09Zm-20.32,36a3.06,3.06,0,1,0,3.09,3.06,3.07,3.07,0,0,0-3.09-3.06Zm-18.06,34.41a3.07,3.07,0,1,0,3.06,3.06,3,3,0,0,0-3.06-3.06Zm-20.72,17.92a3.08,3.08,0,1,0,3.06,3.09,3.07,3.07,0,0,0-3.06-3.09Zm-37-31.21a3.06,3.06,0,1,0,3.06,3.06,3.07,3.07,0,0,0-3.06-3.06Zm-23.07,11.31a3.08,3.08,0,1,0,3.06,3.06,3.07,3.07,0,0,0-3.06-3.06ZM643,122.81a3.06,3.06,0,1,0,3.06,3.06,3,3,0,0,0-3.06-3.06Zm-35.89,7.37a3.08,3.08,0,1,0,3.09,3.06,3.09,3.09,0,0,0-3.09-3.06Zm-17-17.89a3.08,3.08,0,1,0,3.06,3.09,3.07,3.07,0,0,0-3.06-3.09ZM563.75,99.57a3.06,3.06,0,1,0,3.07,3.06,3.07,3.07,0,0,0-3.07-3.06ZM542.89,128.2a3.06,3.06,0,1,0,3.06,3.06,3,3,0,0,0-3.06-3.06Zm-32.65,10.11a3.07,3.07,0,1,0,3.06,3.07,3.08,3.08,0,0,0-3.06-3.07Zm-12.76,43.4a3.08,3.08,0,1,0,3.06,3.06,3.07,3.07,0,0,0-3.06-3.06Zm-15.39,25.71a3.08,3.08,0,1,0,3.06,3.09,3.07,3.07,0,0,0-3.06-3.09Zm-35.15-4.73a3.06,3.06,0,1,0,3.06,3.06,3.07,3.07,0,0,0-3.06-3.06ZM420.43,169.3a3.08,3.08,0,1,0,3.07,3.09,3.07,3.07,0,0,0-3.07-3.09Zm-24.88-25.74a3.06,3.06,0,1,0,3.09,3.06,3.06,3.06,0,0,0-3.09-3.06Zm-45.87-4.76a3.08,3.08,0,1,0,3.06,3.09,3.07,3.07,0,0,0-3.06-3.09Zm-14.51,20.63a3.08,3.08,0,1,0,3.09,3.06,3.07,3.07,0,0,0-3.09-3.06Zm-19.36,2.87a3.08,3.08,0,1,0,3.06,3.09,3.07,3.07,0,0,0-3.06-3.09Zm-16.87,13a3.08,3.08,0,1,0,3.06,3.06,3.07,3.07,0,0,0-3.06-3.06Zm-15.76-35.89a3.08,3.08,0,1,0,3.06,3.09,3.07,3.07,0,0,0-3.06-3.09Zm-51.84-34.81a3.08,3.08,0,1,0,3.06,3.06,3.07,3.07,0,0,0-3.06-3.06Zm-58.8-57.68A3.08,3.08,0,1,0,175.63,50a3.08,3.08,0,0,0-3.09-3.06Zm-35.6,26A3.08,3.08,0,1,0,140,76a3.1,3.1,0,0,0-3.06-3.09Zm-36.25,2.27a3.06,3.06,0,1,0,3.06,3.06,3.07,3.07,0,0,0-3.06-3.06ZM50.06,49.05a3.08,3.08,0,1,0,3.06,3.06,3.07,3.07,0,0,0-3.06-3.06Z" style="fill-rule:evenodd"/></svg>