<svg class="thz-svg-shape thz-svg-graph-spikes-double" xmlns="http://www.w3.org/2000/svg" viewBox="0 0 1000 250" preserveAspectRatio="none"><polygon points="578.8 119.04 630.99 79.01 709.7 98.15 752 75.02 796.39 84.91 834.14 62.01 876.92 73.6 906 53.02 947.98 64.47 1000 44.01 1000 250 -0.01 250 -0.01 229.39 67 202.01 96 183.02 134.27 195.43 187.05 165.02 212.73 181.66 286.01 145 323.23 161.47 357.02 142.57 384 136.02 404.7 150.99 475 112.01 516.84 126.67 540.99 107.02 578.8 119.04" style="fill-rule:evenodd;opacity:0.4"/><polygon points="578.8 143.25 650.18 114.65 688.53 129.78 747.4 108.24 770.25 120.06 796.7 113.34 827.14 88.28 874.91 100.16 901.16 81.65 947.25 86.04 1000 71.67 1000 250 -0.01 250 -0.01 235.4 35.63 220.32 53.51 216.32 92.03 196.06 114.88 207.85 173.76 186.33 212.11 201.44 285.13 172.19 323.48 187.3 382.36 165.78 405.21 177.57 431.65 170.88 462.1 145.83 509.86 157.7 536.11 139.19 578.8 143.25" /> </svg>