<svg class="thz-svg-shape thz-svg-hills-multiple" xmlns="http://www.w3.org/2000/svg" viewBox="0 0 1000 250" preserveAspectRatio="none"><path d="M0,215.36H349.76c60.44,0,75-52.22,98.08-52.22,19.25.4,19.76,12.28,45.58,12.7,33.74.57,39.09-63,57.35-63,18.48,0,20.21,38.83,39.6,38.83,32.82-.42,32.94-68.37,67.26-68.06,23.82.23,26.23,30.9,47.29,30.9,29.25,0,28.31-41.9,52-42.78,18.45-.7,30.67,31.7,52.75,31,25.57-.73,44.13-48.13,73-50.11,25.4-1.76,34.13,39.45,73,36.25C970.27,87.68,984.21,78.3,1000,54v196H0Z" style="opacity:0.2"/><path d="M0,226H423.63c73.9,0,91.73-79.34,119.91-79.34,23.5.4,24.15,28.77,55.73,29.2,41.22.54,47.76-56.81,70.07-56.81,22.62,0,31.1,37.31,54.8,37.31,28.8-.34,38.32-49.72,61.39-51.45s33.79,39.06,70.64,36.34c37.45-2.78,40.09-47.91,76.43-50.46s37.84,31.72,67.4,38.86V249.94H0Z" style="fill-rule:evenodd;opacity:0.4"/><path d="M0,237.52H419.86c60.44,0,75-50.4,98.08-50.4,19.25.4,19.76,28.77,45.58,29.2,33.71.54,39.09-63,57.35-63,18.48,0,20.21,38.86,39.6,38.86,32.82-.43,42.94-72.28,74-72,27.13.22,37.16,54.73,68.12,56.35,39.46,2.1,46.8-81.69,74.12-83.14,33.31-1.79,31.84,75.23,80.42,71.52,23.84-1.82,36.12-33.65,42.86-54.28V249.94H0Z" style="fill-rule:evenodd"/></svg>