<svg class="thz-svg-shape thz-svg-mid-waves-multiple" xmlns="http://www.w3.org/2000/svg" viewBox="0 0 1000 250" preserveAspectRatio="none">
  <path style="opacity:0.4;" d="M500,214.7c100,0,150-38.7,250-38.7s150,38.7,250,38.7V205c-100,0-150-38.7-250-38.7S600,205,500,205 s-150-38.7-250-38.7S100,205,0,205v9.7c100,0,150-38.7,250-38.7S400,214.7,500,214.7z" />
  <path style="opacity:0.2;" d="M500,205c100,0,150-38.7,250-38.7S900,205,1000,205v-10c-100,0-150-38.7-250-38.7S600,195,500,195 s-150-38.7-250-38.7S100,195,0,195v10c100,0,150-38.7,250-38.7S400,205,500,205z" />
  <path d="M750,176c-100,0-150,38.7-250,38.7S350,176,250,176S100,214.7,0,214.7v13.8V250h1000v-21.6v-13.8 C900,214.7,850,176,750,176z" />
</svg>