<svg class="thz-svg-shape thz-svg-polygon" xmlns="http://www.w3.org/2000/svg" viewBox="0 0 1000 250" preserveAspectRatio="none">
    <polygon style="opacity:0.3;" points="382.7,249.9 750,227.4 1000,216.2 1000,249.9 " />
    <polygon style="opacity:0.3;" points="650,249.9 100,210.5 0,249.9 517.3,249.9 " />
    <line class="st1" x1="1000" y1="249.9" x2="382.7" y2="249.9" />
    <polygon style="opacity:0.3;" points="0,216.2 495.8,250 0,250 " />
    <polygon style="opacity:0.3;" points="0,250 500,204.9 1000,249.9 799,250 " />
    <polygon style="opacity:0.3;" points="500,204.9 799,250 280.9,249.9 " />
    <path style="opacity:0.3;" d="M189.1,250C184.2,250,0,216.2,0,216.2V250H189.1z" />
    <polygon style="opacity:0.3;" points="100,210.5 450,249.9 0,250 " />
    <polygon style="opacity:0.3;" points="773,219.1 950,249.9 500,250 " />
    <polygon style="opacity:0.3;" points="1000,210.5 1000,249.9 799,250 " />
    <polygon points="0,250 15.7,233.9 96.3,245.3 122.5,241.8 215.5,248 247.8,241 317.7,248 456,237 511.6,248.6 622.9,241.5   668.7,249 791.4,241.5 838,248.7 951.6,237.9 1000,250 " />
</svg>