<svg preserveAspectRatio="none" xmlns="http://www.w3.org/2000/svg" class="thz-svg-shape thz-svg-small-waves-multiple" viewBox="0 0 1000 250">
    <path d="m999.5 176.5c-4.8 0-9.3 1.3-13.2 3.6-4 2.4-7.3 5.8-9.4 9.9-3.2 6-7.9 11-13.8 14.5-5.6 3.4-12.2 5.3-19.3 5.3-7 0-13.5-2-19.1-5.3-5.8-3.5-10.6-8.5-13.8-14.5 0-0.1-0.1-0.2-0.2-0.3-0.1-0.2-0.2-0.4-0.3-0.5-0.2-0.3-0.3-0.5-0.5-0.8s-0.5-0.7-0.7-1c-0.1-0.1-0.2-0.2-0.2-0.4-2-2.8-4.6-5.2-7.6-7-3.8-2.3-8.2-3.6-13-3.6s-9.3 1.3-13.2 3.6c-4 2.4-7.2 5.8-9.4 9.9-3.2 6-7.9 11-13.8 14.5-5.6 3.4-12.2 5.3-19.3 5.3-7 0-13.5-2-19.2-5.3-5.8-3.5-10.6-8.5-13.8-14.4-2.2-4.1-5.5-7.6-9.5-10-3.8-2.3-8.3-3.6-13.1-3.6s-9.3 1.3-13.2 3.6c-4 2.4-7.3 5.8-9.4 9.9-3.2 6-7.9 11-13.8 14.5-5.6 3.4-12.2 5.3-19.3 5.3-7 0-13.5-2-19.1-5.3-5.8-3.5-10.6-8.5-13.8-14.5 0-0.1-0.1-0.1-0.1-0.2-0.2-0.4-0.5-0.8-0.7-1.2 0 0 0-0.1-0.1-0.1-0.2-0.4-0.5-0.7-0.7-1.1-0.1-0.1-0.2-0.3-0.3-0.4-0.2-0.2-0.3-0.4-0.5-0.6-0.2-0.3-0.4-0.5-0.6-0.8l-0.1-0.1c-1.8-2.2-4-4-6.4-5.5-3.8-2.3-8.2-3.6-13-3.6s-9.3 1.3-13.2 3.6-7.1 5.7-9.3 9.6v0.1c0 0.1-0.1 0.1-0.1 0.2-3.2 6-8 11-13.8 14.5-5.6 3.4-12.2 5.3-19.3 5.3-7 0-13.5-2-19.2-5.3-5.8-3.5-10.6-8.5-13.8-14.4-2.2-4.1-5.5-7.6-9.5-10-3.8-2.3-8.3-3.6-13.1-3.6s-9.3 1.3-13.2 3.6c-4 2.4-7.3 5.8-9.4 9.9-3.2 6-7.9 11-13.8 14.5-5.6 3.4-12.2 5.3-19.3 5.3-7 0-13.5-2-19.1-5.3-5.8-3.5-10.6-8.5-13.8-14.5 0-0.1-0.1-0.2-0.1-0.3-0.1-0.2-0.2-0.4-0.3-0.5-0.2-0.3-0.3-0.5-0.5-0.8s-0.5-0.7-0.7-1c-0.1-0.1-0.2-0.2-0.2-0.4-2-2.8-4.6-5.2-7.6-7-3.8-2.3-8.2-3.6-13-3.6s-9.3 1.3-13.2 3.6c-4 2.4-7.2 5.8-9.4 9.9-3.2 6-7.9 11-13.8 14.5-5.6 3.4-12.2 5.3-19.3 5.3-7 0-13.5-2-19.2-5.3-5.8-3.5-10.6-8.5-13.8-14.4-2.2-4.1-5.5-7.6-9.5-10-3.8-2.3-8.3-3.6-13.1-3.6s-9.3 1.3-13.2 3.6c-4 2.4-7.3 5.8-9.4 9.9-3.2 6-7.9 11-13.8 14.5-5.6 3.4-12.2 5.3-19.3 5.3-7 0-13.5-2-19.1-5.3-5.8-3.5-10.6-8.5-13.8-14.5-0.3-0.6-0.7-1.2-1-1.8 0 0 0-0.1-0.1-0.1-0.3-0.4-0.5-0.8-0.8-1.2-0.2-0.3-0.4-0.5-0.6-0.8-0.1-0.2-0.3-0.3-0.4-0.5-1.8-2.2-4.1-4.2-6.5-5.6-3.8-2.3-8.2-3.6-13-3.6s-9.3 1.3-13.2 3.6c-4 2.4-7.2 5.8-9.4 9.9-3.2 6-7.9 11-13.8 14.5-5.6 3.4-12.2 5.3-19.3 5.3-7 0-13.5-2-19.2-5.3-5.8-3.5-10.6-8.5-13.8-14.4-2.2-4.1-5.5-7.6-9.5-10-3.8-2.3-8.3-3.6-13.1-3.6s-9.3 1.3-13.2 3.6c-4 2.4-7.3 5.8-9.4 9.9-3.2 6-7.9 11-13.8 14.5-5.6 3.4-12.2 5.3-19.3 5.3-7 0-13.5-2-19.1-5.3-5.8-3.5-10.6-8.5-13.8-14.5 0-0.1-0.1-0.2-0.2-0.3-0.1-0.2-0.2-0.4-0.3-0.5-0.2-0.3-0.3-0.5-0.5-0.8s-0.5-0.7-0.7-1c-0.1-0.1-0.2-0.2-0.2-0.4-2-2.8-4.6-5.2-7.6-7-3.7-2.2-8-3.5-12.7-3.6v73.5h199.5v0.1h801.2v-73.5c-0.2 0.4-0.3 0.4-0.5 0.4z" />
    <path opacity=".4" d="m986.3 170.1c-4 2.4-7.3 5.8-9.4 9.9-3.2 6-7.9 11-13.8 14.5-5.6 3.4-12.2 5.3-19.3 5.3-7 0-13.5-2-19.1-5.3-5.8-3.5-10.6-8.5-13.8-14.5 0-0.1-0.1-0.2-0.2-0.3-0.1-0.2-0.2-0.4-0.3-0.5-0.2-0.3-0.3-0.5-0.5-0.8s-0.5-0.7-0.7-1c-0.1-0.1-0.2-0.2-0.2-0.4-2-2.8-4.6-5.2-7.6-7-3.8-2.3-8.2-3.6-13-3.6s-9.3 1.3-13.2 3.6c-4 2.4-7.2 5.8-9.4 9.9-3.2 6-7.9 11-13.8 14.5-5.6 3.4-12.2 5.3-19.3 5.3-7 0-13.5-2-19.2-5.3-5.8-3.5-10.6-8.5-13.8-14.4-2.2-4.1-5.5-7.6-9.5-10-3.8-2.3-8.3-3.6-13.1-3.6s-9.3 1.3-13.2 3.6c-4 2.4-7.3 5.8-9.4 9.9-3.2 6-7.9 11-13.8 14.5-5.6 3.4-12.2 5.3-19.3 5.3-7 0-13.5-2-19.1-5.3-5.8-3.5-10.6-8.5-13.8-14.5 0-0.1-0.1-0.1-0.1-0.2-0.2-0.4-0.5-0.8-0.7-1.2 0 0 0-0.1-0.1-0.1-0.2-0.4-0.5-0.7-0.7-1.1-0.1-0.1-0.2-0.3-0.3-0.4-0.2-0.2-0.3-0.4-0.5-0.6-0.2-0.3-0.4-0.5-0.6-0.8l-0.1-0.1c-1.8-2.2-4-4-6.4-5.5-3.8-2.3-8.2-3.6-13-3.6s-9.3 1.3-13.2 3.6-7.1 5.7-9.3 9.6v0.1c0 0.1-0.1 0.1-0.1 0.2-3.2 6-8 11-13.8 14.5-5.6 3.4-12.2 5.3-19.3 5.3-7 0-13.5-2-19.2-5.3-5.8-3.5-10.6-8.5-13.8-14.4-2.2-4.1-5.5-7.6-9.5-10-3.8-2.3-8.3-3.6-13.1-3.6s-9.3 1.3-13.2 3.6c-4 2.4-7.3 5.8-9.4 9.9-3.2 6-7.9 11-13.8 14.5-5.6 3.4-12.2 5.3-19.3 5.3-7 0-13.5-2-19.1-5.3-5.8-3.5-10.6-8.5-13.8-14.5 0-0.1-0.1-0.2-0.1-0.3-0.1-0.2-0.2-0.4-0.3-0.5-0.2-0.3-0.3-0.5-0.5-0.8s-0.5-0.7-0.7-1c-0.1-0.1-0.2-0.2-0.2-0.4-2-2.8-4.6-5.2-7.6-7-3.8-2.3-8.2-3.6-13-3.6s-9.3 1.3-13.2 3.6c-4 2.4-7.2 5.8-9.4 9.9-3.2 6-7.9 11-13.8 14.5-5.6 3.4-12.2 5.3-19.3 5.3-7 0-13.5-2-19.2-5.3-5.8-3.5-10.6-8.5-13.8-14.4-2.2-4.1-5.5-7.6-9.5-10-3.8-2.3-8.3-3.6-13.1-3.6s-9.3 1.3-13.2 3.6c-4 2.4-7.3 5.8-9.4 9.9-3.2 6-7.9 11-13.8 14.5-5.6 3.4-12.2 5.3-19.3 5.3-7 0-13.5-2-19.1-5.3-5.8-3.5-10.6-8.5-13.8-14.5-0.3-0.6-0.7-1.2-1-1.8 0 0 0-0.1-0.1-0.1-0.3-0.4-0.5-0.8-0.8-1.2-0.2-0.3-0.4-0.5-0.6-0.8-0.1-0.2-0.3-0.3-0.4-0.5-1.8-2.2-4.1-4.2-6.5-5.6-3.8-2.3-8.2-3.6-13-3.6s-9.3 1.3-13.2 3.6c-4 2.4-7.2 5.8-9.4 9.9-3.2 6-7.9 11-13.8 14.5-5.6 3.4-12.2 5.3-19.3 5.3-7 0-13.5-2-19.2-5.3-5.8-3.5-10.6-8.5-13.8-14.4-2.2-4.1-5.5-7.6-9.5-10-3.8-2.3-8.3-3.6-13.1-3.6s-9.3 1.3-13.2 3.6c-4 2.4-7.3 5.8-9.4 9.9-3.2 6-7.9 11-13.8 14.5-5.6 3.4-12.2 5.3-19.3 5.3-7 0-13.5-2-19.1-5.3-5.8-3.5-10.6-8.5-13.8-14.5 0-0.1-0.1-0.2-0.2-0.3-0.1-0.2-0.2-0.4-0.3-0.5-0.2-0.3-0.3-0.5-0.5-0.8s-0.5-0.7-0.7-1c-0.1-0.1-0.2-0.2-0.2-0.4-2-2.8-4.6-5.2-7.6-7-3.7-2.2-8-3.5-12.7-3.6v10c4.6 0.1 9 1.4 12.7 3.6 3 1.8 5.6 4.2 7.6 7 0.1 0.1 0.2 0.2 0.2 0.4 0.2 0.3 0.5 0.7 0.7 1s0.3 0.5 0.5 0.8c0.1 0.2 0.2 0.4 0.3 0.5 0 0.1 0.1 0.2 0.2 0.3 3.2 5.9 8 10.9 13.8 14.5 5.6 3.4 12.2 5.3 19.1 5.3 7 0 13.6-1.9 19.3-5.3 5.8-3.5 10.6-8.5 13.8-14.5 2.2-4.1 5.4-7.5 9.4-9.9 3.8-2.3 8.4-3.6 13.2-3.6s9.3 1.3 13.1 3.6c4 2.4 7.3 5.9 9.5 10 3.2 5.9 8 11 13.8 14.4 5.6 3.4 12.2 5.3 19.2 5.3 7.1 0 13.7-1.9 19.3-5.3 5.8-3.5 10.6-8.5 13.8-14.5 2.2-4.1 5.4-7.5 9.4-9.9 3.8-2.3 8.3-3.6 13.2-3.6 4.8 0 9.2 1.3 13 3.6 2.5 1.5 4.7 3.4 6.5 5.6 0.1 0.2 0.3 0.3 0.4 0.5 0.2 0.3 0.4 0.5 0.6 0.8 0.3 0.4 0.6 0.8 0.8 1.2 0 0 0 0.1 0.1 0.1 0.4 0.6 0.7 1.2 1 1.8 3.2 5.9 8 10.9 13.8 14.5 5.6 3.4 12.2 5.3 19.1 5.3 7 0 13.6-1.9 19.3-5.3 5.8-3.5 10.6-8.5 13.8-14.5 2.2-4.1 5.4-7.5 9.4-9.9 3.8-2.3 8.4-3.6 13.2-3.6s9.3 1.3 13.1 3.6c4 2.4 7.3 5.9 9.5 10 3.2 5.9 8 11 13.8 14.4 5.6 3.4 12.2 5.3 19.2 5.3 7.1 0 13.7-1.9 19.3-5.3 5.8-3.5 10.6-8.5 13.8-14.5 2.2-4.1 5.4-7.5 9.4-9.9 3.8-2.3 8.3-3.6 13.2-3.6 4.8 0 9.2 1.3 13 3.6 3 1.8 5.6 4.2 7.6 7 0.1 0.1 0.2 0.2 0.2 0.4 0.2 0.3 0.5 0.7 0.7 1s0.3 0.5 0.5 0.8c0.1 0.2 0.2 0.4 0.3 0.5 0 0.1 0.1 0.2 0.1 0.3 3.2 5.9 8 10.9 13.8 14.5 5.6 3.4 12.2 5.3 19.1 5.3 7 0 13.6-1.9 19.3-5.3 5.8-3.5 10.6-8.5 13.8-14.5 2.2-4.1 5.4-7.5 9.4-9.9 3.8-2.3 8.4-3.6 13.2-3.6s9.3 1.3 13.1 3.6c4 2.4 7.3 5.9 9.5 10 3.2 5.9 8 11 13.8 14.4 5.6 3.4 12.2 5.3 19.2 5.3 7.1 0 13.7-1.9 19.3-5.3 5.8-3.5 10.6-8.5 13.8-14.5 0-0.1 0.1-0.1 0.1-0.2v-0.1c2.2-3.9 5.4-7.3 9.3-9.6 3.8-2.3 8.3-3.6 13.2-3.6 4.8 0 9.2 1.3 13 3.6 2.4 1.5 4.6 3.3 6.4 5.5l0.1 0.1c0.2 0.3 0.4 0.5 0.6 0.8 0.2 0.2 0.3 0.4 0.5 0.6 0.1 0.1 0.2 0.3 0.3 0.4 0.2 0.4 0.5 0.7 0.7 1.1 0 0 0 0.1 0.1 0.1 0.3 0.4 0.5 0.8 0.7 1.2 0 0.1 0.1 0.1 0.1 0.2 3.2 5.9 8 10.9 13.8 14.5 5.6 3.4 12.2 5.3 19.1 5.3 7 0 13.6-1.9 19.3-5.3 5.8-3.5 10.6-8.5 13.8-14.5 2.2-4.1 5.4-7.5 9.4-9.9 3.8-2.3 8.4-3.6 13.2-3.6s9.3 1.3 13.1 3.6c4 2.4 7.3 5.9 9.5 10 3.2 5.9 8 11 13.8 14.4 5.6 3.4 12.2 5.3 19.2 5.3 7.1 0 13.7-1.9 19.3-5.3 5.8-3.5 10.6-8.5 13.8-14.5 2.2-4.1 5.4-7.5 9.4-9.9 3.8-2.3 8.3-3.6 13.2-3.6 4.8 0 9.3 1.3 13 3.6 3 1.8 5.6 4.2 7.6 7 0.1 0.1 0.2 0.2 0.2 0.4 0.2 0.3 0.5 0.7 0.7 1s0.3 0.5 0.5 0.8c0.1 0.2 0.2 0.4 0.3 0.5 0 0.1 0.1 0.2 0.2 0.3 3.2 5.9 8 10.9 13.8 14.5 5.6 3.4 12.2 5.3 19.1 5.3 7 0 13.6-1.9 19.3-5.3 5.8-3.5 10.6-8.5 13.8-14.5 2.2-4.1 5.4-7.5 9.4-9.9 3.8-2.3 8.4-3.6 13.2-3.6h0.5v-10h-0.5c-4.8 0-9.3 1.3-13.2 3.6z" />
    <path opacity=".2" d="m999.5 156.5c-4.8 0-9.3 1.3-13.2 3.6-4 2.4-7.3 5.8-9.4 9.9-3.2 6-7.9 11-13.8 14.5-5.6 3.4-12.2 5.3-19.3 5.3-7 0-13.5-2-19.1-5.3-5.8-3.5-10.6-8.5-13.8-14.5 0-0.1-0.1-0.2-0.2-0.3-0.1-0.2-0.2-0.4-0.3-0.5-0.2-0.3-0.3-0.5-0.5-0.8s-0.5-0.7-0.7-1c-0.1-0.1-0.2-0.2-0.2-0.4-2-2.8-4.6-5.2-7.6-7-3.8-2.3-8.2-3.6-13-3.6s-9.3 1.3-13.2 3.6c-4 2.4-7.2 5.8-9.4 9.9-3.2 6-7.9 11-13.8 14.5-5.6 3.4-12.2 5.3-19.3 5.3-7 0-13.5-2-19.2-5.3-5.8-3.5-10.6-8.5-13.8-14.4-2.2-4.1-5.5-7.6-9.5-10-3.8-2.3-8.3-3.6-13.1-3.6s-9.3 1.3-13.2 3.6c-4 2.4-7.3 5.8-9.4 9.9-3.2 6-7.9 11-13.8 14.5-5.6 3.4-12.2 5.3-19.3 5.3-7 0-13.5-2-19.1-5.3-5.8-3.5-10.6-8.5-13.8-14.5 0-0.1-0.1-0.1-0.1-0.2-0.2-0.4-0.5-0.8-0.7-1.2 0 0 0-0.1-0.1-0.1-0.2-0.4-0.5-0.7-0.7-1.1-0.1-0.1-0.2-0.3-0.3-0.4-0.2-0.2-0.3-0.4-0.5-0.6-0.2-0.3-0.4-0.5-0.6-0.8l-0.1-0.1c-1.8-2.2-4-4-6.4-5.5-3.8-2.3-8.2-3.6-13-3.6s-9.3 1.3-13.2 3.6-7.1 5.7-9.3 9.6v0.1c0 0.1-0.1 0.1-0.1 0.2-3.2 6-8 11-13.8 14.5-5.6 3.4-12.2 5.3-19.3 5.3-7 0-13.5-2-19.2-5.3-5.8-3.5-10.6-8.5-13.8-14.4-2.2-4.1-5.5-7.6-9.5-10-3.8-2.3-8.3-3.6-13.1-3.6s-9.3 1.3-13.2 3.6c-4 2.4-7.3 5.8-9.4 9.9-3.2 6-7.9 11-13.8 14.5-5.6 3.4-12.2 5.3-19.3 5.3-7 0-13.5-2-19.1-5.3-5.8-3.5-10.6-8.5-13.8-14.5 0-0.1-0.1-0.2-0.1-0.3-0.1-0.2-0.2-0.4-0.3-0.5-0.2-0.3-0.3-0.5-0.5-0.8s-0.5-0.7-0.7-1c-0.1-0.1-0.2-0.2-0.2-0.4-2-2.8-4.6-5.2-7.6-7-3.8-2.3-8.2-3.6-13-3.6s-9.3 1.3-13.2 3.6c-4 2.4-7.2 5.8-9.4 9.9-3.2 6-7.9 11-13.8 14.5-5.6 3.4-12.2 5.3-19.3 5.3-7 0-13.5-2-19.2-5.3-5.8-3.5-10.6-8.5-13.8-14.4-2.2-4.1-5.5-7.6-9.5-10-3.8-2.3-8.3-3.6-13.1-3.6s-9.3 1.3-13.2 3.6c-4 2.4-7.3 5.8-9.4 9.9-3.2 6-7.9 11-13.8 14.5-5.6 3.4-12.2 5.3-19.3 5.3-7 0-13.5-2-19.1-5.3-5.8-3.5-10.6-8.5-13.8-14.5-0.3-0.6-0.7-1.2-1-1.8 0 0 0-0.1-0.1-0.1-0.3-0.4-0.5-0.8-0.8-1.2-0.2-0.3-0.4-0.5-0.6-0.8-0.1-0.2-0.3-0.3-0.4-0.5-1.8-2.2-4.1-4.2-6.5-5.6-3.8-2.3-8.2-3.6-13-3.6s-9.3 1.3-13.2 3.6c-4 2.4-7.2 5.8-9.4 9.9-3.2 6-7.9 11-13.8 14.5-5.6 3.4-12.2 5.3-19.3 5.3-7 0-13.5-2-19.2-5.3-5.8-3.5-10.6-8.5-13.8-14.4-2.2-4.1-5.5-7.6-9.5-10-3.8-2.3-8.3-3.6-13.1-3.6s-9.3 1.3-13.2 3.6c-4 2.4-7.3 5.8-9.4 9.9-3.2 6-7.9 11-13.8 14.5-5.6 3.4-12.2 5.3-19.3 5.3-7 0-13.5-2-19.1-5.3-5.8-3.5-10.6-8.5-13.8-14.5 0-0.1-0.1-0.2-0.2-0.3-0.1-0.2-0.2-0.4-0.3-0.5-0.2-0.3-0.3-0.5-0.5-0.8s-0.5-0.7-0.7-1c-0.1-0.1-0.2-0.2-0.2-0.4-2-2.8-4.6-5.2-7.6-7-3.7-2.2-8-3.5-12.7-3.6v10c4.6 0.1 9 1.4 12.7 3.6 3 1.8 5.6 4.2 7.6 7 0.1 0.1 0.2 0.2 0.2 0.4 0.2 0.3 0.5 0.7 0.7 1s0.3 0.5 0.5 0.8c0.1 0.2 0.2 0.4 0.3 0.5 0 0.1 0.1 0.2 0.2 0.3 3.2 5.9 8 10.9 13.8 14.5 5.6 3.4 12.2 5.3 19.1 5.3 7 0 13.6-1.9 19.3-5.3 5.8-3.5 10.6-8.5 13.8-14.5 2.2-4.1 5.4-7.5 9.4-9.9 3.8-2.3 8.4-3.6 13.2-3.6s9.3 1.3 13.1 3.6c4 2.4 7.3 5.9 9.5 10 3.2 5.9 8 11 13.8 14.4 5.6 3.4 12.2 5.3 19.2 5.3 7.1 0 13.7-1.9 19.3-5.3 5.8-3.5 10.6-8.5 13.8-14.5 2.2-4.1 5.4-7.5 9.4-9.9 3.8-2.3 8.3-3.6 13.2-3.6 4.8 0 9.2 1.3 13 3.6 2.5 1.5 4.7 3.4 6.5 5.6 0.1 0.2 0.3 0.3 0.4 0.5 0.2 0.3 0.4 0.5 0.6 0.8 0.3 0.4 0.6 0.8 0.8 1.2 0 0 0 0.1 0.1 0.1 0.4 0.6 0.7 1.2 1 1.8 3.2 5.9 8 10.9 13.8 14.5 5.6 3.4 12.2 5.3 19.1 5.3 7 0 13.6-1.9 19.3-5.3 5.8-3.5 10.6-8.5 13.8-14.5 2.2-4.1 5.4-7.5 9.4-9.9 3.8-2.3 8.4-3.6 13.2-3.6s9.3 1.3 13.1 3.6c4 2.4 7.3 5.9 9.5 10 3.2 5.9 8 11 13.8 14.4 5.6 3.4 12.2 5.3 19.2 5.3 7.1 0 13.7-1.9 19.3-5.3 5.8-3.5 10.6-8.5 13.8-14.5 2.2-4.1 5.4-7.5 9.4-9.9 3.8-2.3 8.3-3.6 13.2-3.6 4.8 0 9.2 1.3 13 3.6 3 1.8 5.6 4.2 7.6 7 0.1 0.1 0.2 0.2 0.2 0.4 0.2 0.3 0.5 0.7 0.7 1s0.3 0.5 0.5 0.8c0.1 0.2 0.2 0.4 0.3 0.5 0 0.1 0.1 0.2 0.1 0.3 3.2 5.9 8 10.9 13.8 14.5 5.6 3.4 12.2 5.3 19.1 5.3 7 0 13.6-1.9 19.3-5.3 5.8-3.5 10.6-8.5 13.8-14.5 2.2-4.1 5.4-7.5 9.4-9.9 3.8-2.3 8.4-3.6 13.2-3.6s9.3 1.3 13.1 3.6c4 2.4 7.3 5.9 9.5 10 3.2 5.9 8 11 13.8 14.4 5.6 3.4 12.2 5.3 19.2 5.3 7.1 0 13.7-1.9 19.3-5.3 5.8-3.5 10.6-8.5 13.8-14.5 0-0.1 0.1-0.1 0.1-0.2v-0.1c2.2-3.9 5.4-7.3 9.3-9.6 3.8-2.3 8.3-3.6 13.2-3.6 4.8 0 9.2 1.3 13 3.6 2.4 1.5 4.6 3.3 6.4 5.5l0.1 0.1c0.2 0.3 0.4 0.5 0.6 0.8 0.2 0.2 0.3 0.4 0.5 0.6 0.1 0.1 0.2 0.3 0.3 0.4 0.2 0.4 0.5 0.7 0.7 1.1 0 0 0 0.1 0.1 0.1 0.3 0.4 0.5 0.8 0.7 1.2 0 0.1 0.1 0.1 0.1 0.2 3.2 5.9 8 10.9 13.8 14.5 5.6 3.4 12.2 5.3 19.1 5.3 7 0 13.6-1.9 19.3-5.3 5.8-3.5 10.6-8.5 13.8-14.5 2.2-4.1 5.4-7.5 9.4-9.9 3.8-2.3 8.4-3.6 13.2-3.6s9.3 1.3 13.1 3.6c4 2.4 7.3 5.9 9.5 10 3.2 5.9 8 11 13.8 14.4 5.6 3.4 12.2 5.3 19.2 5.3 7.1 0 13.7-1.9 19.3-5.3 5.8-3.5 10.6-8.5 13.8-14.5 2.2-4.1 5.4-7.5 9.4-9.9 3.8-2.3 8.3-3.6 13.2-3.6 4.8 0 9.3 1.3 13 3.6 3 1.8 5.6 4.2 7.6 7 0.1 0.1 0.2 0.2 0.2 0.4 0.2 0.3 0.5 0.7 0.7 1s0.3 0.5 0.5 0.8c0.1 0.2 0.2 0.4 0.3 0.5 0 0.1 0.1 0.2 0.2 0.3 3.2 5.9 8 10.9 13.8 14.5 5.6 3.4 12.2 5.3 19.1 5.3 7 0 13.6-1.9 19.3-5.3 5.8-3.5 10.6-8.5 13.8-14.5 2.2-4.1 5.4-7.5 9.4-9.9 3.8-2.3 8.4-3.6 13.2-3.6h0.5v-10h-0.5z" />
</svg>