<svg class="thz-svg-shape thz-svg-small-waves" xmlns="http://www.w3.org/2000/svg" viewBox="0 0 1000 250" preserveAspectRatio="none">
<path d="M998.719,187.498c-4.642,0.069-8.679,1.435-12.36,3.649 c-2.971,1.788-5.551,4.18-7.586,6.995c-0.086,0.117-0.164,0.24-0.247,0.359c-0.234,0.335-0.467,0.672-0.686,1.019 c-0.166,0.261-0.318,0.531-0.475,0.8c-0.105,0.183-0.221,0.359-0.322,0.544v0.012c-0.048,0.087-0.103,0.171-0.149,0.259 c-3.171,5.914-7.953,10.929-13.78,14.437c-5.614,3.378-12.157,5.339-19.12,5.339c-7.032,0-13.618-1.941-19.239-5.315 c-5.803-3.482-10.573-8.499-13.742-14.483c-2.166-4.09-5.438-7.527-9.423-9.92c-3.837-2.302-8.343-3.629-13.168-3.629 c-4.798,0-9.26,1.321-13.049,3.598c-3.996,2.4-7.286,5.854-9.483,9.945c-3.185,5.93-7.966,10.944-13.776,14.435 c-5.624,3.38-12.176,5.341-19.147,5.341c-4.86,0-9.5-0.94-13.768-2.619c-1.864-0.75-3.667-1.628-5.375-2.654 c-5.812-3.49-10.592-8.505-13.776-14.435c-1.929-3.591-4.7-6.689-8.051-9.017c-0.208-0.146-0.426-0.274-0.638-0.413 c-0.265-0.173-0.524-0.353-0.795-0.516c-0.002-0.001-0.004-0.002-0.005-0.003c-0.008-0.004-0.015-0.01-0.021-0.014 c-3.828-2.296-8.325-3.619-13.143-3.619c-4.787,0-9.24,1.321-13.022,3.598c-1.495,0.898-2.876,1.968-4.152,3.15 c-0.034,0.032-0.068,0.064-0.103,0.097c-0.381,0.356-0.756,0.718-1.116,1.098c-0.155,0.162-0.3,0.333-0.451,0.5 c-0.238,0.266-0.488,0.521-0.716,0.796c-0.141,0.166-0.269,0.343-0.404,0.515c-0.2,0.253-0.403,0.503-0.594,0.765 c-0.293,0.4-0.57,0.813-0.842,1.229c-0.024,0.037-0.051,0.072-0.074,0.109c-0.366,0.571-0.718,1.153-1.04,1.754 c-3.17,5.914-7.953,10.929-13.781,14.437c-4.846,2.915-10.385,4.768-16.288,5.223c-0.083,0.006-0.164,0.02-0.247,0.025 c-0.212,0.015-0.43,0.012-0.644,0.022c-0.65,0.034-1.301,0.067-1.959,0.067s-1.309-0.033-1.959-0.067 c-0.214-0.011-0.432-0.008-0.644-0.022c-0.083-0.006-0.164-0.02-0.247-0.025c-5.903-0.455-11.442-2.308-16.289-5.223 c-5.828-3.508-10.61-8.522-13.781-14.437c-0.029-0.055-0.063-0.105-0.093-0.16v-0.026c-0.229-0.417-0.476-0.823-0.726-1.228 c-0.023-0.036-0.044-0.073-0.066-0.109c-0.229-0.362-0.472-0.714-0.717-1.063c-0.095-0.137-0.184-0.277-0.281-0.412 c-0.154-0.211-0.319-0.412-0.479-0.618c-0.203-0.263-0.401-0.528-0.614-0.782c-0.019-0.021-0.038-0.041-0.057-0.063 c-0.127-0.15-0.269-0.288-0.398-0.436c-0.267-0.305-0.537-0.606-0.819-0.897c-0.213-0.221-0.434-0.432-0.653-0.643 c-0.228-0.219-0.458-0.436-0.694-0.646c-0.271-0.242-0.546-0.479-0.828-0.711c-0.172-0.142-0.35-0.278-0.526-0.416 c-0.345-0.268-0.69-0.533-1.048-0.783c-0.01-0.007-0.02-0.013-0.028-0.019c-0.462-0.321-0.927-0.641-1.41-0.932 c-2.38-1.433-5.025-2.484-7.854-3.07c-1.722-0.363-3.508-0.557-5.34-0.557c-4.798,0-9.262,1.321-13.05,3.598 c-3.996,2.4-7.285,5.854-9.483,9.945c-3.185,5.93-7.966,10.944-13.777,14.435c-5.622,3.38-12.174,5.341-19.146,5.341 c-2.619,0-5.175-0.271-7.643-0.779c-4.082-0.875-7.929-2.423-11.418-4.52c-5.813-3.49-10.592-8.505-13.777-14.435 c-2.196-4.092-5.488-7.545-9.482-9.945c-3.343-2.01-7.213-3.271-11.374-3.54c-0.62-0.045-1.246-0.07-1.877-0.07 c-4.788,0-9.241,1.321-13.024,3.598c-2.972,1.787-5.551,4.18-7.586,6.995c-0.086,0.117-0.163,0.24-0.246,0.359 c-0.234,0.335-0.468,0.672-0.686,1.019c-0.166,0.261-0.318,0.531-0.475,0.8c-0.105,0.183-0.221,0.358-0.322,0.544v0.012 c-0.049,0.087-0.103,0.171-0.15,0.259c-3.171,5.914-7.953,10.929-13.779,14.437c-5.611,3.376-12.152,5.337-19.111,5.339 c-6.959-0.002-13.499-1.963-19.111-5.339c-5.827-3.508-10.609-8.522-13.78-14.437c-0.047-0.088-0.101-0.172-0.149-0.259v-0.012 c-0.102-0.186-0.218-0.361-0.323-0.544c-0.156-0.269-0.308-0.539-0.474-0.8c-0.218-0.347-0.451-0.684-0.686-1.019 c-0.083-0.119-0.16-0.242-0.246-0.359c-2.035-2.815-4.615-5.208-7.586-6.995c-3.783-2.276-8.236-3.598-13.023-3.598 c-0.632,0-1.257,0.025-1.877,0.07c-4.161,0.27-8.032,1.53-11.375,3.54c-3.994,2.4-7.286,5.854-9.483,9.945 c-3.185,5.93-7.965,10.944-13.777,14.435c-3.489,2.097-7.335,3.644-11.417,4.52c-2.469,0.509-5.025,0.779-7.644,0.779 c-6.97,0-13.522-1.961-19.145-5.341c-5.812-3.49-10.593-8.505-13.777-14.435c-2.198-4.092-5.488-7.545-9.483-9.945 c-3.789-2.276-8.252-3.598-13.05-3.598c-1.833,0-3.619,0.194-5.341,0.558c-2.826,0.585-5.472,1.638-7.852,3.069 c-0.482,0.291-0.946,0.609-1.407,0.93c-0.01,0.007-0.021,0.014-0.031,0.021c-0.358,0.251-0.703,0.516-1.048,0.783 c-0.176,0.138-0.354,0.273-0.526,0.416c-0.282,0.231-0.558,0.469-0.83,0.712c-0.235,0.21-0.464,0.426-0.692,0.645 c-0.22,0.212-0.442,0.423-0.655,0.644c-0.281,0.29-0.549,0.59-0.816,0.893c-0.131,0.149-0.273,0.288-0.401,0.44 c-0.019,0.022-0.038,0.042-0.057,0.063c-0.212,0.254-0.412,0.52-0.614,0.782c-0.16,0.206-0.325,0.407-0.479,0.618 c-0.098,0.135-0.188,0.275-0.282,0.412c-0.245,0.35-0.488,0.701-0.716,1.063c-0.022,0.036-0.043,0.073-0.066,0.109 c-0.251,0.404-0.498,0.811-0.726,1.228v0.026c-0.03,0.055-0.063,0.105-0.093,0.16c-3.171,5.914-7.953,10.929-13.781,14.437 c-4.846,2.915-10.386,4.768-16.289,5.223c-0.083,0.006-0.165,0.02-0.247,0.025c-0.213,0.015-0.43,0.012-0.644,0.022 c-0.65,0.034-1.3,0.067-1.959,0.067c-0.657,0-1.305-0.033-1.954-0.067c-0.215-0.011-0.434-0.007-0.649-0.022 c-0.081-0.006-0.158-0.019-0.239-0.024c-5.906-0.454-11.448-2.307-16.296-5.224c-5.829-3.508-10.61-8.522-13.781-14.437 c-0.322-0.601-0.674-1.183-1.041-1.754c-0.023-0.037-0.049-0.072-0.073-0.109c-0.271-0.417-0.549-0.829-0.842-1.229 c-0.19-0.262-0.394-0.512-0.593-0.765c-0.136-0.172-0.265-0.349-0.404-0.515c-0.238-0.288-0.499-0.555-0.749-0.832 c-0.14-0.152-0.272-0.311-0.415-0.461c-0.363-0.383-0.742-0.748-1.127-1.108c-0.031-0.028-0.061-0.058-0.091-0.086 c-1.278-1.184-2.66-2.254-4.156-3.153c-3.783-2.276-8.236-3.598-13.023-3.598c-4.817,0-9.314,1.323-13.142,3.619 c-0.007,0.004-0.014,0.01-0.021,0.014c-0.001,0.001-0.003,0.002-0.005,0.003c-0.248,0.148-0.483,0.313-0.725,0.47 c-0.236,0.154-0.479,0.298-0.709,0.459c-3.35,2.328-6.121,5.426-8.05,9.017c-3.184,5.93-7.965,10.944-13.776,14.435 c-1.707,1.026-3.509,1.903-5.374,2.653c-4.267,1.679-8.908,2.62-13.77,2.62c-6.971,0-13.523-1.961-19.146-5.341 c-5.812-3.49-10.592-8.505-13.777-14.435c-2.197-4.092-5.488-7.545-9.482-9.945c-3.79-2.276-8.252-3.598-13.051-3.598 c-4.824,0-9.331,1.327-13.167,3.629c-3.986,2.393-7.257,5.83-9.423,9.92c-3.169,5.984-7.938,11.001-13.742,14.483 c-5.622,3.374-12.206,5.315-19.239,5.315c-6.962,0-13.505-1.961-19.12-5.339c-5.827-3.508-10.609-8.522-13.78-14.437 c-0.047-0.088-0.102-0.172-0.15-0.259v-0.012c-0.102-0.185-0.217-0.361-0.322-0.544c-0.156-0.269-0.309-0.539-0.474-0.8 c-0.218-0.347-0.452-0.684-0.686-1.019c-0.083-0.119-0.161-0.242-0.247-0.359c-2.035-2.815-4.616-5.207-7.586-6.995 c-3.682-2.215-7.798-3.578-12.439-3.647c0,0-1.036-0.004-1.203,0V250h1h998h1v-62.5 C999.833,187.496,998.719,187.498,998.719,187.498z"/></svg>
