<svg class="thz-svg-shape thz-svg-small-zigzag" xmlns="http://www.w3.org/2000/svg" viewBox="0 0 1000 250" preserveAspectRatio="none">
    <polygon points="993.7,221.9 987.5,234.4 981.2,221.9 975,234.4 968.7,221.9 962.5,234.4 956.2,221.9 950,234.4 943.7,221.9 937.5,234.3 931.3,221.9 925,234.4 918.8,221.9 912.5,234.4 906.3,221.9 900,234.4 893.8,221.9 887.5,234.4 881.3,221.9 875,234.4 868.7,221.9 862.5,234.4 856.2,221.9 850,234.4 843.7,221.9 837.5,234.4 831.2,221.9 825,234.4 818.7,221.9 812.5,234.3 806.3,221.9 800,234.4 793.8,221.9 787.5,234.4 781.3,221.9 775,234.4 768.8,221.9 762.5,234.4 756.3,221.9 750,234.4 743.7,221.9 737.5,234.4 731.2,221.9 725,234.4 718.7,221.9 712.5,234.4 706.2,221.9 700,234.4 693.7,221.9 687.5,234.3 681.3,221.9 675,234.4 668.8,221.9 662.5,234.4 656.3,221.9 650,234.4 643.8,221.9 637.5,234.4 631.3,221.9 625,234.4 618.7,221.9 612.5,234.4 606.2,221.9 600,234.4 593.7,221.9 587.5,234.4 581.2,221.9 575,234.4 568.7,221.9 562.5,234.3 556.3,221.9 550,234.4 543.8,221.9 537.5,234.4 531.3,221.9 525,234.4 518.8,221.9 512.5,234.4 506.3,221.9 500,234.4 493.7,221.9 487.5,234.4 481.2,221.9 475,234.4 468.7,221.9 462.5,234.4 456.2,221.9 450,234.4 443.7,221.9 437.5,234.3 431.3,221.9 425,234.4 418.8,221.9 412.5,234.4 406.3,221.9 400,234.4 393.8,221.9 387.5,234.4 381.3,221.9 375,234.4 368.7,221.9 362.5,234.4 356.2,221.9 350,234.4 343.7,221.9 337.5,234.4 331.2,221.9 325,234.4 318.7,221.9 312.5,234.3 306.3,221.9 300,234.4 293.8,221.9 287.5,234.4 281.3,221.9 275,234.4 268.8,221.9 262.5,234.4 256.3,221.9 250,234.4 243.7,221.9 237.5,234.4 231.2,221.9 225,234.4 218.7,221.9 212.5,234.4 206.2,221.9 200,234.4 193.7,221.9 187.5,234.3 181.3,221.9 175,234.4 168.8,221.9 162.5,234.4 156.3,221.9 150,234.4 143.8,221.9 137.5,234.4 131.3,221.9 125,234.4 118.7,221.9 112.5,234.4 106.2,221.9 100,234.4 93.7,221.9 87.5,234.4 81.2,221.9 75,234.4 68.7,221.9 62.5,234.3 56.3,221.9 50,234.4 43.8,221.9 37.5,234.4 31.3,221.9 25,234.4 18.8,221.9 12.5,234.4 6.3,221.9 0,234.4 0,250 500,250 1000,250 1000,234.4 " />
</svg>