<svg class="thz-svg-shape thz-svg-three-side-waves" xmlns="http://www.w3.org/2000/svg" viewBox="0 0 1000 250" preserveAspectRatio="none"><path style="opacity:0.2;fill-rule:evenodd;clip-rule:evenodd;" d="M-94.5-10.3c68,0,103.8,27.8,150.5,30.5
	c112.5,6.5,208.6-17.7,321.2-8.1c383.8,32.5,310.1,113.4,471.3,93.5c169.7-21,261.2,45.3,261.2,211.6v148.2H-94.5V-10.3z"/>
<path style="opacity:0.4;fill-rule:evenodd;clip-rule:evenodd;" d="M393.9,167.2
	c103.7-16.5,70.6,40.9,146.3,92.8H0V18.7c30.5,0,42.6,24.9,82.4,23C365.1,27.6,247.7,190.5,393.9,167.2L393.9,167.2z"/>
<path style="fill-rule:evenodd;clip-rule:evenodd;" d="M60.9,145.4c-5.4,46.7,21.1,69.8,84.3,81
	c38.4,6.8,52.6,16.1,75.6,33.6H0V31.1c15.3,0,40.2,14.4,54.4,43.5C66.6,99.8,63.9,118.7,60.9,145.4L60.9,145.4z"/></svg>