<svg class="thz-svg-shape thz-svg-three-waves-double" xmlns="http://www.w3.org/2000/svg" viewBox="0 0 1000 250" preserveAspectRatio="none">
 <path style="opacity:0.15;" d="M628,180c-42.5,0-88-61.5-137.5-61.5c-53,0-83.5,58.979-162.006,58.979 c-40.5,0-81.994-58.979-186.494-58.979C60,118.5,0,190,0,190v25.5h1000v-34c-99,0-98-66.5-195-66.5C724,115,707,180,628,180z"/>
 <path d="M756.5,197.5c-47.75,0-78.75-41.25-154.125-41.25C532.5,156.25,512.25,196,440,196 c-45.029,0-77.25-29.5-138-29.5c-60,0-111.75,36.75-180.25,36.75C44,203.25,0,151.5,0,151.5V250h1000V141.5 C840.75,131.5,838.25,197.5,756.5,197.5z"/>
</svg>