<svg class="thz-svg-shape thz-svg-three-graphs" xmlns="http://www.w3.org/2000/svg" viewBox="0 0 1000 500" preserveAspectRatio="none">
<polyline points="1204.5,136.741 986.074,249.839 893.408,303.999 789.712,296.034 706.974,331.078 635.269,318.335 
	561.357,354.974 456.557,370.9 339.622,359.754 260.194,396.392 149.878,366.124 -52,439.399 -52,574.799 1204.5,585.95 "/>
<polyline style="opacity:0.4;" points="1057,101.648 873.254,203.463 795.302,252.22 708.069,245.05 638.468,276.598 
	578.148,265.127 515.972,298.108 427.811,312.448 329.442,302.412 262.626,335.396 169.825,308.147 0,374.112 0,496.003 
	1057,506.043 "/>
<polyline style="opacity:0.2;" points="1004.5,55.191 829.881,151.949 755.8,198.284 672.9,191.471 606.756,221.451 
	549.432,210.55 490.344,241.894 406.562,255.521 313.079,245.983 249.582,277.328 161.39,251.434 0,314.122 0,429.959 1004.5,439.5 
	"/>
</svg>