<svg class="thz-svg-shape thz-svg-water-waves-multiple" xmlns="http://www.w3.org/2000/svg" viewBox="0 0 1000 250" preserveAspectRatio="none">
    <path style="opacity:0.2" d="M950,198.3c-19.9,0-37.8-11.9-50-30.8c0,0,0,0,0,0c-12.2,18.9-30.1,30.8-50,30.8c-19.9,0-37.8-11.9-50-30.8   c-12.2,18.9-30.1,30.8-50,30.8c-19.9,0-37.8-11.9-50-30.8c-12.2,18.9-30.1,30.8-50,30.8s-37.8-11.9-50-30.8   c-12.2,18.9-30.1,30.8-50,30.8c-19.9,0-37.8-11.9-50-30.8c0,0,0,0,0,0c0,0,0,0,0,0c0,0,0,0,0,0v0c-12.2,18.9-30.1,30.8-50,30.8   c-19.9,0-37.8-11.9-50-30.8c0,0,0,0,0,0c-12.2,18.9-30.1,30.8-50,30.8c-19.9,0-37.8-11.9-50-30.8c-12.2,18.9-30.1,30.8-50,30.8   c-19.9,0-37.8-11.9-50-30.8c-12.2,18.9-30.1,30.8-50,30.8c-19.9,0-37.8-11.9-50-30.8c-12.2,18.9-30.1,30.8-50,30.8   s-37.8-11.9-50-30.8v10c12.2,18.9,30.1,30.8,50,30.8s37.8-11.9,50-30.8c12.2,18.9,30.1,30.8,50,30.8c19.9,0,37.8-11.9,50-30.8   c12.2,18.9,30.1,30.8,50,30.8c19.9,0,37.8-11.9,50-30.8c12.2,18.9,30.1,30.8,50,30.8c19.9,0,37.8-11.9,50-30.8c0,0,0,0,0,0   c12.2,18.9,30.1,30.8,50,30.8c19.9,0,37.8-11.9,50-30.8v0c0,0,0,0,0,0c0,0,0,0,0,0c0,0,0,0,0,0c12.2,18.9,30.1,30.8,50,30.8   c19.9,0,37.8-11.9,50-30.8c12.2,18.9,30.1,30.8,50,30.8s37.8-11.9,50-30.8c12.2,18.9,30.1,30.8,50,30.8c19.9,0,37.8-11.9,50-30.8   c12.2,18.9,30.1,30.8,50,30.8c19.9,0,37.8-11.9,50-30.8c0,0,0,0,0,0c12.2,18.9,30.1,30.8,50,30.8c19.9,0,37.8-11.9,50-30.8   c0-3.7,0-7.3,0-10C987.8,186.4,969.9,198.3,950,198.3z" />
    <path style="opacity:0.4" d="M950,208.3c-19.9,0-37.8-11.9-50-30.8c0,0,0,0,0,0c-12.2,18.9-30.1,30.8-50,30.8c-19.9,0-37.8-11.9-50-30.8   c-12.2,18.9-30.1,30.8-50,30.8c-19.9,0-37.8-11.9-50-30.8c-12.2,18.9-30.1,30.8-50,30.8s-37.8-11.9-50-30.8   c-12.2,18.9-30.1,30.8-50,30.8c-19.9,0-37.8-11.9-50-30.8c0,0,0,0,0,0c0,0,0,0,0,0c0,0,0,0,0,0v0c-12.2,18.9-30.1,30.8-50,30.8   c-19.9,0-37.8-11.9-50-30.8c0,0,0,0,0,0c-12.2,18.9-30.1,30.8-50,30.8c-19.9,0-37.8-11.9-50-30.8c-12.2,18.9-30.1,30.8-50,30.8   c-19.9,0-37.8-11.9-50-30.8c-12.2,18.9-30.1,30.8-50,30.8c-19.9,0-37.8-11.9-50-30.8c-12.2,18.9-30.1,30.8-50,30.8   s-37.8-11.9-50-30.8v10c12.2,18.9,30.1,30.8,50,30.8s37.8-11.9,50-30.8c12.2,18.9,30.1,30.8,50,30.8c19.9,0,37.8-11.9,50-30.8   c12.2,18.9,30.1,30.8,50,30.8c19.9,0,37.8-11.9,50-30.8c12.2,18.9,30.1,30.8,50,30.8c19.9,0,37.8-11.9,50-30.8c0,0,0,0,0,0   c12.2,18.9,30.1,30.8,50,30.8c19.9,0,37.8-11.9,50-30.8v0c0,0,0,0,0,0c0,0,0,0,0,0c0,0,0,0,0,0c12.2,18.9,30.1,30.8,50,30.8   c19.9,0,37.8-11.9,50-30.8c12.2,18.9,30.1,30.8,50,30.8s37.8-11.9,50-30.8c12.2,18.9,30.1,30.8,50,30.8c19.9,0,37.8-11.9,50-30.8   c12.2,18.9,30.1,30.8,50,30.8c19.9,0,37.8-11.9,50-30.8c0,0,0,0,0,0c12.2,18.9,30.1,30.8,50,30.8c19.9,0,37.8-11.9,50-30.8   c0-3.7,0-7.3,0-10C987.8,196.4,969.9,208.3,950,208.3z" />
    <path d="M950,218.3c-19.9,0-37.8-11.9-50-30.8c0,0,0,0,0,0c-12.2,18.9-30.1,30.8-50,30.8c-19.9,0-37.8-11.9-50-30.8   c-12.2,18.9-30.1,30.8-50,30.8c-19.9,0-37.8-11.9-50-30.8c-12.2,18.9-30.1,30.8-50,30.8s-37.8-11.9-50-30.8   c-12.2,18.9-30.1,30.8-50,30.8c-19.9,0-37.8-11.9-50-30.8c0,0,0,0,0,0c0,0,0,0,0,0c0,0,0,0,0,0v0c-12.2,18.9-30.1,30.8-50,30.8   c-19.9,0-37.8-11.9-50-30.8c0,0,0,0,0,0c-12.2,18.9-30.1,30.8-50,30.8c-19.9,0-37.8-11.9-50-30.8c-12.2,18.9-30.1,30.8-50,30.8   c-19.9,0-37.8-11.9-50-30.8c-12.2,18.9-30.1,30.8-50,30.8c-19.9,0-37.8-11.9-50-30.8c-12.2,18.9-30.1,30.8-50,30.8   s-37.8-11.9-50-30.8V240v10h400h100h0h400h100v-10v-21.7c0,0,0-4.3,0-10c0-6.8,0-15.5,0-20.8C987.8,206.4,969.9,218.3,950,218.3z" />
</svg>