<svg class="thz-svg-shape thz-svg-water-waves" xmlns="http://www.w3.org/2000/svg" viewBox="0 0 1000 250" preserveAspectRatio="none">
    <path d="M950,218.3c-19.9,0-37.8-11.9-50-30.8c0,0,0,0,0,0c-12.2,18.9-30.1,30.8-50,30.8c-19.9,0-37.8-11.9-50-30.8  c-12.2,18.9-30.1,30.8-50,30.8c-19.9,0-37.8-11.9-50-30.8c-12.2,18.9-30.1,30.8-50,30.8s-37.8-11.9-50-30.8  c-12.2,18.9-30.1,30.8-50,30.8c-19.9,0-37.8-11.9-50-30.8c0,0,0,0,0,0c0,0,0,0,0,0c0,0,0,0,0,0v0c-12.2,18.9-30.1,30.8-50,30.8  c-19.9,0-37.8-11.9-50-30.8c0,0,0,0,0,0c-12.2,18.9-30.1,30.8-50,30.8c-19.9,0-37.8-11.9-50-30.8c-12.2,18.9-30.1,30.8-50,30.8  c-19.9,0-37.8-11.9-50-30.8c-12.2,18.9-30.1,30.8-50,30.8c-19.9,0-37.8-11.9-50-30.8c-12.2,18.9-30.1,30.8-50,30.8  s-37.8-11.9-50-30.8V250h400h100h0h400h100v-31.7c0,0,0-21,0-30.8C987.8,206.4,969.9,218.3,950,218.3z" />
</svg>