<svg class="thz-svg-shape thz-svg-wave-down" xmlns="http://www.w3.org/2000/svg" viewBox="0 0 1000 500" preserveAspectRatio="none"><path d="M0,371.33c16,3,26.75-37.58,59.07-37.12,26.2.37,31.53,20,45.78,20.82s23.81-6.19,40.06,4.39,22.3,15.57,40.29,15,31.75-23.77,61.64-21.13,34.51,17.39,61.76,13.31,25.63-39.69,69-34.17,37.42,33.15,73.44,15,50.87-30.12,77.52,10.59S570,394.12,581,384s20.53-40.22,59-29.94c21.43,5.75,30.13,20.56,49.86,13.65s30.5,39.27,59.18,35,36.63-21.77,58-18.94,30.35-26,33.79-38,15.35-42.26,37.34-38.59,40.48,51.29,64,45,26.38,43.54,57.83,38.36V500H0Z" style="fill-rule:evenodd"/></svg>