<svg class="thz-svg-shape thz-svg-wave-down-multiple" xmlns="http://www.w3.org/2000/svg" viewBox="0 0 1000 500" preserveAspectRatio="none"><path d="M1000,325.12c-23.13,17.57-88.1-15.57-127.56-24.11-45.73-9.87-58.51,52.08-119.28,28.42-28.16-11-31,2.15-58.25-2.5s-29.14-42.21-72.45-37.68S585,321.6,549,302.74s-55.29,0-83.49,20.26c-24.38,17.5-61.57-14.21-112.1-1.77-23.24,5.74-33.79,32.95-92.79,33.52-29.14.27-30.8-36.06-69.16-27.89-11.76,2.49-32.4,26.45-63,20.33-24.72-4.95-35-22.41-47.62-21.92C56.35,326.18,31.48,359.89,0,357V500H1000Z" style="opacity:0.2"/><path d="M1000,365c-32.54,34.92-96.42-27.94-136.18-36.86-49.7-11.18-48.91,59.3-110.66,36.63-28.16-10.36-34.47,17.38-61.72,13.34s-25.67-46.19-69-40.71S585,370.59,549,352.48s-66-18.29-83.49,12.06C453.28,385.63,430,383.06,419,372.89S398.44,332.68,360,343c-23.24,6.23-48.75,41.38-107.83,41.38-29,0-38.36-29.25-59.71-26.41-11.8,1.58-45.17,20.75-75.75,12.43C92,363.6,93.24,354.6,80.85,351.31,57.37,345,31.48,384.57,0,379.39V500H1000Z" style="opacity:0.4"/><path d="M0,400.11c13.64,0,33-18.83,59.07-15.95s31.53,20,45.78,20.82,23.81-6.2,40.06,4.39,22.3,15.57,40.29,15,31.75-23.78,61.64-21.13,34.51,17.39,61.76,13.3,25.63-39.68,69-34.16,37.42,33.14,73.44,15,50.87-30.12,77.52,10.58,41.5,36,52.49,25.86,20.53-40.22,59-29.94c21.43,5.75,30.13,20.56,49.86,13.65s30.5,39.27,59.18,35,36.63-21.77,58-18.93,30.35-26,33.79-38,15.35-42.26,37.34-38.59,40.48,51.29,64,45,26.38,43.54,57.83,38.37V500H0Z" /></svg>