<svg class="thz-svg-shape thz-svg-zigzag-multiple" xmlns="http://www.w3.org/2000/svg" viewBox="0 0 1000 250" preserveAspectRatio="none">
    <polygon points="950,205 900,227.5 850,205 800,227.5 750,205 700,227.5 650,205 600.3,227.5 550,205 500.3,227.4 450.5,205 400.5,227.5 350.5,205 300.5,227.5 250.5,205 200.5,227.5 150.5,205 100.8,227.5 50.5,205 0.5,227.5 0.5,240 0.5,250 500,250 500.5,250 1000,250 1000,240 1000,227.5 " />
    <polygon style="opacity:0.2;" points="950,185 900,207.5 850,185 800,207.5 750,185 700,207.5 650,185 600.3,207.5 550,185 500.3,207.4 450.5,185 400.5,207.5 350.5,185 300.5,207.5 250.5,185 200.5,207.5 150.5,185 100.8,207.5 50.5,185 0.5,207.5 0.5,217.5 50.5,195 100.8,217.5 150.5,195 200.5,217.5 250.5,195 300.5,217.5 350.5,195 400.5,217.5 450.5,195 500.3,217.4 550,195 600.3,217.5 650,195 700,217.5 750,195 800,217.5 850,195 900,217.5 950,195 1000,217.5 1000,207.5 " />
    <polygon style="opacity:0.4;" points="950,195 900,217.5 850,195 800,217.5 750,195 700,217.5 650,195 600.3,217.5 550,195 500.3,217.4 450.5,195 400.5,217.5 350.5,195 300.5,217.5 250.5,195 200.5,217.5 150.5,195 100.8,217.5 50.5,195 0.5,217.5 0.5,227.5 50.5,205 100.8,227.5 150.5,205 200.5,227.5 250.5,205 300.5,227.5 350.5,205 400.5,227.5 450.5,205 500.3,227.4 550,205 600.3,227.5 650,205 700,227.5 750,205 800,227.5 850,205 900,227.5 950,205 1000,227.5 1000,217.5 " />
</svg>